<svg width="311" height="289" viewBox="0 0 311 289" fill="none" xmlns="http://www.w3.org/2000/svg">
<path d="M25.5846 41.5435C47.9126 -6.01649 127.233 0.68751 157.841 34.1355C188.449 67.5835 198.401 89.0155 226.009 76.5355C253.617 64.0555 288.825 67.3835 290.809 107.072C292.793 146.76 260.513 193.664 209.169 207.544C157.825 221.424 157.841 270.552 89.8886 260.64C52.8406 255.24 52.0006 215.152 57.2326 182C62.4646 148.848 -0.319391 96.6955 25.5846 41.5435Z" fill="#0196DA"/>
<path opacity="0.9" d="M25.5846 41.5435C47.9126 -6.01649 127.233 0.68751 157.841 34.1355C188.449 67.5835 198.401 89.0155 226.009 76.5355C253.617 64.0555 288.825 67.3835 290.809 107.072C292.793 146.76 260.513 193.664 209.169 207.544C157.825 221.424 157.841 270.552 89.8886 260.64C52.8406 255.24 52.0006 215.152 57.2326 182C62.4646 148.848 -0.319391 96.6955 25.5846 41.5435Z" fill="white"/>
<path d="M155.112 288.511C240.778 288.511 310.224 284.457 310.224 279.455C310.224 274.454 240.778 270.399 155.112 270.399C69.446 270.399 0 274.454 0 279.455C0 284.457 69.446 288.511 155.112 288.511Z" fill="#F5F5F5"/>
<path d="M282.209 258.575C282.209 258.575 283.337 250.279 288.649 249.367C293.961 248.455 292.353 244.447 293.737 242.895C295.121 241.343 298.729 245.927 295.641 250.367C292.553 254.807 295.073 253.407 293.737 257.567C292.401 261.727 281.721 265.455 282.209 258.575Z" fill="#263238"/>
<path d="M282.423 264.296C282.379 264.307 282.332 264.307 282.287 264.296C282.248 264.277 282.212 264.252 282.182 264.22C282.153 264.188 282.13 264.15 282.115 264.109C282.1 264.068 282.093 264.025 282.096 263.981C282.098 263.938 282.108 263.895 282.127 263.855C282.167 263.775 286.127 255.32 284.031 241.8C283.363 237.909 282.291 234.099 280.831 230.431C278.311 223.567 276.135 217.632 280.895 207.272C282.367 204.072 283.871 201.079 285.319 198.191C290.687 187.535 294.919 179.111 291.839 170.743C291.823 170.703 291.814 170.659 291.815 170.615C291.815 170.57 291.825 170.527 291.843 170.486C291.861 170.446 291.887 170.41 291.919 170.379C291.951 170.349 291.989 170.326 292.031 170.311C292.072 170.296 292.116 170.289 292.16 170.291C292.205 170.294 292.248 170.305 292.287 170.325C292.327 170.344 292.362 170.371 292.391 170.405C292.42 170.438 292.442 170.477 292.455 170.519C295.655 179.151 291.351 187.688 285.911 198.52C284.463 201.399 282.959 204.376 281.487 207.576C276.847 217.688 278.879 223.223 281.447 230.231C282.926 233.92 284.02 237.751 284.711 241.663C286.839 255.407 282.791 264.023 282.751 264.111C282.722 264.172 282.675 264.222 282.616 264.255C282.558 264.288 282.49 264.302 282.423 264.296Z" fill="#263238"/>
<path d="M285.512 262.312C285.512 262.312 288.944 257.136 283.992 254.48C279.04 251.824 278.048 253.96 274.984 252.08C271.92 250.2 269.6 245.536 269.08 248.496C268.56 251.456 272.096 253.152 270.848 254.504C269.6 255.856 279.152 264.64 285.512 262.312Z" fill="#263238"/>
<path d="M293.584 174.92C293.584 174.92 296.928 164.76 289.328 164.52C281.728 164.28 290.104 173.832 293.584 174.92Z" fill="#263238"/>
<path d="M286.983 182.729C286.983 182.729 284.719 173.489 279.319 175.441C273.919 177.393 281.599 182.897 286.983 182.729Z" fill="#263238"/>
<path d="M296.136 183.528C296.136 183.528 295.336 176.16 301.048 176.008C306.76 175.856 304.224 182.336 296.136 183.528Z" fill="#263238"/>
<path d="M292.328 198.568C292.328 198.568 300.008 191.712 302.776 196.816C305.544 201.92 296.976 202.976 292.328 198.568Z" fill="#263238"/>
<path d="M278.728 197.352C278.728 197.352 277.288 185.976 271.08 189.544C264.872 193.112 273.328 198.464 278.728 197.352Z" fill="#263238"/>
<path d="M273.271 213.664C273.271 213.664 277.847 202.168 269.335 203.464C260.823 204.76 267.263 210.848 273.271 213.664Z" fill="#263238"/>
<path d="M286.312 217.736C286.312 217.736 293.513 209.272 298.993 211.952C304.473 214.632 300.024 223.064 286.312 217.736Z" fill="#263238"/>
<path d="M279.808 236.503C279.808 236.503 273.68 222.903 268.232 227.487C262.784 232.071 271.712 238.927 279.808 236.503Z" fill="#263238"/>
<path d="M288.712 235.712C288.712 235.712 287.112 225.16 293.16 226.008C299.208 226.856 297.632 233.312 288.712 235.712Z" fill="#263238"/>
<g opacity="0.2">
<path d="M293.584 174.92C293.584 174.92 296.928 164.76 289.328 164.52C281.728 164.28 290.104 173.832 293.584 174.92Z" fill="white"/>
<path d="M286.983 182.729C286.983 182.729 284.719 173.489 279.319 175.441C273.919 177.393 281.599 182.897 286.983 182.729Z" fill="white"/>
<path d="M296.135 183.528C296.135 183.528 295.335 176.16 301.047 176.008C306.759 175.856 304.223 182.336 296.135 183.528Z" fill="white"/>
<path d="M292.327 198.568C292.327 198.568 300.007 191.712 302.775 196.816C305.543 201.92 296.975 202.976 292.327 198.568Z" fill="white"/>
<path d="M278.727 197.352C278.727 197.352 277.287 185.976 271.079 189.544C264.871 193.112 273.327 198.464 278.727 197.352Z" fill="white"/>
<path d="M273.271 213.664C273.271 213.664 277.847 202.168 269.335 203.464C260.823 204.76 267.263 210.848 273.271 213.664Z" fill="white"/>
<path d="M286.312 217.736C286.312 217.736 293.512 209.272 298.992 211.952C304.472 214.632 300.024 223.064 286.312 217.736Z" fill="white"/>
<path d="M279.808 236.503C279.808 236.503 273.68 222.903 268.232 227.487C262.784 232.071 271.712 238.927 279.808 236.503Z" fill="white"/>
<path d="M288.711 235.712C288.711 235.712 287.111 225.16 293.159 226.008C299.207 226.856 297.631 233.312 288.711 235.712Z" fill="white"/>
</g>
<path d="M290.312 188.808H290.216C290.173 188.796 290.133 188.774 290.098 188.746C290.064 188.717 290.036 188.681 290.016 188.64C290.016 188.584 287.072 183 284.872 181.68C284.827 181.662 284.787 181.634 284.754 181.598C284.721 181.563 284.696 181.521 284.681 181.475C284.666 181.428 284.661 181.38 284.666 181.331C284.672 181.283 284.688 181.237 284.713 181.195C284.738 181.154 284.772 181.118 284.812 181.091C284.852 181.064 284.897 181.046 284.945 181.038C284.993 181.03 285.042 181.033 285.089 181.045C285.136 181.058 285.179 181.081 285.216 181.112C287.288 182.36 289.784 186.816 290.44 188.032C294.648 185.552 297.752 180.992 297.784 180.944C297.808 180.908 297.839 180.878 297.875 180.854C297.911 180.83 297.952 180.814 297.994 180.806C298.036 180.798 298.08 180.798 298.122 180.806C298.164 180.815 298.204 180.832 298.24 180.856C298.276 180.88 298.306 180.911 298.33 180.947C298.354 180.983 298.37 181.024 298.379 181.066C298.387 181.108 298.386 181.152 298.378 181.194C298.369 181.236 298.352 181.276 298.328 181.312C298.192 181.512 294.96 186.264 290.472 188.776C290.423 188.802 290.367 188.813 290.312 188.808Z" fill="#263238"/>
<path d="M283.328 202.919H283.264C283.218 202.912 283.174 202.895 283.135 202.868C283.096 202.842 283.064 202.808 283.04 202.767C283.04 202.703 279.376 196.607 274.712 193.863C274.636 193.82 274.582 193.748 274.559 193.664C274.537 193.58 274.548 193.491 274.592 193.415C274.637 193.34 274.71 193.284 274.795 193.262C274.881 193.24 274.971 193.252 275.048 193.295C279.296 195.799 282.6 200.807 283.424 202.095C289.976 197.295 298.152 197.543 298.232 197.535C298.276 197.536 298.319 197.546 298.359 197.564C298.399 197.582 298.435 197.608 298.464 197.64C298.494 197.672 298.517 197.71 298.532 197.751C298.547 197.792 298.554 197.836 298.552 197.879C298.551 197.923 298.541 197.965 298.524 198.004C298.506 198.044 298.481 198.079 298.45 198.109C298.419 198.139 298.382 198.162 298.342 198.178C298.302 198.193 298.259 198.201 298.216 198.199C298.136 198.199 289.936 197.999 283.528 202.839C283.471 202.886 283.401 202.914 283.328 202.919Z" fill="#263238"/>
<path d="M278.888 221.576C278.813 221.575 278.74 221.55 278.68 221.504C274.112 217.832 270.6 208.704 270.456 208.312C270.423 208.225 270.426 208.128 270.465 208.043C270.503 207.959 270.573 207.892 270.66 207.86C270.747 207.827 270.844 207.83 270.929 207.868C271.013 207.906 271.079 207.977 271.112 208.064C271.112 208.152 274.608 217.176 278.96 220.864C280.4 220.064 288.84 215.448 295.304 215.32C295.39 215.32 295.472 215.353 295.533 215.413C295.595 215.473 295.63 215.554 295.632 215.64C295.634 215.683 295.628 215.726 295.613 215.767C295.598 215.808 295.574 215.845 295.544 215.876C295.514 215.908 295.478 215.933 295.439 215.95C295.399 215.967 295.356 215.976 295.312 215.976C288.544 216.112 279.184 221.488 279.088 221.576C279.023 221.598 278.953 221.598 278.888 221.576Z" fill="#263238"/>
<path d="M284.304 240.864C284.252 240.864 284.201 240.852 284.155 240.828C284.109 240.805 284.069 240.77 284.04 240.728C281.414 237.556 277.884 235.259 273.92 234.144C273.836 234.12 273.765 234.063 273.723 233.986C273.681 233.91 273.671 233.82 273.696 233.736C273.72 233.652 273.777 233.581 273.853 233.539C273.93 233.497 274.02 233.488 274.104 233.512C278.104 234.628 281.683 236.909 284.384 240.064C287.72 237.864 292.12 229.336 292.16 229.248C292.206 229.182 292.275 229.135 292.354 229.115C292.433 229.096 292.516 229.106 292.588 229.143C292.66 229.18 292.716 229.241 292.746 229.317C292.776 229.392 292.778 229.475 292.752 229.552C292.56 229.928 288 238.768 284.472 240.752C284.429 240.806 284.37 240.845 284.304 240.864Z" fill="#263238"/>
<path d="M284.968 261.072C284.968 261.072 287.904 256.392 291.232 255.728C294.56 255.064 295.984 251.232 297.208 253.536C298.432 255.84 295.056 263.464 284.968 261.072Z" fill="#263238"/>
<path d="M300.231 279.457H268.111L265.959 259.641H302.375L300.231 279.457Z" fill="#0196DA"/>
<path d="M303.128 263.391H265.208L264.728 259.199H303.616L303.128 263.391Z" fill="#0196DA"/>
<path opacity="0.3" d="M303.128 263.391H265.208L264.728 259.199H303.616L303.128 263.391Z" fill="white"/>
<path d="M50.9926 171.607C55.1075 180.92 57.545 190.886 58.1926 201.047C58.2324 201.825 58.0026 202.592 57.5421 203.221C57.0816 203.849 56.4184 204.299 55.6646 204.495C55.3709 204.579 55.0662 204.62 54.7606 204.615H39.2966V273.039H49.6966C50.5301 273.049 51.3267 273.384 51.9168 273.973C52.507 274.562 52.8442 275.357 52.8566 276.191H21.1686C21.1812 275.35 21.5239 274.549 22.1227 273.959C22.7214 273.369 23.5282 273.039 24.3686 273.039H34.7686V204.615H19.2726C18.967 204.62 18.6623 204.579 18.3686 204.495C17.6155 204.299 16.9533 203.848 16.4941 203.22C16.0349 202.592 15.8069 201.824 15.8486 201.047C16.4966 190.886 18.934 180.92 23.0486 171.607C24.8753 167.389 25.7337 162.815 25.5607 158.221C25.3876 153.628 24.1875 149.132 22.0486 145.063C18.4566 138.231 15.1126 131.143 15.8566 129.647C17.3686 126.607 18.8806 125.135 26.4326 124.255C31.3686 123.671 32.3206 120.783 32.3846 118.871C32.3987 118.396 32.3095 117.924 32.123 117.488C31.9365 117.051 31.6572 116.661 31.3046 116.343C24.3686 110.031 23.9926 95.5427 35.6966 93.7107V93.5107C36.0886 93.5107 36.4966 93.5107 36.8246 93.5507H37.2006C37.5766 93.5507 37.9526 93.5107 38.3366 93.5107V93.7107C50.0486 95.5747 49.6646 110.031 42.7366 116.343C42.3857 116.662 42.1076 117.053 41.9212 117.489C41.7348 117.925 41.6446 118.397 41.6566 118.871C41.7206 120.783 42.6726 123.671 47.6086 124.255C55.1686 125.135 56.6726 126.607 58.1846 129.647C58.9286 131.143 55.5926 138.231 52.0006 145.063C49.8604 149.131 48.6589 153.627 48.4845 158.22C48.3101 162.814 49.1671 167.388 50.9926 171.607Z" fill="#263238"/>
<path opacity="0.4" d="M50.9926 171.607C55.1075 180.92 57.545 190.886 58.1926 201.047C58.2324 201.825 58.0026 202.592 57.5421 203.221C57.0816 203.849 56.4184 204.299 55.6646 204.495C55.3709 204.579 55.0662 204.62 54.7606 204.615H39.2966V273.039H49.6966C50.5301 273.049 51.3267 273.384 51.9168 273.973C52.507 274.562 52.8442 275.357 52.8566 276.191H21.1686C21.1812 275.35 21.5239 274.549 22.1227 273.959C22.7214 273.369 23.5282 273.039 24.3686 273.039H34.7686V204.615H19.2726C18.967 204.62 18.6623 204.579 18.3686 204.495C17.6155 204.299 16.9533 203.848 16.4941 203.22C16.0349 202.592 15.8069 201.824 15.8486 201.047C16.4966 190.886 18.934 180.92 23.0486 171.607C24.8753 167.389 25.7337 162.815 25.5607 158.221C25.3876 153.628 24.1875 149.132 22.0486 145.063C18.4566 138.231 15.1126 131.143 15.8566 129.647C17.3686 126.607 18.8806 125.135 26.4326 124.255C31.3686 123.671 32.3206 120.783 32.3846 118.871C32.3987 118.396 32.3095 117.924 32.123 117.488C31.9365 117.051 31.6572 116.661 31.3046 116.343C24.3686 110.031 23.9926 95.5427 35.6966 93.7107V93.5107C36.0886 93.5107 36.4966 93.5107 36.8246 93.5507H37.2006C37.5766 93.5507 37.9526 93.5107 38.3366 93.5107V93.7107C50.0486 95.5747 49.6646 110.031 42.7366 116.343C42.3857 116.662 42.1076 117.053 41.9212 117.489C41.7348 117.925 41.6446 118.397 41.6566 118.871C41.7206 120.783 42.6726 123.671 47.6086 124.255C55.1686 125.135 56.6726 126.607 58.1846 129.647C58.9286 131.143 55.5926 138.231 52.0006 145.063C49.8604 149.131 48.6589 153.627 48.4845 158.22C48.3101 162.814 49.1671 167.388 50.9926 171.607Z" fill="white"/>
<path d="M50.9926 171.607C55.1075 180.92 57.545 190.886 58.1926 201.047C58.2324 201.825 58.0026 202.592 57.5421 203.221C57.0816 203.849 56.4184 204.299 55.6646 204.495H18.3686C17.6155 204.299 16.9533 203.848 16.4941 203.22C16.0349 202.592 15.8069 201.824 15.8486 201.047C16.4966 190.886 18.934 180.92 23.0486 171.607C24.8753 167.389 25.7337 162.815 25.5607 158.221C25.3876 153.628 24.1875 149.132 22.0486 145.063C18.4566 138.231 15.1126 131.143 15.8566 129.647C17.3686 126.607 18.8806 125.135 26.4326 124.255C31.3686 123.671 32.3206 120.783 32.3846 118.871C32.3987 118.396 32.3095 117.924 32.123 117.488C31.9365 117.051 31.6572 116.661 31.3046 116.343C24.3686 110.031 23.9926 95.5427 35.6966 93.7107V93.5107C36.0886 93.5107 36.4966 93.5107 36.8246 93.5507H37.2006C37.5766 93.5507 37.9526 93.5107 38.3366 93.5107V93.7107C50.0486 95.5747 49.6646 110.031 42.7366 116.343C42.3857 116.662 42.1076 117.053 41.9212 117.489C41.7348 117.925 41.6446 118.397 41.6566 118.871C41.7206 120.783 42.6726 123.671 47.6086 124.255C55.1686 125.135 56.6726 126.607 58.1846 129.647C58.9286 131.143 55.5926 138.231 52.0006 145.063C49.8604 149.131 48.6589 153.627 48.4845 158.22C48.3101 162.814 49.1671 167.388 50.9926 171.607Z" fill="#0196DA"/>
<path opacity="0.7" d="M50.9926 171.607C55.1075 180.92 57.545 190.886 58.1926 201.047C58.2324 201.825 58.0026 202.592 57.5421 203.221C57.0816 203.849 56.4184 204.299 55.6646 204.495H18.3686C17.6155 204.299 16.9533 203.848 16.4941 203.22C16.0349 202.592 15.8069 201.824 15.8486 201.047C16.4966 190.886 18.934 180.92 23.0486 171.607C24.8753 167.389 25.7337 162.815 25.5607 158.221C25.3876 153.628 24.1875 149.132 22.0486 145.063C18.4566 138.231 15.1126 131.143 15.8566 129.647C17.3686 126.607 18.8806 125.135 26.4326 124.255C31.3686 123.671 32.3206 120.783 32.3846 118.871C32.3987 118.396 32.3095 117.924 32.123 117.488C31.9365 117.051 31.6572 116.661 31.3046 116.343C24.3686 110.031 23.9926 95.5427 35.6966 93.7107V93.5107C36.0886 93.5107 36.4966 93.5107 36.8246 93.5507H37.2006C37.5766 93.5507 37.9526 93.5107 38.3366 93.5107V93.7107C50.0486 95.5747 49.6646 110.031 42.7366 116.343C42.3857 116.662 42.1076 117.053 41.9212 117.489C41.7348 117.925 41.6446 118.397 41.6566 118.871C41.7206 120.783 42.6726 123.671 47.6086 124.255C55.1686 125.135 56.6726 126.607 58.1846 129.647C58.9286 131.143 55.5926 138.231 52.0006 145.063C49.8604 149.131 48.6589 153.627 48.4845 158.22C48.3101 162.814 49.1671 167.388 50.9926 171.607Z" fill="white"/>
<path d="M218.248 0H182.472C180.857 0 179.258 0.318048 177.766 0.93598C176.274 1.55391 174.919 2.45963 173.777 3.60142C172.635 4.74321 171.73 6.09871 171.112 7.59053C170.494 9.08235 170.176 10.6813 170.176 12.296V47.064C170.176 48.6787 170.494 50.2777 171.112 51.7695C171.73 53.2613 172.635 54.6168 173.777 55.7586C174.919 56.9004 176.274 57.8061 177.766 58.424C179.258 59.042 180.857 59.36 182.472 59.36H184.936L185.16 68.488L193.208 59.36H218.248C219.863 59.36 221.461 59.042 222.953 58.424C224.445 57.8061 225.801 56.9004 226.942 55.7586C228.084 54.6168 228.99 53.2613 229.608 51.7695C230.226 50.2777 230.544 48.6787 230.544 47.064V12.296C230.544 9.0349 229.248 5.90736 226.942 3.60142C224.636 1.29547 221.509 0 218.248 0Z" fill="#0196DA"/>
<path opacity="0.7" d="M213.408 46.3439H187.312L189.249 22.9119L188.28 18.2559H212.441L211.473 22.9119L213.408 46.3439Z" fill="white"/>
<path d="M207.522 19.7988C207.314 14.9988 204.185 11.2148 200.361 11.2148C196.537 11.2148 193.401 15.0228 193.201 19.7988C193.122 19.8517 193.057 19.9229 193.011 20.0065C192.965 20.09 192.94 20.1835 192.938 20.2788C192.938 20.4401 193.002 20.5947 193.116 20.7088C193.23 20.8228 193.384 20.8868 193.546 20.8868C193.707 20.8868 193.861 20.8228 193.975 20.7088C194.089 20.5947 194.153 20.4401 194.153 20.2788C194.151 20.1903 194.129 20.1034 194.089 20.0245C194.049 19.9456 193.992 19.8767 193.922 19.8228C194.114 15.4308 196.921 11.9348 200.361 11.9348C203.801 11.9348 206.609 15.4308 206.761 19.8228C206.694 19.8785 206.639 19.948 206.6 20.0267C206.562 20.1053 206.54 20.1913 206.538 20.2788C206.538 20.4401 206.602 20.5947 206.716 20.7088C206.83 20.8228 206.984 20.8868 207.146 20.8868C207.307 20.8868 207.461 20.8228 207.575 20.7088C207.689 20.5947 207.753 20.4401 207.753 20.2788C207.755 20.1863 207.735 20.0946 207.695 20.0112C207.654 19.9279 207.595 19.8551 207.522 19.7988Z" fill="white"/>
<path d="M181.656 86.6396L178.352 99.3677L184.264 100.072L185.68 88.4557L181.656 86.6396Z" fill="#E4897B"/>
<path d="M136.319 271.647L137.263 272.447L138.519 271.511L140.439 275.575L148.359 282.303C148.359 282.303 150.695 282.111 147.783 277.895C147.64 277.691 147.519 277.471 147.423 277.239C146.215 274.583 146.055 268.967 146.055 268.967L141.711 265.271C141.408 265.36 141.111 265.47 140.823 265.599C139.535 266.151 137.007 267.463 136.319 271.647Z" fill="#0196DA"/>
<path opacity="0.2" d="M136.319 271.647L137.263 272.447L138.519 271.511L140.439 275.575L148.359 282.303C148.359 282.303 150.695 282.111 147.783 277.895C147.64 277.691 147.519 277.471 147.423 277.239C146.215 274.583 146.055 268.967 146.055 268.967L141.711 265.271C141.408 265.36 141.111 265.47 140.823 265.599C139.535 266.151 137.007 267.463 136.319 271.647Z" fill="black"/>
<path d="M140.825 265.6C141.945 265.448 142.169 270.48 143.273 273.064C144.257 275.36 145.857 277.368 147.441 277.232C146.233 274.576 146.569 267.768 146.569 267.768L143.073 264.8C143.073 264.8 141.377 265.36 140.825 265.6Z" fill="#E4897B"/>
<path opacity="0.2" d="M140.825 265.6C141.945 265.448 142.169 270.48 143.273 273.064C144.257 275.36 145.857 277.368 147.441 277.232C146.233 274.576 146.569 267.768 146.569 267.768L143.073 264.8C143.073 264.8 141.377 265.36 140.825 265.6Z" fill="black"/>
<path d="M136.088 283.832H137.328L137.672 282.304L141.776 284.152H152.176C152.176 284.152 153.824 282.488 148.88 281.168C148.636 281.105 148.4 281.013 148.176 280.896C145.536 279.664 141.776 275.48 141.776 275.48H136.072C135.899 275.737 135.741 276.005 135.6 276.28C134.976 277.56 133.904 280.192 136.088 283.832Z" fill="#0196DA"/>
<path d="M135.601 276.304C136.353 275.464 139.785 279.152 142.289 280.408C144.537 281.528 147.049 282.008 148.169 280.88C145.529 279.648 141.377 274.24 141.377 274.24H136.793C136.793 274.24 135.913 275.768 135.601 276.304Z" fill="#E4897B"/>
<path d="M184.417 89.6637L193.049 87.6477L188.761 81.8477C188.761 81.8477 180.841 83.5197 181.657 86.6477L184.417 89.6637Z" fill="#E4897B"/>
<path d="M186.113 90.1677C186.113 90.1677 185.785 119.336 179.305 119.336C175.713 119.336 171.641 117 168.177 114.352C165.27 112.091 162.571 109.574 160.113 106.832V106.736L157.881 93.1917C164.281 93.0317 175.385 107.64 175.385 107.64L180.713 89.1357L186.113 90.1677Z" fill="#0196DA"/>
<path opacity="0.2" d="M168.176 114.352C165.269 112.091 162.57 109.574 160.112 106.832V106.736L162.192 102.088C165.669 105.27 167.807 109.653 168.176 114.352Z" fill="black"/>
<path d="M131.689 60.8636C131.689 60.8636 133.713 57.3596 139.513 56.7676C145.313 56.1756 153.001 59.2636 154.177 68.1196C155.353 76.9756 157.865 81.8316 157.865 81.8316C157.865 81.8316 139.185 86.7116 133.937 84.9516C128.689 83.1916 120.569 63.3836 131.689 60.8636Z" fill="#263238"/>
<path d="M170.424 215.975C167.808 221.191 165.176 226.807 162.648 232.415C159.328 239.823 156.208 247.239 153.552 253.879C151.656 258.615 149.184 264.591 147.888 268.207C145.081 267.984 142.421 266.862 140.304 265.007C141.28 258.503 143.88 241.607 148.792 226.743C151.368 218.919 154.592 211.199 158.56 204.919C140.008 157.087 143.6 138.823 143.6 138.823L163.28 137.311C163.28 137.311 166.824 155.263 169.8 173.663C171.352 183.311 172.744 193.087 173.384 200.487V200.559C173.838 205.872 172.814 211.207 170.424 215.975Z" fill="#263238"/>
<path opacity="0.2" d="M153.36 190.663C150.608 182.519 148.56 175.464 147.12 169.392C148.224 164.592 149.888 160.432 152.24 157.896C152.24 157.896 156.16 171.088 153.36 190.663Z" fill="black"/>
<path opacity="0.2" d="M153.552 253.879C151.656 258.615 149.184 264.591 147.888 268.207C145.081 267.985 142.421 266.863 140.304 265.007C141.28 258.503 143.88 241.607 148.792 226.743C150.48 234.687 152.416 244.759 153.552 253.879Z" fill="black"/>
<path d="M155.344 135.375C155.344 135.375 149.608 179.783 146.32 201.151C142.864 223.591 142.424 259.607 143.288 274.279C142.032 275.007 137.448 275.879 134.976 275.119C134.976 275.119 123.272 229.727 131.04 203.367C123.968 151.439 134.24 138.719 134.24 138.719L155.344 135.375Z" fill="#263238"/>
<path opacity="0.7" d="M153.434 107.415C147.665 102.215 141.269 97.7559 134.394 94.143C135.018 94.071 135.666 94.007 136.306 93.951C140.671 93.4894 145.063 93.3423 149.45 93.5109C150.538 93.5749 151.658 93.663 152.754 93.751C155.474 99.991 153.434 107.415 153.434 107.415Z" fill="white"/>
<path d="M134.393 135.376L163.113 133.44C163.113 133.44 163.969 142.056 163.769 141.936C163.569 141.816 133.057 143.008 133.057 143.008L134.393 135.376Z" fill="#263238"/>
<path d="M134.658 135.848L163.05 134.28V136.976L134.394 138.496L134.658 135.848Z" fill="black"/>
<path d="M150.633 138.112C150.428 138.113 150.232 138.035 150.083 137.895C149.934 137.756 149.845 137.564 149.833 137.36L149.705 135.76C149.695 135.653 149.707 135.546 149.739 135.443C149.772 135.341 149.825 135.246 149.895 135.165C149.966 135.083 150.051 135.017 150.148 134.969C150.244 134.922 150.349 134.894 150.457 134.888L153.569 134.64C153.681 134.631 153.793 134.646 153.9 134.683C154.006 134.72 154.103 134.779 154.185 134.856C154.268 134.932 154.335 135.025 154.381 135.128C154.426 135.232 154.449 135.343 154.449 135.456V137.12C154.449 137.333 154.364 137.536 154.214 137.686C154.064 137.836 153.861 137.92 153.649 137.92L150.665 138.08L150.633 138.112ZM153.625 135.208L150.513 135.448C150.477 135.451 150.442 135.462 150.41 135.478C150.378 135.495 150.35 135.517 150.327 135.545C150.304 135.572 150.286 135.604 150.276 135.638C150.265 135.673 150.261 135.709 150.265 135.744L150.385 137.344C150.392 137.415 150.426 137.48 150.479 137.528C150.533 137.575 150.601 137.601 150.673 137.6L153.657 137.44C153.727 137.438 153.794 137.409 153.844 137.358C153.893 137.307 153.921 137.239 153.921 137.168V135.504C153.921 135.467 153.913 135.429 153.898 135.395C153.883 135.36 153.861 135.33 153.833 135.304C153.807 135.274 153.775 135.249 153.739 135.233C153.703 135.216 153.664 135.208 153.625 135.208Z" fill="white"/>
<path d="M134.393 135.375C133.793 128.639 131.385 116.295 127.233 103.327C125.881 99.111 128.169 94.351 128.169 94.351C128.169 94.351 133.825 94.207 134.393 94.143C134.961 94.079 135.665 94.007 136.305 93.951C140.67 93.4894 145.063 93.3423 149.449 93.5109C150.537 93.5749 151.657 93.663 152.753 93.751C153.105 93.751 157.081 93.823 157.425 93.863C157.425 93.863 162.929 100.151 163.265 105.247C163.669 109.169 163.819 113.113 163.713 117.055C163.713 121.679 163.041 134.279 163.041 134.279C162.161 139.151 152.233 134.695 152.233 134.695C137.905 141.791 134.393 135.375 134.393 135.375Z" fill="#0196DA"/>
<path opacity="0.8" d="M134.393 135.375C133.793 128.639 131.385 116.295 127.233 103.327C125.881 99.111 128.169 94.351 128.169 94.351C128.169 94.351 133.825 94.207 134.393 94.143C134.961 94.079 135.665 94.007 136.305 93.951C140.67 93.4894 145.063 93.3423 149.449 93.5109C150.537 93.5749 151.657 93.663 152.753 93.751C153.105 93.751 157.081 93.823 157.425 93.863C157.425 93.863 162.929 100.151 163.265 105.247C163.669 109.169 163.819 113.113 163.713 117.055C163.713 121.679 163.041 134.279 163.041 134.279C162.161 139.151 152.233 134.695 152.233 134.695C137.905 141.791 134.393 135.375 134.393 135.375Z" fill="white"/>
<path opacity="0.2" d="M150.457 106.263C150.457 106.352 150.43 106.439 150.381 106.512C150.332 106.586 150.262 106.643 150.18 106.677C150.098 106.711 150.008 106.72 149.921 106.703C149.834 106.686 149.754 106.643 149.692 106.58C149.629 106.518 149.586 106.438 149.569 106.351C149.552 106.264 149.561 106.174 149.595 106.092C149.629 106.01 149.686 105.94 149.76 105.891C149.833 105.842 149.92 105.815 150.009 105.815C150.127 105.815 150.241 105.863 150.325 105.947C150.409 106.031 150.457 106.145 150.457 106.263Z" fill="black"/>
<path opacity="0.2" d="M152.088 115.727C152.088 115.816 152.062 115.903 152.013 115.976C151.964 116.05 151.894 116.107 151.812 116.141C151.73 116.175 151.64 116.184 151.553 116.167C151.466 116.149 151.386 116.107 151.324 116.044C151.261 115.981 151.218 115.902 151.201 115.815C151.184 115.728 151.193 115.638 151.226 115.556C151.26 115.474 151.318 115.404 151.391 115.355C151.465 115.306 151.552 115.279 151.64 115.279C151.759 115.279 151.873 115.326 151.957 115.411C152.041 115.495 152.088 115.608 152.088 115.727Z" fill="black"/>
<path opacity="0.2" d="M152.089 125.199C152.336 125.199 152.537 124.998 152.537 124.751C152.537 124.503 152.336 124.303 152.089 124.303C151.841 124.303 151.641 124.503 151.641 124.751C151.641 124.998 151.841 125.199 152.089 125.199Z" fill="black"/>
<path opacity="0.2" d="M152.537 133.888C152.784 133.888 152.985 133.688 152.985 133.44C152.985 133.193 152.784 132.992 152.537 132.992C152.289 132.992 152.089 133.193 152.089 133.44C152.089 133.688 152.289 133.888 152.537 133.888Z" fill="black"/>
<path d="M136.712 155.087L126.792 153.295L132.568 131.959C132.568 131.959 131.112 126.663 129.512 120.591C128.712 117.631 127.912 114.495 127.2 111.703C126.411 108.929 125.786 106.11 125.328 103.263C125.144 99.8627 128.176 94.3587 128.176 94.3587L132.584 93.6387C132.584 93.6387 141.864 100.407 142.288 114.215C142.712 128.023 136.712 155.087 136.712 155.087Z" fill="#0196DA"/>
<path d="M154.984 93.1924C154.984 93.1924 157.904 104.064 159.336 112.064C160.768 120.064 164.712 154.128 164.712 154.128L166.864 153.056L163.912 132.728C163.912 132.728 164.992 109.168 164.152 104.328C163.312 99.4884 157.896 93.1924 157.896 93.1924H154.984Z" fill="#0196DA"/>
<path d="M151.152 95.3681C152.536 100.416 149.552 104.888 149.552 104.888C140.696 102.088 137.032 93.9281 137.032 93.9281C139.68 91.0161 138.008 83.3121 136.72 79.1201L140.264 81.7761L145.544 85.7201C145.444 86.8068 145.531 87.9025 145.8 88.9601C146.2 90.6401 146.912 92.2161 147.704 92.5521L151.152 95.3681Z" fill="#E4897B"/>
<path opacity="0.2" d="M145.801 88.9607C143.697 88.4887 140.937 86.3127 140.497 84.1607C140.327 83.3724 140.249 82.567 140.265 81.7607L145.545 85.7047C145.443 86.7967 145.53 87.898 145.801 88.9607Z" fill="black"/>
<path d="M132.824 70.7507C134.336 77.5347 134.832 80.4387 138.848 83.5507C144.88 88.2787 152.84 85.3987 153.376 78.4067C153.856 72.1187 151.296 62.0787 144.176 60.0627C142.66 59.575 141.042 59.5027 139.488 59.8533C137.935 60.2039 136.505 60.9645 135.345 62.056C134.186 63.1474 133.341 64.5297 132.897 66.059C132.454 67.5882 132.428 69.2084 132.824 70.7507Z" fill="#E4897B"/>
<path d="M141.586 71.5921C141.69 72.1681 142.074 72.6001 142.442 72.5601C142.81 72.5201 143.026 72.0241 142.922 71.4481C142.818 70.8721 142.434 70.4401 142.066 70.4801C141.698 70.5201 141.514 71.0161 141.586 71.5921Z" fill="#263238"/>
<path d="M148.713 70.5911C148.817 71.1671 149.201 71.5991 149.569 71.5671C149.937 71.5351 150.153 71.0231 150.057 70.4471C149.961 69.8711 149.569 69.4391 149.201 69.4791C148.833 69.5191 148.649 70.0151 148.713 70.5911Z" fill="#263238"/>
<path d="M149.072 69.5284L150.36 68.9844C150.36 68.9844 149.856 70.1444 149.072 69.5284Z" fill="#263238"/>
<path d="M146.776 72.0645C147.515 73.3264 148.413 74.4879 149.448 75.5205C149.191 75.7606 148.882 75.9393 148.545 76.0432C148.208 76.1471 147.853 76.1735 147.504 76.1205L146.776 72.0645Z" fill="#DE5753"/>
<path d="M139.913 68.1035C139.957 68.1035 140.001 68.0935 140.041 68.0741C140.082 68.0547 140.117 68.0265 140.145 67.9915C140.403 67.6686 140.739 67.4154 141.12 67.2548C141.501 67.0941 141.917 67.0311 142.329 67.0715C142.371 67.0783 142.415 67.0763 142.457 67.0658C142.499 67.0552 142.538 67.0363 142.572 67.0101C142.607 66.9839 142.636 66.9511 142.657 66.9135C142.678 66.8759 142.692 66.8344 142.697 66.7915C142.702 66.6992 142.673 66.6083 142.615 66.536C142.558 66.4637 142.476 66.4151 142.385 66.3995C141.865 66.3425 141.34 66.4166 140.856 66.6151C140.372 66.8135 139.946 67.13 139.617 67.5355C139.563 67.6075 139.539 67.6974 139.549 67.7866C139.56 67.8759 139.604 67.9578 139.673 68.0155C139.741 68.0703 139.825 68.1012 139.913 68.1035Z" fill="#263238"/>
<path d="M151.017 66.4633C151.102 66.4742 151.188 66.4512 151.257 66.3993C151.289 66.368 151.314 66.3306 151.331 66.2894C151.349 66.2482 151.358 66.204 151.358 66.1593C151.358 66.1146 151.349 66.0703 151.331 66.0291C151.314 65.9879 151.289 65.9505 151.257 65.9193C150.922 65.4851 150.492 65.1342 149.999 64.8941C149.506 64.654 148.965 64.5312 148.417 64.5353C148.374 64.5381 148.331 64.5499 148.293 64.5699C148.254 64.59 148.22 64.6178 148.193 64.6517C148.166 64.6856 148.147 64.7247 148.135 64.7667C148.124 64.8086 148.122 64.8524 148.129 64.8953C148.143 64.9857 148.19 65.0677 148.261 65.1254C148.332 65.1831 148.421 65.2123 148.513 65.2073C148.947 65.2148 149.374 65.3201 149.762 65.5154C150.149 65.7107 150.488 65.9909 150.753 66.3353C150.785 66.3747 150.825 66.4067 150.87 66.4288C150.916 66.4509 150.966 66.4627 151.017 66.4633Z" fill="#263238"/>
<path d="M141.913 70.5284L143.193 69.9844C143.193 69.9844 142.689 71.1364 141.913 70.5284Z" fill="#263238"/>
<path d="M136.305 74.6798C136.305 74.6798 139.641 69.8238 137.105 62.6318C137.105 62.6318 144.649 58.9678 150.369 64.5518C150.369 64.5518 145.049 55.2318 133.945 59.6958C122.841 64.1598 131.217 74.8238 132.593 75.6958C133.969 76.5678 136.305 74.6798 136.305 74.6798Z" fill="#263238"/>
<path d="M131.465 76.6164C132.357 77.7969 133.68 78.5763 135.145 78.7844C137.017 79.0084 137.545 77.1124 136.745 75.3684C135.945 73.7684 134.065 71.8004 132.345 72.3844C130.625 72.9684 130.313 75.1284 131.465 76.6164Z" fill="#E4897B"/>
<path d="M147.913 77.7279C147.548 78.601 147.246 79.4993 147.009 80.4159C146.841 80.4159 146.673 80.4159 146.513 80.3679C144.257 80.1439 143.313 79.2879 142.897 78.4159C142.717 77.9863 142.641 77.5205 142.673 77.0559C142.683 76.7837 142.732 76.5144 142.817 76.2559C143.945 77.0959 146.017 77.4719 147.145 77.6239C147.601 77.7119 147.913 77.7279 147.913 77.7279Z" fill="#263238"/>
<path d="M147.113 77.6629L146.825 78.4629C144.705 78.2389 143.241 77.7989 142.641 77.0949C142.65 76.8228 142.699 76.5534 142.785 76.2949C143.913 77.1109 146.009 77.4869 147.113 77.6629Z" fill="white"/>
<path d="M146.497 80.368C144.241 80.144 143.297 79.288 142.881 78.416C143.735 78.5196 144.564 78.7742 145.329 79.168C145.834 79.4361 146.243 79.8558 146.497 80.368Z" fill="#DE5753"/>
<path opacity="0.2" d="M130.784 118.944C130.537 119.621 130.076 120.199 129.472 120.592C128.672 117.632 127.872 114.496 127.16 111.704C128.992 109.488 130.536 107.64 130.536 107.64C130.536 107.64 132.648 114.2 130.784 118.944Z" fill="black"/>
<path d="M128.168 94.3516C124.248 94.8236 112.232 124.672 112.968 129.384C113.704 134.096 139.536 131.96 139.536 131.96V124.76L124.448 121.72L129.672 111.48C130.596 108.505 130.981 105.389 130.808 102.28C130.475 99.4851 129.577 96.7876 128.168 94.3516Z" fill="#0196DA"/>
<path d="M124.337 143.001C124.295 143.012 124.251 143.012 124.209 143.001C124.144 142.965 124.097 142.906 124.076 142.836C124.055 142.766 124.062 142.69 124.097 142.625C124.169 142.481 131.641 128.145 128.809 123.633C128.483 123.158 128.03 122.785 127.503 122.554C126.976 122.324 126.394 122.246 125.825 122.329C115.513 122.689 110.625 137.641 110.577 137.793C110.547 137.853 110.497 137.901 110.435 137.928C110.373 137.954 110.304 137.957 110.24 137.937C110.176 137.917 110.121 137.874 110.086 137.817C110.051 137.759 110.038 137.691 110.049 137.625C110.097 137.465 115.097 122.145 125.801 121.769C126.471 121.686 127.151 121.791 127.765 122.074C128.378 122.357 128.901 122.805 129.273 123.369C132.281 128.169 124.905 142.313 124.585 142.913C124.554 142.947 124.515 142.974 124.472 142.989C124.429 143.004 124.382 143.008 124.337 143.001Z" fill="#0196DA"/>
<g opacity="0.6">
<path d="M124.337 143.001C124.295 143.012 124.251 143.012 124.209 143.001C124.144 142.965 124.097 142.906 124.076 142.836C124.055 142.766 124.062 142.69 124.097 142.625C124.169 142.481 131.641 128.145 128.809 123.633C128.483 123.158 128.03 122.785 127.503 122.554C126.976 122.324 126.394 122.246 125.825 122.329C115.513 122.689 110.625 137.641 110.577 137.793C110.547 137.853 110.497 137.901 110.435 137.928C110.373 137.954 110.304 137.957 110.24 137.937C110.176 137.917 110.121 137.874 110.086 137.817C110.051 137.759 110.038 137.691 110.049 137.625C110.097 137.465 115.097 122.145 125.801 121.769C126.471 121.686 127.151 121.791 127.765 122.074C128.378 122.357 128.901 122.805 129.273 123.369C132.281 128.169 124.905 142.313 124.585 142.913C124.554 142.947 124.515 142.974 124.472 142.989C124.429 143.004 124.382 143.008 124.337 143.001Z" fill="white"/>
</g>
<path d="M106.065 134.424L89.873 168.264L92.3691 178.44L120.769 188.144L134.233 147.48L130.513 143.696L130.161 141.48L106.065 134.424Z" fill="#263238"/>
<path opacity="0.2" d="M106.065 134.424L89.873 168.264L92.3691 178.44L120.769 188.144L134.233 147.48L110.057 141.704L110.289 138.792L106.065 134.424Z" fill="white"/>
<path opacity="0.1" d="M110.057 141.696L110.289 138.792L106.073 134.424L130.153 141.48L130.513 143.696L134.233 147.48L110.057 141.696Z" fill="white"/>
<path opacity="0.2" d="M110.056 141.703L92.3682 178.439L120.768 188.143L134.232 147.479L110.056 141.703Z" fill="white"/>
<path opacity="0.1" d="M110.289 138.792L94.0411 168.864L89.873 168.264L92.3691 178.44L94.497 169.448L110.289 138.792Z" fill="white"/>
<path d="M126.313 121.616C125.631 121.261 124.87 121.082 124.101 121.098C123.333 121.113 122.58 121.322 121.913 121.704C115.913 125.112 113.865 141.816 113.625 143.96C113.501 144.009 113.398 144.1 113.334 144.218C113.271 144.335 113.25 144.471 113.277 144.602C113.304 144.733 113.376 144.85 113.48 144.933C113.585 145.016 113.715 145.06 113.849 145.056C113.999 145.056 114.144 144.996 114.25 144.89C114.357 144.783 114.417 144.639 114.417 144.488C114.415 144.399 114.392 144.311 114.351 144.232C114.309 144.153 114.249 144.084 114.177 144.032C114.401 142.064 116.489 125.424 122.177 122.192C122.766 121.849 123.433 121.662 124.115 121.65C124.797 121.637 125.471 121.799 126.073 122.12C134.521 126.04 128.561 144.584 127.481 147.72C127.37 147.728 127.264 147.768 127.176 147.835C127.088 147.903 127.021 147.994 126.985 148.099C126.948 148.204 126.943 148.317 126.97 148.424C126.997 148.532 127.054 148.629 127.136 148.705C127.218 148.78 127.319 148.829 127.429 148.847C127.538 148.865 127.651 148.851 127.752 148.806C127.853 148.76 127.939 148.687 127.999 148.593C128.059 148.5 128.09 148.391 128.089 148.28C128.087 148.17 128.051 148.064 127.985 147.976C129.113 144.864 135.377 125.816 126.313 121.616Z" fill="#0196DA"/>
<path opacity="0.7" d="M126.313 121.616C125.631 121.261 124.87 121.082 124.101 121.098C123.333 121.113 122.58 121.322 121.913 121.704C115.913 125.112 113.865 141.816 113.625 143.96C113.501 144.009 113.398 144.1 113.334 144.218C113.271 144.335 113.25 144.471 113.277 144.602C113.304 144.733 113.376 144.85 113.48 144.933C113.585 145.016 113.715 145.06 113.849 145.056C113.999 145.056 114.144 144.996 114.25 144.89C114.357 144.783 114.417 144.639 114.417 144.488C114.415 144.399 114.392 144.311 114.351 144.232C114.309 144.153 114.249 144.084 114.177 144.032C114.401 142.064 116.489 125.424 122.177 122.192C122.766 121.849 123.433 121.662 124.115 121.65C124.797 121.637 125.471 121.799 126.073 122.12C134.521 126.04 128.561 144.584 127.481 147.72C127.37 147.728 127.264 147.768 127.176 147.835C127.088 147.903 127.021 147.994 126.985 148.099C126.948 148.204 126.943 148.317 126.97 148.424C126.997 148.532 127.054 148.629 127.136 148.705C127.218 148.78 127.319 148.829 127.429 148.847C127.538 148.865 127.651 148.851 127.752 148.806C127.853 148.76 127.939 148.687 127.999 148.593C128.059 148.5 128.09 148.391 128.089 148.28C128.087 148.17 128.051 148.064 127.985 147.976C129.113 144.864 135.377 125.816 126.313 121.616Z" fill="white"/>
<path d="M132.234 141.976H132.194C132.123 141.966 132.059 141.929 132.015 141.872C131.972 141.815 131.953 141.743 131.962 141.672C131.962 141.52 133.986 126.048 129.722 122.536C129.242 122.166 128.671 121.932 128.07 121.86C127.468 121.789 126.859 121.881 126.306 122.128C116.554 125.448 117.602 140.76 117.61 140.912C117.614 140.948 117.611 140.984 117.601 141.018C117.59 141.052 117.573 141.084 117.55 141.111C117.526 141.138 117.497 141.16 117.465 141.176C117.433 141.191 117.397 141.199 117.362 141.2C117.291 141.205 117.221 141.181 117.167 141.135C117.113 141.088 117.08 141.023 117.074 140.952C117.074 140.792 115.978 125.072 126.13 121.616C126.771 121.34 127.474 121.241 128.167 121.329C128.859 121.418 129.515 121.691 130.066 122.12C134.562 125.816 132.586 141.096 132.466 141.744C132.459 141.803 132.432 141.858 132.39 141.9C132.348 141.943 132.293 141.969 132.234 141.976Z" fill="#263238"/>
<path d="M112.337 139.048L101.729 181.096L107.065 190.112L137.057 191.184L143.073 143.408L138.417 140.856L137.441 138.84L112.337 139.048Z" fill="#0196DA"/>
<path opacity="0.5" d="M112.337 139.047L101.729 181.095L107.065 190.111L137.057 191.183L143.073 143.407L118.265 144.863L117.641 142.007L112.337 139.047Z" fill="white"/>
<path opacity="0.3" d="M118.256 144.864L117.64 142.008L112.336 139.048L137.432 138.832L138.416 140.856L143.072 143.408L118.256 144.864Z" fill="white"/>
<path opacity="0.2" d="M118.264 144.863L107.064 190.111L137.056 191.183L143.072 143.407L118.264 144.863Z" fill="white"/>
<path d="M122.657 146.416C122.594 146.417 122.534 146.396 122.485 146.357C122.437 146.317 122.404 146.262 122.393 146.2C122.249 145.464 118.993 128.184 123.889 123.04C124.427 122.472 125.1 122.048 125.845 121.808C126.59 121.567 127.384 121.518 128.153 121.664C138.681 123.16 137.297 145.176 137.233 146.112C137.231 146.148 137.222 146.182 137.206 146.214C137.19 146.246 137.169 146.274 137.142 146.297C137.115 146.321 137.083 146.338 137.05 146.349C137.016 146.36 136.98 146.364 136.945 146.36C136.909 146.359 136.874 146.351 136.842 146.336C136.809 146.32 136.78 146.299 136.757 146.271C136.734 146.244 136.716 146.213 136.706 146.178C136.695 146.144 136.692 146.108 136.697 146.072C136.697 145.848 138.113 123.624 128.073 122.2C127.39 122.064 126.684 122.104 126.021 122.315C125.358 122.526 124.759 122.902 124.281 123.408C119.569 128.36 122.889 145.92 122.921 146.096C122.933 146.167 122.917 146.24 122.877 146.299C122.837 146.359 122.775 146.401 122.705 146.416H122.657Z" fill="#263238"/>
<path opacity="0.1" d="M117.641 142.007L105.897 180.455L101.729 181.095L107.065 190.111L106.505 180.887L117.641 142.007Z" fill="white"/>
<path d="M123.249 146.264C123.271 146.335 123.279 146.409 123.272 146.483C123.265 146.557 123.244 146.629 123.209 146.695C123.174 146.76 123.126 146.818 123.068 146.865C123.011 146.912 122.944 146.947 122.873 146.968C122.766 147.001 122.651 147.002 122.543 146.97C122.435 146.938 122.339 146.874 122.267 146.787C122.195 146.7 122.151 146.594 122.14 146.482C122.128 146.37 122.151 146.257 122.204 146.158C122.257 146.058 122.338 145.977 122.438 145.924C122.537 145.871 122.65 145.849 122.762 145.86C122.874 145.872 122.98 145.916 123.067 145.988C123.154 146.06 123.217 146.156 123.249 146.264Z" fill="#263238"/>
<path d="M137.448 145.943C137.482 146.051 137.482 146.166 137.45 146.274C137.418 146.382 137.355 146.478 137.268 146.55C137.181 146.622 137.075 146.666 136.963 146.677C136.851 146.688 136.738 146.666 136.638 146.613C136.539 146.56 136.458 146.479 136.405 146.379C136.352 146.28 136.329 146.167 136.341 146.055C136.352 145.943 136.397 145.836 136.468 145.75C136.54 145.663 136.636 145.599 136.744 145.567C136.815 145.545 136.89 145.537 136.964 145.544C137.038 145.551 137.11 145.573 137.175 145.608C137.241 145.643 137.298 145.691 137.345 145.748C137.392 145.806 137.427 145.872 137.448 145.943Z" fill="#263238"/>
<path d="M179.496 103.512C179.432 103.512 179.369 103.489 179.32 103.446C179.271 103.403 179.24 103.344 179.232 103.28C179.232 103.12 176.904 86.9197 186.376 81.9357C186.938 81.5726 187.59 81.3716 188.259 81.3547C188.928 81.3377 189.589 81.5056 190.168 81.8397C194.968 84.8557 194.616 101.04 194.592 101.704C194.59 101.774 194.561 101.842 194.51 101.891C194.459 101.94 194.391 101.968 194.32 101.968C194.284 101.968 194.249 101.96 194.215 101.946C194.182 101.932 194.153 101.911 194.128 101.885C194.103 101.859 194.084 101.828 194.072 101.794C194.059 101.76 194.054 101.724 194.056 101.688C194.056 101.528 194.456 85.1517 189.88 82.3037C189.382 82.0177 188.814 81.8766 188.24 81.8964C187.666 81.9162 187.109 82.0961 186.632 82.4157C177.496 87.2157 179.744 103.04 179.768 103.216C179.774 103.251 179.772 103.287 179.764 103.322C179.755 103.356 179.739 103.389 179.717 103.417C179.696 103.446 179.669 103.47 179.637 103.487C179.606 103.505 179.572 103.516 179.536 103.52L179.496 103.512Z" fill="#263238"/>
<path d="M174.264 102.152L170.304 145.336L176.968 153.416L206.768 149.832L205.304 101.696L200.312 99.8957L199.024 98.0557L174.264 102.152Z" fill="#263238"/>
<path opacity="0.5" d="M174.264 102.151L170.304 145.335L176.968 153.415L206.768 149.831L205.304 101.695L181.016 106.983L179.96 104.255L174.264 102.151Z" fill="white"/>
<path opacity="0.3" d="M181.018 106.984L179.962 104.256L174.266 102.152L199.026 98.0557L200.314 99.8957L205.306 101.696L181.018 106.984Z" fill="white"/>
<path opacity="0.2" d="M181.017 106.983L176.969 153.415L206.769 149.831L205.305 101.695L181.017 106.983Z" fill="white"/>
<path d="M185.56 107.84C185.505 107.841 185.45 107.825 185.404 107.793C185.358 107.762 185.323 107.716 185.304 107.664C185.064 107.016 179.576 91.6638 183.464 84.8718C183.899 84.0801 184.508 83.3977 185.245 82.8765C185.983 82.3553 186.829 82.009 187.72 81.8638C188.56 81.6997 189.426 81.7229 190.255 81.9317C191.085 82.1405 191.858 82.5298 192.52 83.0718C198.768 87.9438 199.888 104.576 199.928 105.28C199.931 105.35 199.907 105.419 199.861 105.472C199.815 105.526 199.75 105.56 199.68 105.568C199.645 105.57 199.609 105.565 199.575 105.553C199.541 105.542 199.51 105.523 199.483 105.5C199.456 105.476 199.435 105.447 199.419 105.415C199.404 105.383 199.394 105.348 199.392 105.312C199.392 105.144 198.248 88.2158 192.192 83.4958C191.585 82.9998 190.876 82.6438 190.116 82.453C189.355 82.2622 188.562 82.2413 187.792 82.3918C186.98 82.5247 186.208 82.8409 185.536 83.3163C184.864 83.7917 184.308 84.414 183.912 85.1358C180.144 91.7118 185.728 107.32 185.784 107.48C185.797 107.513 185.803 107.548 185.802 107.584C185.801 107.619 185.792 107.654 185.777 107.686C185.762 107.718 185.741 107.747 185.715 107.77C185.689 107.794 185.658 107.812 185.624 107.824L185.56 107.84Z" fill="#263238"/>
<path opacity="0.1" d="M179.96 104.256L174.32 144.064L170.304 145.336L176.968 153.416L174.984 144.392L179.96 104.256Z" fill="white"/>
<path d="M186.16 107.591C186.207 107.691 186.224 107.803 186.208 107.912C186.192 108.021 186.144 108.123 186.07 108.205C185.996 108.287 185.899 108.346 185.792 108.373C185.685 108.4 185.572 108.395 185.468 108.359C185.364 108.322 185.273 108.256 185.206 108.168C185.14 108.079 185.101 107.973 185.095 107.863C185.088 107.753 185.115 107.643 185.17 107.548C185.226 107.452 185.309 107.376 185.408 107.327C185.475 107.295 185.547 107.276 185.621 107.271C185.695 107.267 185.769 107.278 185.839 107.302C185.909 107.327 185.974 107.365 186.029 107.415C186.084 107.464 186.128 107.524 186.16 107.591Z" fill="#263238"/>
<path d="M200.144 105.071C200.189 105.171 200.203 105.282 200.185 105.391C200.168 105.499 200.119 105.6 200.045 105.682C199.972 105.763 199.876 105.822 199.769 105.85C199.663 105.878 199.551 105.874 199.447 105.84C199.342 105.805 199.25 105.741 199.181 105.656C199.113 105.57 199.07 105.466 199.059 105.357C199.049 105.247 199.07 105.137 199.12 105.039C199.171 104.942 199.248 104.861 199.344 104.807C199.413 104.767 199.49 104.743 199.569 104.735C199.648 104.727 199.727 104.736 199.803 104.761C199.878 104.786 199.947 104.826 200.006 104.88C200.065 104.933 200.112 104.998 200.144 105.071Z" fill="#263238"/>
<path d="M152.712 120.064L152.88 118.68L153 118.552C153.624 117.752 153.504 116.368 153.336 115.288C153.168 114.208 152.6 112.752 151.576 112.36C151.726 112.069 151.763 111.733 151.68 111.416C151.618 111.206 151.502 111.016 151.344 110.864C152.088 110.064 152.056 108.592 151.8 107.528C151.544 106.464 151.112 105.128 150.2 104.64C150.146 104.613 150.09 104.589 150.032 104.568L149.352 103.368L148.488 103.544L148.424 104.544C146.904 105.016 145.368 106.216 145.76 108.152C145.757 108.179 145.757 108.206 145.76 108.232C146.184 110.112 148.272 111.12 150.176 111.28C150.409 111.333 150.653 111.31 150.872 111.216C150.985 111.309 151.066 111.435 151.104 111.576C151.151 111.8 151.107 112.032 150.984 112.224C150.773 112.257 150.572 112.333 150.392 112.448C148.712 113.328 147.192 115.056 147.512 116.96C147.512 116.96 147.512 117.016 147.512 117.04C147.904 118.976 149.712 119.496 151.36 119.336L151.816 120.248L152.712 120.064ZM150.216 110.72C148.616 110.576 146.672 109.704 146.312 108.096C145.952 106.488 147.32 105.416 148.712 105.016C148.906 104.95 149.111 104.924 149.314 104.94C149.518 104.957 149.716 105.015 149.896 105.112C150.608 105.528 150.976 106.712 151.208 107.648L151.256 107.848C151.408 108.648 151.48 109.912 150.872 110.496C150.608 110.752 150.608 110.752 150.192 110.72H150.216ZM151.496 118.76C150.792 118.856 148.432 118.96 148.072 116.856C147.792 115.256 149.216 113.656 150.68 112.92C151.032 112.744 151.032 112.744 151.376 112.92C152.176 113.224 152.592 114.424 152.752 115.216C152.752 115.28 152.752 115.352 152.752 115.408C152.904 116.392 153.024 117.6 152.52 118.264C152.389 118.414 152.228 118.536 152.048 118.621C151.867 118.706 151.672 118.754 151.472 118.76H151.496Z" fill="#263238"/>
<path d="M151.513 119.041C149.913 119.249 148.113 118.777 147.777 116.905C147.441 115.033 148.953 113.505 150.513 112.689C150.969 112.449 150.985 112.433 151.457 112.617C152.417 112.993 152.897 114.441 153.057 115.329C153.305 117.049 153.329 118.809 151.513 119.041Z" fill="#0196DA"/>
<path d="M148.64 104.752C147.04 105.192 145.608 106.352 146.024 108.16C146.44 109.968 148.424 110.848 150.168 110.992C150.68 111.04 150.704 111.048 151.064 110.696C151.808 109.976 151.696 108.456 151.48 107.584C151.064 105.888 150.4 104.256 148.64 104.752Z" fill="#0196DA"/>
<path d="M151.977 119.399C150.841 114.839 149.425 109.799 149.033 109.367C148.382 109.1 147.707 108.897 147.017 108.759L147.129 108.231C147.884 108.379 148.622 108.607 149.329 108.911C149.929 109.255 151.569 115.551 152.529 119.271L151.977 119.399Z" fill="#263238"/>
<path opacity="0.4" d="M151.513 119.041C149.913 119.249 148.113 118.777 147.777 116.905C147.441 115.033 148.953 113.505 150.513 112.689C150.969 112.449 150.985 112.433 151.457 112.617C152.417 112.993 152.897 114.441 153.057 115.329C153.305 117.049 153.329 118.809 151.513 119.041Z" fill="white"/>
<path opacity="0.4" d="M148.64 104.752C147.04 105.192 145.608 106.352 146.024 108.16C146.44 109.968 148.424 110.848 150.168 110.992C150.68 111.04 150.704 111.048 151.064 110.696C151.808 109.976 151.696 108.456 151.48 107.584C151.064 105.888 150.4 104.256 148.64 104.752Z" fill="white"/>
<path d="M185.513 104.48C185.457 104.479 185.404 104.462 185.358 104.43C185.312 104.399 185.277 104.355 185.257 104.304C184.945 103.568 177.697 86.0555 187.529 81.6155C188.108 81.3382 188.744 81.2009 189.386 81.2148C190.028 81.2287 190.658 81.3934 191.225 81.6955C196.825 84.5275 199.873 99.0395 200.025 99.6555C200.033 99.6907 200.034 99.7272 200.028 99.7629C200.022 99.7986 200.009 99.8326 199.99 99.8632C199.97 99.8937 199.945 99.9201 199.915 99.9408C199.886 99.9614 199.852 99.976 199.817 99.9835C199.745 100 199.669 99.9879 199.606 99.9489C199.543 99.9099 199.498 99.8476 199.481 99.7755C199.481 99.6235 196.329 84.9035 190.993 82.1755C190.502 81.9121 189.957 81.7689 189.4 81.7578C188.844 81.7467 188.293 81.8679 187.793 82.1115C178.457 86.3275 185.737 103.896 185.809 104.072C185.824 104.105 185.833 104.141 185.834 104.178C185.836 104.215 185.829 104.252 185.816 104.287C185.802 104.321 185.782 104.352 185.756 104.379C185.73 104.405 185.699 104.426 185.665 104.44C185.619 104.467 185.566 104.481 185.513 104.48Z" fill="#263238"/>
<g opacity="0.7">
<path d="M185.512 104.48C185.456 104.479 185.403 104.462 185.357 104.43C185.311 104.399 185.276 104.355 185.256 104.304C184.944 103.568 177.696 86.0555 187.528 81.6155C188.107 81.3382 188.743 81.2009 189.385 81.2148C190.027 81.2287 190.657 81.3934 191.224 81.6955C196.824 84.5275 199.872 99.0395 200.024 99.6555C200.032 99.6907 200.033 99.7272 200.027 99.7629C200.021 99.7986 200.008 99.8326 199.989 99.8632C199.969 99.8937 199.944 99.9201 199.914 99.9408C199.885 99.9614 199.851 99.976 199.816 99.9835C199.744 100 199.668 99.9879 199.605 99.9489C199.542 99.9099 199.497 99.8476 199.48 99.7755C199.48 99.6235 196.328 84.9035 190.992 82.1755C190.502 81.9121 189.956 81.7689 189.399 81.7578C188.843 81.7467 188.292 81.8679 187.792 82.1115C178.456 86.3275 185.736 103.896 185.808 104.072C185.823 104.105 185.832 104.141 185.833 104.178C185.835 104.215 185.828 104.252 185.815 104.287C185.801 104.321 185.781 104.352 185.755 104.379C185.729 104.405 185.698 104.426 185.664 104.44C185.618 104.467 185.565 104.481 185.512 104.48Z" fill="white"/>
</g>
<path d="M180.185 104.183L187.809 140.927L195.961 147.511L224.433 138.015L210.505 97.5112L205.249 96.7512L203.625 95.1992L180.185 104.183Z" fill="#0196DA"/>
<path opacity="0.2" d="M180.185 104.184L187.809 140.928L195.961 147.512L224.433 138.016L210.505 97.5117L187.769 107.56L186.185 105.104L180.185 104.184Z" fill="white"/>
<path opacity="0.1" d="M187.761 107.559L186.185 105.103L180.185 104.183L203.617 95.1992L205.249 96.7512L210.497 97.5112L187.761 107.559Z" fill="white"/>
<path opacity="0.2" d="M187.769 107.56L195.961 147.512L224.433 138.016L210.505 97.5117L187.769 107.56Z" fill="white"/>
<path opacity="0.1" d="M186.184 105.104L191.488 138.872L187.808 140.928L195.96 147.512L192.208 139.064L186.184 105.104Z" fill="white"/>
<path d="M206.121 101.856C206.049 101.774 205.959 101.71 205.857 101.672C204.817 98.4718 198.065 79.1358 188.321 81.2878C187.569 81.4164 186.863 81.7323 186.265 82.2063C185.668 82.6803 185.2 83.2971 184.905 83.9998C182.169 90.3998 190.865 105.312 191.985 107.2C191.932 107.297 191.908 107.408 191.917 107.519C191.925 107.63 191.966 107.735 192.033 107.824C192.078 107.884 192.134 107.935 192.199 107.973C192.264 108.012 192.336 108.036 192.411 108.046C192.485 108.056 192.561 108.05 192.634 108.03C192.706 108.01 192.774 107.975 192.833 107.928C192.893 107.883 192.944 107.826 192.982 107.762C193.02 107.697 193.045 107.626 193.056 107.551C193.066 107.477 193.062 107.401 193.043 107.328C193.024 107.256 192.99 107.188 192.945 107.128C192.891 107.057 192.82 107 192.739 106.963C192.659 106.925 192.57 106.908 192.481 106.912C191.457 105.184 182.825 90.3038 185.425 84.2158C185.685 83.5931 186.099 83.0465 186.628 82.6268C187.157 82.2072 187.783 81.9282 188.449 81.8158C197.545 79.8158 204.233 98.5518 205.313 101.816C205.204 101.908 205.135 102.037 205.119 102.178C205.102 102.32 205.14 102.462 205.225 102.576C205.318 102.694 205.453 102.772 205.602 102.792C205.751 102.813 205.903 102.776 206.025 102.688C206.088 102.641 206.14 102.582 206.179 102.514C206.218 102.446 206.243 102.37 206.252 102.292C206.261 102.215 206.254 102.136 206.232 102.061C206.209 101.986 206.171 101.916 206.121 101.856Z" fill="#263238"/>
<path opacity="0.8" d="M206.121 101.856C206.049 101.774 205.959 101.71 205.857 101.672C204.817 98.4718 198.065 79.1358 188.321 81.2878C187.569 81.4164 186.863 81.7323 186.265 82.2063C185.668 82.6803 185.2 83.2971 184.905 83.9998C182.169 90.3998 190.865 105.312 191.985 107.2C191.932 107.297 191.908 107.408 191.917 107.519C191.925 107.63 191.966 107.735 192.033 107.824C192.078 107.884 192.134 107.935 192.199 107.973C192.264 108.012 192.336 108.036 192.411 108.046C192.485 108.056 192.561 108.05 192.634 108.03C192.706 108.01 192.774 107.975 192.833 107.928C192.893 107.883 192.944 107.826 192.982 107.762C193.02 107.697 193.045 107.626 193.056 107.551C193.066 107.477 193.062 107.401 193.043 107.328C193.024 107.256 192.99 107.188 192.945 107.128C192.891 107.057 192.82 107 192.739 106.963C192.659 106.925 192.57 106.908 192.481 106.912C191.457 105.184 182.825 90.3038 185.425 84.2158C185.685 83.5931 186.099 83.0465 186.628 82.6268C187.157 82.2072 187.783 81.9282 188.449 81.8158C197.545 79.8158 204.233 98.5518 205.313 101.816C205.204 101.908 205.135 102.037 205.119 102.178C205.102 102.32 205.14 102.462 205.225 102.576C205.318 102.694 205.453 102.772 205.602 102.792C205.751 102.813 205.903 102.776 206.025 102.688C206.088 102.641 206.14 102.582 206.179 102.514C206.218 102.446 206.243 102.37 206.252 102.292C206.261 102.215 206.254 102.136 206.232 102.061C206.209 101.986 206.171 101.916 206.121 101.856Z" fill="white"/>
<path d="M195.96 80.9913L189.928 79.1113L186.504 84.4953L193.048 87.6473L195.96 80.9913Z" fill="#E4897B"/>
<path d="M145.041 123.895L139.113 125.583L137.881 129.495C138.449 132.695 144.553 131.311 144.553 131.311L145.801 132.111C146.036 132.258 146.303 132.345 146.579 132.365C146.856 132.385 147.133 132.336 147.386 132.224C147.639 132.112 147.861 131.94 148.033 131.722C148.204 131.504 148.32 131.248 148.369 130.975L149.017 127.279C149.064 126.98 149.03 126.674 148.919 126.393C148.808 126.112 148.623 125.865 148.385 125.679L146.521 124.223C146.317 124.057 146.077 123.941 145.82 123.884C145.563 123.827 145.296 123.831 145.041 123.895Z" fill="#E4897B"/>
<path d="M116.152 117.064C114.08 122.736 112.688 127.688 112.952 129.384C113.672 134.104 139.52 131.96 139.52 131.96V124.76L124.432 121.72L116.152 117.064Z" fill="#0196DA"/>
<path d="M111.624 134.697C111.585 134.704 111.544 134.704 111.504 134.697C111.471 134.681 111.442 134.66 111.418 134.633C111.393 134.606 111.375 134.574 111.363 134.54C111.351 134.505 111.346 134.469 111.348 134.433C111.351 134.397 111.36 134.361 111.376 134.329C113.488 129.753 118.184 122.033 125.776 121.761C125.85 121.761 125.921 121.789 125.975 121.839C126.028 121.89 126.06 121.959 126.064 122.033C126.067 122.106 126.04 122.177 125.991 122.23C125.942 122.284 125.873 122.317 125.8 122.321C118.48 122.577 113.92 130.097 111.856 134.561C111.832 134.601 111.798 134.635 111.758 134.658C111.717 134.682 111.671 134.695 111.624 134.697Z" fill="#0196DA"/>
<g opacity="0.6">
<path d="M111.624 134.697C111.585 134.704 111.544 134.704 111.504 134.697C111.471 134.681 111.442 134.66 111.418 134.633C111.393 134.606 111.375 134.574 111.363 134.54C111.351 134.505 111.346 134.469 111.348 134.433C111.351 134.397 111.36 134.361 111.376 134.329C113.488 129.753 118.184 122.033 125.776 121.761C125.85 121.761 125.921 121.789 125.975 121.839C126.028 121.89 126.06 121.959 126.064 122.033C126.067 122.106 126.04 122.177 125.991 122.23C125.942 122.284 125.873 122.317 125.8 122.321C118.48 122.577 113.92 130.097 111.856 134.561C111.832 134.601 111.798 134.635 111.758 134.658C111.717 134.682 111.671 134.695 111.624 134.697Z" fill="white"/>
</g>
<path d="M114.944 137.84H114.888C114.816 137.825 114.752 137.782 114.71 137.721C114.669 137.66 114.652 137.585 114.664 137.512C115.896 131.352 118.192 123.592 122.136 121.592C122.785 121.261 123.503 121.088 124.232 121.088C124.961 121.088 125.679 121.261 126.328 121.592C126.366 121.604 126.401 121.624 126.431 121.65C126.461 121.676 126.485 121.709 126.502 121.745C126.518 121.782 126.527 121.821 126.526 121.861C126.526 121.901 126.517 121.941 126.501 121.977C126.484 122.013 126.46 122.046 126.429 122.072C126.399 122.098 126.364 122.117 126.325 122.129C126.287 122.14 126.247 122.143 126.207 122.137C126.168 122.132 126.13 122.118 126.096 122.096C125.524 121.798 124.889 121.642 124.244 121.642C123.599 121.642 122.964 121.798 122.392 122.096C118.648 123.992 116.416 131.592 115.192 137.624C115.179 137.682 115.148 137.734 115.103 137.772C115.058 137.811 115.003 137.835 114.944 137.84Z" fill="#0196DA"/>
<g opacity="0.7">
<path d="M114.944 137.84H114.888C114.816 137.825 114.752 137.782 114.71 137.721C114.669 137.66 114.652 137.585 114.664 137.512C115.896 131.352 118.192 123.592 122.136 121.592C122.785 121.261 123.503 121.088 124.232 121.088C124.961 121.088 125.679 121.261 126.328 121.592C126.366 121.604 126.401 121.624 126.431 121.65C126.461 121.676 126.485 121.709 126.502 121.745C126.518 121.782 126.527 121.821 126.526 121.861C126.526 121.901 126.517 121.941 126.501 121.977C126.484 122.013 126.46 122.046 126.429 122.072C126.399 122.098 126.364 122.117 126.325 122.129C126.287 122.14 126.247 122.143 126.207 122.137C126.168 122.132 126.13 122.118 126.096 122.096C125.524 121.798 124.889 121.642 124.244 121.642C123.599 121.642 122.964 121.798 122.392 122.096C118.648 123.992 116.416 131.592 115.192 137.624C115.179 137.682 115.148 137.734 115.103 137.772C115.058 137.811 115.003 137.835 114.944 137.84Z" fill="white"/>
</g>
<path d="M117.441 136.64C117.405 136.637 117.37 136.627 117.338 136.611C117.306 136.594 117.278 136.571 117.255 136.544C117.232 136.516 117.214 136.485 117.204 136.45C117.193 136.416 117.189 136.38 117.193 136.344C117.609 131.84 119.321 123.944 126.153 121.616C126.186 121.604 126.222 121.598 126.258 121.6C126.293 121.602 126.328 121.611 126.361 121.626C126.393 121.642 126.421 121.664 126.445 121.691C126.468 121.718 126.486 121.75 126.497 121.784C126.52 121.852 126.515 121.926 126.483 121.991C126.452 122.055 126.396 122.105 126.329 122.128C120.113 124.24 118.225 131.056 117.729 136.4C117.726 136.435 117.716 136.469 117.7 136.5C117.683 136.531 117.661 136.558 117.635 136.58C117.608 136.603 117.577 136.619 117.544 136.63C117.51 136.64 117.475 136.644 117.441 136.64Z" fill="#263238"/>
<path d="M122.657 146.416C122.594 146.417 122.534 146.396 122.485 146.357C122.437 146.317 122.404 146.262 122.393 146.2C122.249 145.464 118.993 128.184 123.889 123.04C124.427 122.472 125.1 122.048 125.845 121.808C126.59 121.567 127.384 121.518 128.153 121.664C128.223 121.676 128.286 121.714 128.329 121.771C128.372 121.827 128.392 121.898 128.385 121.968C128.373 122.04 128.334 122.104 128.276 122.147C128.218 122.191 128.145 122.21 128.073 122.2C127.39 122.064 126.684 122.104 126.021 122.315C125.358 122.526 124.759 122.902 124.281 123.408C119.569 128.36 122.889 145.92 122.921 146.096C122.933 146.167 122.917 146.24 122.877 146.299C122.837 146.359 122.775 146.401 122.705 146.416H122.657Z" fill="#263238"/>
</svg>
