<svg width="360" height="240" viewBox="0 0 360 240" fill="none" xmlns="http://www.w3.org/2000/svg">
<path d="M235.334 90.1439L234.561 88.8671C228.024 78.1007 216.211 71.6111 203.76 72.3983C202.155 72.4975 200.56 72.7173 198.989 73.0559C187.665 75.4799 177.811 84.0431 173.731 95.0063C171.331 101.458 170.654 108.883 166.099 114.005C160.166 120.667 150.096 120.878 141.24 120.6C132.384 120.322 122.309 120.562 116.405 127.248C112.709 131.438 111.533 137.395 111.83 143.006C112.617 157.858 122.971 171.139 136.133 177.744C149.294 184.349 164.793 184.944 179.198 182.03C199.382 177.965 218.558 166.79 230.107 149.534C241.656 132.278 244.565 108.773 235.334 90.1439Z" fill="#EFF1F5"/>
<path d="M326.664 117.655C335.73 113.996 340.113 103.68 336.454 94.6135C332.795 85.5474 322.479 81.1642 313.413 84.8235C304.347 88.4828 299.964 98.7988 303.623 107.865C307.282 116.931 317.598 121.314 326.664 117.655Z" fill="#EFF1F5"/>
<path d="M31.9729 122.458C41.7497 122.458 49.6753 114.532 49.6753 104.755C49.6753 94.9784 41.7497 87.0527 31.9729 87.0527C22.1961 87.0527 14.2705 94.9784 14.2705 104.755C14.2705 114.532 22.1961 122.458 31.9729 122.458Z" fill="#EFF1F5"/>
<path d="M329.947 228.803C329.947 228.87 262.81 228.927 180.005 228.927C97.1999 228.927 30.0527 228.87 30.0527 228.803C30.0527 228.735 97.1759 228.678 180.005 228.678C262.834 228.678 329.947 228.735 329.947 228.803Z" fill="#263238"/>
<path d="M317.87 180.889H311.649V185.65H317.87V180.889Z" fill="#DCDFEA"/>
<path d="M317.871 185.649C317.863 185.529 317.863 185.408 317.871 185.289C317.871 185.029 317.871 184.708 317.842 184.329C317.842 183.465 317.813 182.298 317.789 180.901L317.89 181.002L311.65 181.026L311.775 180.901V183.359C311.775 184.156 311.775 184.914 311.775 185.629L311.66 185.519C313.484 185.519 315.02 185.553 316.119 185.572L317.405 185.605C317.565 185.596 317.725 185.596 317.885 185.605C317.744 185.629 317.601 185.638 317.458 185.634L316.196 185.663C315.106 185.663 313.537 185.711 311.665 185.721H311.521V185.605C311.521 184.89 311.521 184.132 311.521 183.335C311.521 182.932 311.521 182.524 311.521 182.111V180.853L311.645 180.729H317.885H317.991V180.834C317.991 182.274 317.957 183.498 317.938 184.329C317.938 184.713 317.938 185.025 317.909 185.289C317.916 185.41 317.903 185.531 317.871 185.649Z" fill="#263238"/>
<path d="M325.747 169.9H319.526V185.649H325.747V169.9Z" fill="#DCDFEA"/>
<path d="M325.747 185.65C325.741 185.545 325.741 185.439 325.747 185.333C325.747 185.113 325.747 184.815 325.747 184.445C325.747 183.658 325.747 182.525 325.714 181.157C325.714 178.349 325.68 174.437 325.656 169.901L325.776 170.021H319.536C319.786 169.772 319.603 169.954 319.661 169.901V172.181C319.661 172.935 319.661 173.674 319.661 174.404C319.661 175.844 319.661 177.284 319.661 178.599C319.661 181.258 319.661 183.649 319.632 185.641L319.546 185.554L324.077 185.602H325.32H325.647H325.767C325.629 185.611 325.491 185.611 325.354 185.602H324.13L319.546 185.65H319.459V185.564C319.459 183.572 319.459 181.181 319.431 178.522C319.431 177.188 319.431 175.786 319.431 174.327V169.921C319.483 169.863 319.306 170.041 319.555 169.791H325.896V169.921C325.896 174.485 325.853 178.431 325.839 181.258C325.839 182.636 325.839 183.735 325.805 184.517C325.805 184.882 325.805 185.165 325.805 185.381C325.792 185.472 325.773 185.562 325.747 185.65Z" fill="#263238"/>
<path d="M334.398 176.684H328.177V185.65H334.398V176.684Z" fill="#DCDFEA"/>
<path d="M334.403 185.649C334.397 185.588 334.397 185.527 334.403 185.466C334.403 185.332 334.403 185.169 334.403 184.986C334.403 184.506 334.403 183.906 334.369 183.133C334.369 181.53 334.34 179.293 334.316 176.701L334.431 176.812H328.191C328.167 176.812 328.431 176.577 328.316 176.687V179.149C328.316 179.951 328.316 180.733 328.316 181.492C328.316 182.999 328.316 184.396 328.316 185.644L328.215 185.543L332.718 185.596L333.98 185.625C334.273 185.625 334.431 185.625 334.46 185.625C334.32 185.644 334.179 185.652 334.038 185.649L332.799 185.673L328.235 185.725H328.134V185.625C328.134 184.377 328.134 182.98 328.134 181.473C328.134 180.714 328.134 179.932 328.134 179.13C328.134 178.727 328.134 178.319 328.134 177.906V176.668L328.259 176.543H334.499H334.609V176.658C334.609 179.298 334.566 181.545 334.556 183.162C334.556 183.925 334.556 184.54 334.523 184.991C334.489 185.442 334.407 185.658 334.403 185.649Z" fill="#263238"/>
<path d="M342.663 165.33H336.442V185.648H342.663V165.33Z" fill="#DCDFEA"/>
<path d="M342.663 185.65C342.659 185.615 342.659 185.58 342.663 185.545C342.663 185.463 342.663 185.362 342.663 185.242C342.663 184.964 342.663 184.575 342.663 184.09C342.663 183.073 342.639 181.628 342.624 179.828C342.624 176.199 342.591 171.14 342.572 165.332L342.692 165.457H336.452C336.701 165.207 336.519 165.394 336.576 165.337V168.365C336.576 169.359 336.576 170.338 336.576 171.298C336.576 173.218 336.576 175.047 336.576 176.78C336.576 180.226 336.576 183.255 336.543 185.65L336.466 185.573L341.021 185.617H342.25H342.572H342.687C342.687 185.617 342.658 185.617 342.586 185.617H342.279H341.069L336.466 185.66H336.384V185.578C336.384 183.178 336.384 180.154 336.351 176.708C336.351 174.975 336.351 173.141 336.351 171.226V165.337C336.408 165.279 336.226 165.457 336.476 165.207H342.816V165.327C342.816 171.169 342.778 176.257 342.764 179.905C342.764 181.695 342.735 183.13 342.73 184.138C342.73 184.618 342.73 184.993 342.73 185.266C342.73 185.381 342.73 185.477 342.73 185.554C342.73 185.631 342.668 185.655 342.663 185.65Z" fill="#263238"/>
<path d="M333.399 166.953L332.741 166.588L337.733 159.475L338.396 159.839L333.399 166.953Z" fill="#263238"/>
<path d="M325.616 162.908L325.029 163.469L328.834 167.448L329.421 166.887L325.616 162.908Z" fill="#263238"/>
<path d="M321.111 163.044L315.504 170.268L316.145 170.765L321.752 163.542L321.111 163.044Z" fill="#263238"/>
<path d="M334.345 167.831C334.345 168.436 334.165 169.027 333.829 169.53C333.493 170.033 333.016 170.424 332.457 170.656C331.898 170.887 331.284 170.948 330.691 170.83C330.097 170.712 329.553 170.421 329.125 169.993C328.697 169.565 328.406 169.021 328.288 168.428C328.17 167.834 328.231 167.22 328.462 166.661C328.694 166.102 329.086 165.625 329.588 165.289C330.091 164.953 330.682 164.773 331.287 164.773C331.689 164.773 332.086 164.853 332.457 165.006C332.828 165.16 333.165 165.385 333.449 165.669C333.733 165.953 333.958 166.29 334.112 166.661C334.266 167.032 334.345 167.43 334.345 167.831Z" fill="#DCDFEA"/>
<path d="M334.345 167.831C334.345 167.831 334.345 167.558 334.206 167.097C334.022 166.446 333.629 165.874 333.087 165.47C332.69 165.177 332.227 164.987 331.739 164.916C331.25 164.846 330.752 164.898 330.289 165.066C329.861 165.223 329.475 165.477 329.163 165.809C328.85 166.14 328.618 166.539 328.486 166.975C328.354 167.411 328.325 167.872 328.401 168.321C328.477 168.771 328.657 169.196 328.926 169.564C329.266 170.037 329.741 170.396 330.289 170.596C330.752 170.765 331.25 170.816 331.739 170.746C332.227 170.676 332.69 170.486 333.087 170.193C333.63 169.789 334.023 169.217 334.206 168.566C334.33 168.086 334.321 167.831 334.345 167.831C334.369 167.831 334.345 167.898 334.345 168.028C334.347 168.217 334.326 168.406 334.282 168.59C334.129 169.281 333.738 169.898 333.178 170.332C332.711 170.694 332.151 170.918 331.562 170.978C330.973 171.038 330.38 170.932 329.849 170.671C329.318 170.411 328.87 170.007 328.557 169.505C328.244 169.003 328.078 168.423 328.078 167.831C328.078 167.24 328.244 166.66 328.557 166.158C328.87 165.656 329.318 165.251 329.849 164.991C330.38 164.731 330.973 164.624 331.562 164.684C332.151 164.744 332.711 164.968 333.178 165.33C333.738 165.765 334.129 166.381 334.282 167.073C334.326 167.257 334.347 167.445 334.345 167.634C334.359 167.764 334.354 167.831 334.345 167.831Z" fill="#263238"/>
<path d="M326.463 161.534C326.463 162.139 326.284 162.73 325.948 163.233C325.612 163.736 325.134 164.128 324.575 164.359C324.017 164.59 323.402 164.651 322.809 164.533C322.216 164.415 321.671 164.124 321.243 163.696C320.816 163.269 320.524 162.724 320.406 162.131C320.288 161.538 320.349 160.923 320.58 160.364C320.812 159.805 321.204 159.328 321.707 158.992C322.209 158.656 322.801 158.477 323.405 158.477C324.216 158.477 324.994 158.799 325.567 159.372C326.141 159.946 326.463 160.723 326.463 161.534Z" fill="#DCDFEA"/>
<path d="M326.463 161.535C326.434 161.535 326.463 161.266 326.319 160.8C326.135 160.151 325.742 159.581 325.2 159.178C324.805 158.883 324.341 158.691 323.853 158.621C323.364 158.55 322.865 158.603 322.402 158.775C321.856 158.972 321.383 159.33 321.044 159.802C320.673 160.304 320.473 160.911 320.473 161.535C320.473 162.159 320.672 162.767 321.039 163.272C321.381 163.742 321.856 164.1 322.402 164.299C322.865 164.47 323.364 164.522 323.852 164.451C324.341 164.381 324.804 164.19 325.2 163.896C325.743 163.493 326.136 162.92 326.319 162.269C326.444 161.789 326.434 161.535 326.463 161.535C326.472 161.6 326.472 161.666 326.463 161.731C326.465 161.921 326.444 162.109 326.4 162.293C326.245 162.985 325.853 163.601 325.292 164.035C324.876 164.362 324.385 164.577 323.863 164.661C323.342 164.745 322.808 164.695 322.311 164.515C321.718 164.305 321.201 163.922 320.828 163.416C320.426 162.872 320.209 162.214 320.209 161.537C320.209 160.861 320.426 160.202 320.828 159.658C321.077 159.32 321.391 159.035 321.752 158.821C322.113 158.606 322.513 158.465 322.928 158.407C323.344 158.349 323.767 158.375 324.173 158.482C324.579 158.59 324.959 158.777 325.292 159.034C325.856 159.475 326.249 160.1 326.4 160.8C326.444 160.984 326.465 161.173 326.463 161.362C326.47 161.419 326.47 161.477 326.463 161.535Z" fill="#263238"/>
<path d="M314.761 175.262C316.449 175.262 317.818 173.893 317.818 172.204C317.818 170.515 316.449 169.146 314.761 169.146C313.072 169.146 311.703 170.515 311.703 172.204C311.703 173.893 313.072 175.262 314.761 175.262Z" fill="#DCDFEA"/>
<path d="M317.818 172.205C317.818 172.205 317.818 171.932 317.679 171.471C317.496 170.82 317.103 170.247 316.56 169.844C316.164 169.55 315.7 169.359 315.212 169.289C314.723 169.218 314.225 169.27 313.762 169.44C313.215 169.64 312.741 169.997 312.399 170.468C312.031 170.971 311.833 171.579 311.833 172.203C311.833 172.827 312.031 173.434 312.399 173.938C312.739 174.41 313.214 174.768 313.762 174.965C314.225 175.137 314.724 175.19 315.212 175.119C315.701 175.049 316.164 174.857 316.56 174.562C317.101 174.159 317.494 173.589 317.679 172.94C317.803 172.46 317.794 172.2 317.818 172.205C317.842 172.21 317.818 172.272 317.818 172.402C317.82 172.591 317.799 172.78 317.755 172.964C317.601 173.655 317.21 174.271 316.651 174.706C316.234 175.031 315.742 175.245 315.22 175.329C314.698 175.413 314.164 175.364 313.666 175.186C313.072 174.979 312.557 174.595 312.187 174.087C311.729 173.475 311.508 172.718 311.566 171.956C311.624 171.194 311.956 170.478 312.502 169.943C313.048 169.408 313.77 169.089 314.533 169.046C315.296 169.003 316.049 169.239 316.651 169.709C317.211 170.144 317.602 170.76 317.755 171.452C317.799 171.636 317.82 171.824 317.818 172.013C317.832 172.138 317.827 172.205 317.818 172.205Z" fill="#263238"/>
<path d="M339.899 160.842C339.285 160.843 338.685 160.662 338.175 160.322C337.664 159.982 337.266 159.498 337.03 158.931C336.795 158.365 336.733 157.741 336.852 157.139C336.971 156.538 337.266 155.985 337.699 155.551C338.133 155.116 338.685 154.821 339.287 154.701C339.889 154.581 340.512 154.642 341.079 154.876C341.646 155.111 342.131 155.508 342.472 156.018C342.813 156.528 342.995 157.128 342.995 157.741C342.993 158.563 342.667 159.35 342.087 159.931C341.506 160.512 340.72 160.84 339.899 160.842Z" fill="#DCDFEA"/>
<path d="M339.898 160.843C339.898 160.814 340.172 160.843 340.642 160.694C341.302 160.51 341.881 160.112 342.289 159.562C342.525 159.244 342.697 158.883 342.793 158.499C342.89 158.115 342.909 157.716 342.85 157.325C342.791 156.933 342.655 156.557 342.45 156.219C342.245 155.88 341.975 155.586 341.655 155.352C341.282 155.08 340.851 154.898 340.396 154.821C339.941 154.743 339.474 154.773 339.032 154.906C338.59 155.04 338.185 155.274 337.849 155.59C337.513 155.907 337.255 156.297 337.095 156.73C336.923 157.199 336.87 157.704 336.942 158.198C337.014 158.693 337.209 159.161 337.508 159.562C337.914 160.114 338.494 160.513 339.154 160.694C339.634 160.824 339.898 160.814 339.898 160.843C339.831 160.849 339.764 160.849 339.697 160.843C339.506 160.843 339.316 160.821 339.13 160.776C338.43 160.619 337.805 160.224 337.364 159.658C337.103 159.322 336.912 158.937 336.802 158.526C336.692 158.115 336.666 157.686 336.725 157.264C336.783 156.843 336.926 156.437 337.143 156.072C337.361 155.706 337.65 155.388 337.993 155.136C338.543 154.728 339.211 154.508 339.896 154.508C340.581 154.508 341.248 154.728 341.799 155.136C342.142 155.388 342.431 155.706 342.648 156.072C342.866 156.437 343.008 156.843 343.067 157.264C343.126 157.686 343.099 158.115 342.99 158.526C342.88 158.937 342.689 159.322 342.428 159.658C341.987 160.224 341.362 160.619 340.662 160.776C340.476 160.821 340.286 160.843 340.095 160.843C340.03 160.849 339.964 160.849 339.898 160.843Z" fill="#263238"/>
<path d="M304.037 60.6627C304.428 60.5255 304.749 60.2387 304.929 59.8653C305.109 59.4918 305.134 59.0621 304.997 58.6707C304.928 58.4701 304.818 58.286 304.674 58.1299C304.531 57.9738 304.356 57.849 304.162 57.7635C303.533 57.4946 302.597 56.9475 302.276 56.0355C301.796 54.6243 302.568 53.2371 304.196 52.6755C305.823 52.1139 307.277 52.7091 307.772 54.1155C308.088 55.0275 307.695 56.0355 307.373 56.6403C307.274 56.8287 307.215 57.0356 307.2 57.248C307.186 57.4603 307.215 57.6735 307.287 57.8739C307.354 58.0678 307.458 58.2466 307.594 58.3999C307.731 58.5533 307.896 58.6782 308.081 58.7674C308.265 58.8566 308.466 58.9085 308.671 58.9199C308.876 58.9313 309.081 58.902 309.274 58.8339L317.876 54.8643H317.919L317.727 54.4419L315.471 45.2403C315.365 44.9503 315.176 44.6982 314.927 44.5158C314.678 44.3334 314.381 44.2289 314.073 44.2155C313.764 44.2021 313.459 44.2805 313.195 44.4407C312.931 44.6009 312.721 44.8357 312.591 45.1155C312.322 45.7443 311.78 46.6803 310.868 47.0019C309.452 47.4819 308.064 46.7091 307.508 45.0819C306.951 43.4547 307.536 42.0003 308.948 41.5059C309.86 41.1891 310.868 41.5827 311.472 41.9043C311.661 42.0034 311.868 42.0622 312.08 42.0771C312.293 42.092 312.506 42.0625 312.706 41.9907C312.9 41.9233 313.078 41.8184 313.231 41.682C313.384 41.5457 313.509 41.3805 313.598 41.196C313.687 41.0114 313.739 40.8111 313.751 40.6065C313.762 40.4019 313.734 40.197 313.666 40.0035L309.941 31.9395L309.893 31.9683L300.692 34.2195C300.498 34.2868 300.32 34.3917 300.167 34.5281C300.014 34.6644 299.889 34.8296 299.8 35.0141C299.711 35.1987 299.659 35.399 299.647 35.6036C299.635 35.8082 299.664 36.0131 299.732 36.2067C299.8 36.4082 299.91 36.5934 300.053 36.7504C300.197 36.9074 300.372 37.0328 300.567 37.1187C301.196 37.3875 302.132 37.9299 302.453 38.8467C302.933 40.2579 302.16 41.6451 300.557 42.2067C298.954 42.7683 297.476 42.1731 296.981 40.7667C296.66 39.8547 297.058 38.8467 297.38 38.2419C297.479 38.0534 297.538 37.8465 297.552 37.6341C297.567 37.4218 297.538 37.2086 297.466 37.0083C297.329 36.6181 297.043 36.2982 296.67 36.1183C296.298 35.9384 295.87 35.9132 295.479 36.0483L286.839 40.0323H286.781L288.884 48.6339C289.021 49.0251 289.308 49.346 289.681 49.526C290.055 49.706 290.484 49.7304 290.876 49.5939C291.077 49.5243 291.261 49.4138 291.417 49.2692C291.574 49.1246 291.698 48.9491 291.783 48.7539C292.056 48.1299 292.599 47.1939 293.511 46.8723C294.927 46.3923 296.309 47.1651 296.871 48.7923C297.432 50.4195 296.837 51.8739 295.431 52.3683C294.519 52.6851 293.511 52.2915 292.911 51.9699C292.722 51.8708 292.515 51.8119 292.303 51.797C292.091 51.7822 291.878 51.8116 291.677 51.8834C291.484 51.9508 291.305 52.0557 291.152 52.1921C290.999 52.3284 290.875 52.4936 290.785 52.6781C290.696 52.8627 290.644 53.063 290.633 53.2676C290.621 53.4722 290.65 53.6771 290.717 53.8707L294.687 62.4722L294.802 62.9522H294.845L304.037 60.6627Z" fill="#DCDFEA"/>
<path d="M304.037 60.663L303.437 60.8262L301.666 61.2726L294.85 62.9718H294.806L294.744 63.0006V62.9286C294.71 62.7894 294.667 62.6214 294.629 62.4486C293.515 60.0486 292.166 57.1686 290.635 53.8566C290.535 53.5664 290.517 53.2539 290.584 52.9542C290.651 52.6545 290.801 52.3794 291.016 52.16C291.231 51.9406 291.502 51.7855 291.801 51.7121C292.099 51.6387 292.412 51.65 292.704 51.7446C292.91 51.8166 293.078 51.927 293.261 52.0038C293.443 52.0862 293.631 52.1568 293.822 52.215C294.207 52.3363 294.612 52.3755 295.013 52.3302C295.417 52.2674 295.799 52.1021 296.122 51.8502C296.444 51.5752 296.691 51.2222 296.839 50.8249C296.987 50.4275 297.031 49.9989 296.966 49.5798C296.874 48.6896 296.436 47.8712 295.747 47.2998C295.392 47.0197 294.96 46.8525 294.509 46.8198C294.052 46.7915 293.597 46.8965 293.198 47.1222C292.803 47.373 292.474 47.7155 292.238 48.1206C292.109 48.3241 291.997 48.5376 291.902 48.759C291.796 49.0045 291.631 49.2203 291.422 49.3878C291.215 49.5603 290.969 49.6801 290.706 49.737C290.442 49.7939 290.169 49.7862 289.909 49.7145C289.649 49.6428 289.411 49.5093 289.214 49.3253C289.017 49.1414 288.867 48.9125 288.778 48.6582C288.11 45.9318 287.4 43.0422 286.666 40.0566L286.642 39.9462L286.752 39.9174H286.81L295.406 35.943C295.621 35.8672 295.849 35.8362 296.076 35.8519C296.303 35.8676 296.524 35.9296 296.726 36.0342C296.932 36.1376 297.113 36.2821 297.26 36.4588C297.407 36.6354 297.516 36.8404 297.581 37.061C297.645 37.2816 297.664 37.5131 297.635 37.7411C297.606 37.9691 297.53 38.1887 297.413 38.3862C297.219 38.7594 297.08 39.1587 297 39.5718C296.92 39.981 296.953 40.4044 297.096 40.7962C297.239 41.1879 297.486 41.5331 297.811 41.7942C298.153 42.0423 298.548 42.2068 298.965 42.2743C299.382 42.3419 299.809 42.3106 300.211 42.183C300.633 42.0851 301.029 41.8989 301.373 41.6366C301.717 41.3743 302.002 41.0419 302.208 40.6614C302.39 40.2738 302.458 39.8425 302.405 39.4176C302.351 38.9927 302.178 38.5917 301.906 38.2614C301.613 37.9245 301.26 37.646 300.864 37.4406C300.672 37.3254 300.461 37.263 300.24 37.1238C300.031 36.9874 299.855 36.8052 299.726 36.591C299.596 36.3766 299.516 36.1359 299.491 35.8865C299.465 35.637 299.496 35.385 299.58 35.1488C299.664 34.9126 299.799 34.6981 299.977 34.5208C300.154 34.3435 300.369 34.2079 300.605 34.1238L309.806 31.8678L309.859 31.8438L309.97 31.791L310.022 31.9062C311.286 34.6454 312.526 37.3318 313.742 39.9654C313.826 40.207 313.853 40.4643 313.822 40.718C313.791 40.9716 313.703 41.2149 313.565 41.4295C313.426 41.6441 313.24 41.8243 313.021 41.9565C312.803 42.0887 312.557 42.1695 312.302 42.1926C312.05 42.2193 311.795 42.1847 311.558 42.0918C311.314 41.991 311.141 41.8806 310.925 41.7942C310.513 41.6134 310.069 41.5171 309.619 41.511C309.183 41.5195 308.758 41.6534 308.395 41.8968C308.032 42.1402 307.748 42.4829 307.574 42.8838C307.423 43.291 307.357 43.7252 307.382 44.1589C307.407 44.5927 307.521 45.0166 307.718 45.4038C307.9 45.7923 308.156 46.1413 308.472 46.431C308.786 46.7097 309.17 46.8969 309.583 46.9722C309.996 47.0476 310.422 47.0081 310.814 46.8582C311.191 46.702 311.521 46.4526 311.774 46.1334C312.037 45.8112 312.253 45.4542 312.418 45.0726C312.551 44.7642 312.775 44.5031 313.059 44.3234C313.343 44.1437 313.675 44.0538 314.011 44.0651C314.347 44.0765 314.672 44.1888 314.943 44.3873C315.215 44.5858 315.42 44.8614 315.533 45.1782L317.779 54.3846C317.851 54.5334 317.914 54.6726 317.976 54.807L318.024 54.9174L317.909 54.9462H317.866L309.259 58.9014C308.85 59.0432 308.401 59.0179 308.01 58.831C307.619 58.6441 307.318 58.3107 307.171 57.903C307.03 57.5129 307.043 57.0833 307.21 56.703C307.402 56.3797 307.56 56.037 307.68 55.6806C307.788 55.3365 307.829 54.9746 307.8 54.615C307.758 54.2747 307.643 53.9473 307.464 53.655C307.289 53.3736 307.055 53.1327 306.78 52.9482C306.504 52.7636 306.193 52.6397 305.866 52.5846C305.249 52.4886 304.618 52.565 304.042 52.8054C303.502 53.0099 303.029 53.3586 302.674 53.8134C302.374 54.2176 302.213 54.7073 302.213 55.2102C302.213 55.7132 302.374 56.2028 302.674 56.607C302.938 56.9423 303.264 57.2241 303.634 57.4374C303.978 57.5987 304.309 57.7882 304.622 58.0038C304.847 58.2082 305.009 58.4729 305.088 58.7664C305.167 59.0599 305.161 59.37 305.069 59.6598C304.958 60.0137 304.725 60.3166 304.411 60.5142C304.307 60.5839 304.192 60.6358 304.07 60.6678C304.182 60.6157 304.291 60.5581 304.397 60.495C304.698 60.2927 304.92 59.9926 305.026 59.6454C305.108 59.3654 305.11 59.0678 305.031 58.7867C304.952 58.5056 304.796 58.2525 304.579 58.0566C304.266 57.8468 303.935 57.6637 303.59 57.5094C303.21 57.2916 302.873 57.0052 302.597 56.6646C302.284 56.2423 302.116 55.7308 302.116 55.2054C302.116 54.68 302.284 54.1685 302.597 53.7462C302.961 53.2718 303.449 52.9079 304.008 52.695C304.612 52.4336 305.278 52.3503 305.928 52.455C306.274 52.512 306.603 52.6416 306.895 52.8352C307.188 53.0287 307.435 53.282 307.622 53.5782C307.82 53.8899 307.943 54.2431 307.982 54.6102C308.014 54.9885 307.975 55.3693 307.867 55.7334C307.757 56.0998 307.609 56.4537 307.426 56.7894C307.281 57.135 307.272 57.5226 307.402 57.8742C307.534 58.24 307.805 58.5389 308.157 58.7061C308.508 58.8732 308.911 58.8951 309.278 58.767L317.875 54.7878H317.918L317.856 54.927C317.794 54.7878 317.726 54.6534 317.659 54.4998C316.946 51.6198 316.19 48.5526 315.394 45.2982C315.33 45.1169 315.232 44.95 315.103 44.8074C314.975 44.6648 314.819 44.5493 314.645 44.4678C314.469 44.3854 314.278 44.3387 314.083 44.3305C313.889 44.3223 313.695 44.3526 313.512 44.4198C313.328 44.4884 313.159 44.5941 313.017 44.7303C312.875 44.8665 312.763 45.0304 312.686 45.2118C312.517 45.6132 312.29 45.9882 312.014 46.3254C311.731 46.6794 311.36 46.9539 310.939 47.1222C310.509 47.2787 310.046 47.3217 309.595 47.247C309.141 47.1612 308.719 46.9557 308.371 46.6518C308.026 46.3448 307.75 45.9686 307.56 45.5478C307.347 45.1323 307.223 44.677 307.196 44.2109C307.168 43.7448 307.238 43.2781 307.402 42.8406C307.582 42.3988 307.885 42.0175 308.274 41.7412C308.663 41.465 309.123 41.3052 309.6 41.2806C310.081 41.2888 310.556 41.3916 310.997 41.583C311.213 41.6694 311.438 41.8038 311.626 41.8806C311.827 41.9576 312.045 41.9856 312.259 41.9622C312.479 41.9435 312.691 41.8746 312.88 41.7608C313.069 41.647 313.229 41.4913 313.349 41.3058C313.468 41.1203 313.543 40.9099 313.568 40.6908C313.593 40.4717 313.567 40.2498 313.493 40.0422L309.768 31.9782L309.931 32.0406L309.878 32.0646L300.677 34.3158C300.467 34.3868 300.277 34.505 300.121 34.6612C299.965 34.8175 299.846 35.0077 299.775 35.217C299.704 35.4263 299.683 35.6492 299.711 35.8683C299.74 36.0874 299.819 36.2969 299.942 36.4806C300.05 36.6718 300.199 36.8359 300.379 36.9606C300.547 37.071 300.782 37.143 300.984 37.263C301.407 37.4779 301.784 37.7711 302.098 38.127C302.407 38.4959 302.603 38.9462 302.663 39.4239C302.722 39.9015 302.643 40.3862 302.434 40.8198C302.212 41.2315 301.906 41.5916 301.536 41.8763C301.165 42.1609 300.738 42.3636 300.283 42.471C299.841 42.6109 299.371 42.6442 298.913 42.5683C298.455 42.4924 298.022 42.3094 297.648 42.0342C297.289 41.7453 297.015 41.3636 296.857 40.9305C296.699 40.4973 296.662 40.0292 296.75 39.5766C296.833 39.1398 296.981 38.7176 297.187 38.3238C297.342 38.07 297.414 37.7746 297.394 37.4781C297.374 37.1815 297.263 36.8984 297.076 36.6676C296.889 36.4368 296.635 36.2695 296.349 36.1888C296.063 36.108 295.759 36.1177 295.478 36.2166L286.877 40.1814H286.819L286.906 40.0422C287.635 43.0278 288.346 45.9174 289.003 48.6438C289.08 48.8672 289.212 49.0681 289.385 49.2288C289.558 49.3895 289.768 49.5051 289.997 49.5654C290.336 49.6603 290.698 49.6277 291.014 49.4739C291.331 49.32 291.58 49.0554 291.715 48.7302C291.815 48.5007 291.932 48.2792 292.066 48.0678C292.321 47.6348 292.677 47.2694 293.102 47.0022C293.539 46.7532 294.041 46.6396 294.542 46.6758C295.031 46.7136 295.499 46.8938 295.886 47.1942C296.613 47.7951 297.077 48.6564 297.178 49.5942C297.245 50.0455 297.196 50.5067 297.035 50.9336C296.873 51.3605 296.605 51.7389 296.256 52.0326C295.91 52.3105 295.495 52.4911 295.056 52.5558C294.63 52.6064 294.197 52.5639 293.789 52.431C293.59 52.3725 293.396 52.2987 293.208 52.2102C293.032 52.1179 292.85 52.0346 292.666 51.9606C292.306 51.8378 291.913 51.862 291.571 52.0278C291.243 52.1847 290.984 52.4567 290.843 52.7921C290.703 53.1275 290.69 53.503 290.808 53.847L294.72 62.4342L294.835 62.9142L294.754 62.871H294.797L301.627 61.2294L303.403 60.8118C303.84 60.7014 304.037 60.663 304.037 60.663Z" fill="#263238"/>
<path d="M41.2793 194.145C42.7332 193.469 43.9565 192.38 44.7978 191.015C45.6391 189.65 46.0613 188.068 46.0121 186.465C45.9401 181.934 42.4457 178.305 38.1977 178.382C33.9497 178.459 30.5753 182.169 30.6425 186.72C30.6473 188.334 31.1292 189.91 32.0277 191.251C32.9262 192.592 34.2011 193.637 35.6921 194.256C23.8985 196.272 24.6857 209.136 24.6857 209.136L52.6601 208.713C52.6601 208.713 53.0441 195.686 41.2793 194.145Z" fill="#DCDFEA"/>
<path d="M41.2794 194.146L41.649 194.199C41.9977 194.239 42.3439 194.298 42.6858 194.377C44.0221 194.654 45.3012 195.157 46.4682 195.865C48.3079 196.998 49.802 198.613 50.7882 200.535C52.0744 203.064 52.7485 205.859 52.7562 208.695V208.801H52.6602L24.6906 209.247H24.5658V209.127C24.5307 207.793 24.6434 206.458 24.9018 205.148C25.1527 203.79 25.5736 202.469 26.1546 201.217C27.0218 199.289 28.3789 197.623 30.0906 196.383C30.9287 195.797 31.8344 195.313 32.7882 194.943C33.7213 194.59 34.6856 194.325 35.6682 194.151V194.386C34.1926 193.794 32.9274 192.774 32.0346 191.458C31.1721 190.196 30.6603 188.726 30.5514 187.201C30.4445 185.778 30.696 184.351 31.283 183.05C31.8699 181.75 32.7737 180.617 33.9114 179.756C34.9378 178.998 36.1429 178.518 37.4096 178.363C38.6763 178.208 39.9615 178.384 41.1402 178.873C42.1445 179.306 43.0506 179.938 43.8038 180.731C44.557 181.523 45.1417 182.461 45.5226 183.486C45.8622 184.366 46.0504 185.298 46.0794 186.241C46.114 187.078 46.0267 187.915 45.8202 188.727C45.4999 190.022 44.8708 191.219 43.9866 192.217C43.4355 192.839 42.7871 193.367 42.0666 193.782C41.8848 193.891 41.6956 193.987 41.5002 194.07L41.2938 194.161L41.4762 194.065C41.601 193.993 41.8074 193.897 42.0426 193.743C42.7491 193.317 43.3841 192.783 43.9242 192.159C44.7876 191.163 45.3998 189.975 45.7098 188.694C45.9045 187.893 45.9821 187.069 45.9402 186.246C45.9082 185.319 45.7166 184.405 45.3738 183.543C44.9951 182.541 44.417 181.625 43.6745 180.852C42.932 180.079 42.0405 179.464 41.0538 179.046C39.9051 178.574 38.6538 178.407 37.4216 178.562C36.1895 178.717 35.0183 179.188 34.0218 179.929C32.9169 180.77 32.0408 181.876 31.4739 183.144C30.907 184.412 30.6674 185.802 30.777 187.186C30.8835 188.669 31.3803 190.096 32.217 191.324C33.0821 192.599 34.3092 193.585 35.7402 194.156L36.129 194.31L35.7162 194.391C34.7468 194.563 33.7955 194.825 32.8746 195.174C31.94 195.546 31.0536 196.029 30.2346 196.614C28.5642 197.832 27.2406 199.465 26.3946 201.351C25.8243 202.585 25.4099 203.884 25.161 205.22C24.9048 206.511 24.7937 207.826 24.8298 209.142L24.705 209.026L52.6794 208.633L52.5834 208.729C52.582 205.92 51.9245 203.151 50.6634 200.641C49.701 198.733 48.2354 197.125 46.425 195.99C45.2722 195.277 44.0084 194.763 42.6858 194.468C42.2442 194.343 41.865 194.3 41.6394 194.247L41.2794 194.146Z" fill="#263238"/>
<path d="M66.1874 36.125H51.0962C49.5885 36.125 48.1424 36.7236 47.0759 37.7893C46.0093 38.8549 45.4095 40.3005 45.4082 41.8082V49.4402C45.4082 50.9488 46.0075 52.3955 47.0742 53.4622C48.1409 54.5289 49.5877 55.1282 51.0962 55.1282H60.6434L65.3186 59.7362L65.3474 55.1282H66.1874C66.9345 55.1288 67.6745 54.9821 68.3649 54.6965C69.0552 54.4109 69.6825 53.9919 70.2108 53.4636C70.7391 52.9353 71.1581 52.308 71.4437 51.6177C71.7293 50.9273 71.876 50.1873 71.8754 49.4402V41.8082C71.8754 41.0615 71.7282 40.3221 71.4423 39.6322C71.1564 38.9424 70.7374 38.3157 70.2091 37.7879C69.6809 37.2601 69.0538 36.8416 68.3637 36.5562C67.6737 36.2709 66.9341 36.1244 66.1874 36.125Z" fill="#DCDFEA"/>
<path d="M66.1872 36.1244C66.2286 36.119 66.2705 36.119 66.312 36.1244H66.6864C67.1658 36.1582 67.6386 36.255 68.0928 36.4124C68.9563 36.711 69.7359 37.2118 70.3663 37.8732C70.9968 38.5345 71.4598 39.3372 71.7168 40.214C71.887 40.8082 71.9663 41.4248 71.952 42.0428C71.952 42.686 71.952 43.3532 71.952 44.0492C71.952 45.4412 71.952 46.9292 71.952 48.542C72.0024 49.3737 71.9296 50.2083 71.736 51.0188C71.485 51.8926 71.0324 52.6952 70.4147 53.3622C69.7969 54.0291 69.0312 54.5417 68.1792 54.8588C67.7289 55.0269 67.2598 55.1397 66.7824 55.1948C66.3024 55.2332 65.8224 55.2284 65.3424 55.2284L65.4576 55.1132C65.4576 56.5532 65.4576 58.1276 65.4576 59.726V60.0092L65.256 59.8076L60.576 55.1996L60.6624 55.238H52.08C51.3299 55.2752 50.578 55.2285 49.8384 55.0988C48.3733 54.7702 47.091 53.8901 46.2576 52.6412C45.8553 52.0397 45.5718 51.3668 45.4224 50.6588C45.3021 49.9665 45.257 49.2632 45.288 48.5612C45.288 47.1884 45.288 45.846 45.288 44.534C45.288 43.8764 45.288 43.2284 45.288 42.614C45.2588 41.9719 45.2958 41.3285 45.3984 40.694C45.6348 39.4799 46.2559 38.3741 47.1696 37.5404C47.5941 37.1442 48.0805 36.8199 48.6096 36.5804C49.1159 36.3384 49.6568 36.1765 50.2128 36.1004C50.7447 36.038 51.2806 36.0155 51.816 36.0332H53.3376L62.7312 36.0716L53.3376 36.11H51.84C51.3141 36.0932 50.7877 36.1173 50.2656 36.182C49.1639 36.3558 48.1402 36.8577 47.328 37.622C46.4506 38.4278 45.8564 39.495 45.6336 40.6652C45.539 41.2812 45.5053 41.905 45.5328 42.5276V44.4476C45.5328 45.7596 45.5328 47.102 45.5328 48.4748C45.5035 49.159 45.547 49.8445 45.6624 50.5196C45.8063 51.2051 46.0801 51.8568 46.4688 52.4396C47.2667 53.6337 48.4942 54.4744 49.896 54.7868C50.6181 54.9144 51.3524 54.9595 52.0848 54.9212H60.7248L60.7632 54.9596L65.4336 59.5724L65.2272 59.654C65.2272 58.0604 65.2272 56.5052 65.2608 55.046V54.9308H65.376C65.856 54.9308 66.336 54.9308 66.816 54.902C67.2751 54.8511 67.7264 54.7447 68.16 54.5852C69.0055 54.2778 69.7623 53.7668 70.3632 53.0972C70.9442 52.4661 71.367 51.7061 71.5968 50.8796C71.7864 50.0945 71.8608 49.2861 71.8176 48.4796C71.8176 46.8812 71.8176 45.3788 71.8176 43.9868C71.8176 43.2908 71.8176 42.6236 71.8176 41.9804C71.8376 41.3764 71.7664 40.7728 71.6064 40.19C71.349 39.3374 70.8946 38.5574 70.2801 37.9128C69.6656 37.2683 68.9081 36.7773 68.0688 36.4796C67.4625 36.2691 66.8284 36.1494 66.1872 36.1244Z" fill="#263238"/>
<path d="M38.9423 27.8398H57.4559C58.3715 27.8398 59.2782 28.0203 60.1241 28.3708C60.97 28.7214 61.7386 29.2352 62.3858 29.8829C63.0331 30.5306 63.5463 31.2995 63.8963 32.1456C64.2463 32.9918 64.4261 33.8986 64.4255 34.8142V44.1886C64.4255 46.0375 63.6913 47.8108 62.3844 49.1186C61.0775 50.4264 59.3048 51.1618 57.4559 51.163H45.7439L40.2863 56.8174L39.9791 51.163H38.9423C37.0934 51.1618 35.3206 50.4264 34.0137 49.1186C32.7068 47.8108 31.9727 46.0375 31.9727 44.1886V34.819C31.9714 33.903 32.1507 32.9956 32.5004 32.1489C32.8501 31.3022 33.3633 30.5328 34.0106 29.8846C34.6579 29.2364 35.4267 28.7221 36.2729 28.3713C37.1191 28.0204 38.0262 27.8398 38.9423 27.8398Z" fill="#DCDFEA"/>
<path d="M38.9427 27.8404C38.8932 27.8437 38.8435 27.8437 38.7939 27.8404L38.3427 27.874C38.1411 27.874 37.9011 27.9412 37.6131 27.9844C37.4691 27.9844 37.3155 28.0564 37.1331 28.0996C36.958 28.1408 36.7863 28.1953 36.6195 28.2628C35.584 28.6375 34.6523 29.2528 33.9012 30.0581C33.1502 30.8635 32.6012 31.8357 32.2995 32.8948C32.0997 33.6099 32.0091 34.3511 32.0307 35.0932C32.0307 35.8756 32.0307 36.6964 32.0307 37.5508C32.0307 39.2596 32.0307 41.0964 32.0307 43.0612C31.9741 44.0613 32.0663 45.0643 32.3043 46.0372C32.6001 47.0767 33.1374 48.0316 33.8722 48.824C34.6071 49.6165 35.5189 50.2241 36.5331 50.5972C37.0666 50.7969 37.6229 50.9291 38.1891 50.9908C38.7555 51.034 39.3459 51.0292 39.9459 51.0292H40.0515V51.1348C40.1475 52.9252 40.2531 54.8356 40.3635 56.7892L40.1571 56.7124L45.6099 51.058L45.6483 51.0196H56.2947C57.1918 51.0646 58.091 51.0017 58.9731 50.8324C60.2451 50.5338 61.4055 49.8783 62.3178 48.943C63.2302 48.0077 63.8566 46.8315 64.1235 45.5524C64.2557 44.7226 64.3039 43.8815 64.2675 43.042V38.1316C64.2675 37.3252 64.2675 36.5332 64.2675 35.7316C64.3 34.9692 64.2565 34.2055 64.1379 33.4516C63.8479 32.0157 63.1081 30.7094 62.0259 29.722C61.5195 29.2508 60.941 28.8635 60.3123 28.5748C59.7063 28.2848 59.0584 28.0921 58.3923 28.0036C57.7555 27.9252 57.1136 27.8963 56.4723 27.9172H54.6099L43.0899 27.8788L54.6099 27.8356H56.4723C57.1263 27.8134 57.7809 27.8406 58.4307 27.9172C59.1096 28.0086 59.7702 28.2046 60.3891 28.498C61.0374 28.795 61.6351 29.1918 62.1603 29.674C63.2792 30.6891 64.0458 32.0341 64.3491 33.514C64.47 34.2822 64.5166 35.0602 64.4883 35.8372V38.2372C64.4883 39.8404 64.4883 41.4868 64.4883 43.1668C64.5281 44.0239 64.4798 44.8828 64.3443 45.73C64.0709 47.0549 63.4238 48.2738 62.4797 49.2426C61.5355 50.2115 60.3337 50.8897 59.0163 51.1972C58.1156 51.3726 57.1969 51.4387 56.2803 51.394H45.7443L45.8307 51.3604L40.3731 56.8996L40.1811 57.0964V56.8228C40.0755 54.8644 39.9747 52.9828 39.8787 51.1684L39.9939 51.2788C39.3987 51.2788 38.8083 51.2788 38.2131 51.2356C37.629 51.1699 37.0551 51.0329 36.5043 50.8276C35.4615 50.4374 34.5251 49.8074 33.7705 48.9886C33.0159 48.1699 32.4644 47.1852 32.1603 46.114C31.9248 45.1211 31.8358 44.0991 31.8963 43.0804C31.8963 41.1172 31.8963 39.2788 31.8963 37.57C31.8963 36.7156 31.8963 35.8948 31.8963 35.1124C31.8713 34.3578 31.9603 33.6037 32.1603 32.8756C32.473 31.8001 33.0389 30.8152 33.8105 30.0035C34.5822 29.1917 35.5372 28.5767 36.5955 28.21C36.7662 28.1469 36.941 28.0956 37.1187 28.0564C37.2819 28.018 37.4355 27.97 37.5987 27.946C37.8915 27.9124 38.1363 27.8596 38.3379 27.8548H38.7939L38.9427 27.8404Z" fill="#263238"/>
<path d="M43.6415 39.3837C43.6415 39.8432 43.5053 40.2924 43.25 40.6744C42.9947 41.0565 42.6319 41.3543 42.2074 41.5301C41.7829 41.7059 41.3157 41.7519 40.8651 41.6623C40.4144 41.5727 40.0005 41.3514 39.6756 41.0265C39.3507 40.7016 39.1294 40.2876 39.0398 39.837C38.9501 39.3863 38.9961 38.9192 39.172 38.4947C39.3478 38.0702 39.6456 37.7074 40.0276 37.4521C40.4097 37.1968 40.8588 37.0605 41.3183 37.0605C41.9345 37.0605 42.5254 37.3053 42.9611 37.741C43.3968 38.1767 43.6415 38.7676 43.6415 39.3837Z" fill="white"/>
<path d="M50.5253 39.3837C50.5253 39.8432 50.3891 40.2924 50.1338 40.6744C49.8785 41.0565 49.5157 41.3543 49.0912 41.5301C48.6666 41.7059 48.1995 41.7519 47.7489 41.6623C47.2982 41.5727 46.8843 41.3514 46.5594 41.0265C46.2345 40.7016 46.0132 40.2876 45.9235 39.837C45.8339 39.3863 45.8799 38.9192 46.0558 38.4947C46.2316 38.0702 46.5294 37.7074 46.9114 37.4521C47.2935 37.1968 47.7426 37.0605 48.2021 37.0605C48.5072 37.0605 48.8093 37.1206 49.0912 37.2374C49.373 37.3541 49.6291 37.5253 49.8449 37.741C50.0606 37.9567 50.2317 38.2128 50.3485 38.4947C50.4652 38.7766 50.5253 39.0787 50.5253 39.3837Z" fill="white"/>
<path d="M57.4032 39.3837C57.4032 39.8432 57.267 40.2924 57.0117 40.6744C56.7564 41.0565 56.3936 41.3543 55.9691 41.5301C55.5446 41.7059 55.0775 41.7519 54.6268 41.6623C54.1761 41.5727 53.7622 41.3514 53.4373 41.0265C53.1124 40.7016 52.8911 40.2876 52.8015 39.837C52.7118 39.3863 52.7578 38.9192 52.9337 38.4947C53.1095 38.0702 53.4073 37.7074 53.7893 37.4521C54.1714 37.1968 54.6206 37.0605 55.08 37.0605C55.6962 37.0605 56.2871 37.3053 56.7228 37.741C57.1585 38.1767 57.4032 38.7676 57.4032 39.3837Z" fill="white"/>
<path d="M91.2 112.844L71.04 105.029C80.9517 79.4858 99.5364 58.2451 123.538 45.0294C126.514 43.3926 129.61 41.8661 132.739 40.4837C134.88 39.5237 137.059 38.655 139.253 37.8438L146.774 58.0901C144.994 58.7526 143.198 59.4821 141.451 60.2501C138.893 61.3781 136.363 62.6502 133.93 63.9606C114.39 74.7338 99.2634 92.0386 91.2 112.844Z" fill="#0196DA"/>
<path d="M146.002 68.2413L132.586 27.6621L167.823 39.7629L146.002 68.2413Z" fill="#0196DA"/>
<path d="M97.5888 85.7188L95.3184 84.1828L96.4128 86.5444L96.0432 87.082L93.5136 86.9572L95.7216 88.4596L94.9584 89.578L90.6816 86.6596L91.3632 85.666L94.8528 85.8484L93.3888 82.6996L94.0656 81.7012L98.3472 84.61L97.5888 85.7188Z" fill="white"/>
<path d="M100.32 80.5151L98.9566 82.2287L99.4894 83.1887L98.5582 84.3599L95.9326 79.3487L96.8302 78.2207L102.307 79.6607L101.347 80.8511L100.32 80.5151ZM99.2062 80.1791L97.4878 79.6799L98.3662 81.2351L99.2062 80.1791Z" fill="white"/>
<path d="M103.027 76.8008L102.494 77.396L103.512 78.3176L102.552 79.4024L98.7119 75.932L100.301 74.1752C101.261 73.1288 102.384 72.9608 103.262 73.7576C103.524 73.977 103.715 74.2696 103.81 74.5979C103.905 74.9263 103.9 75.2754 103.795 75.6008L105.749 75.8648L104.698 77.0264L103.027 76.8008ZM101.078 75.0152L100.531 75.62L101.654 76.6376L102.202 76.0328C102.605 75.5816 102.6 75.1688 102.25 74.852C101.899 74.5352 101.482 74.5544 101.078 75.0056V75.0152Z" fill="white"/>
<path d="M106.282 72.6723V73.4691L107.189 74.3955L106.152 75.4083L102.533 71.7075L103.57 70.6947L105.072 72.2355L105 69.2979L106.152 68.1699L106.244 71.2851L109.848 71.7891L108.653 72.9603L106.282 72.6723Z" fill="white"/>
<path d="M112.498 68.0257L113.242 68.8801L110.112 71.6065L106.714 67.7041L109.776 65.0449L110.515 65.8945L108.547 67.6081L109.123 68.2657L110.856 66.7585L111.571 67.5793L109.839 69.0913L110.463 69.8017L112.498 68.0257Z" fill="white"/>
<path d="M112.234 64.5658L110.981 65.5258L110.266 64.609L113.923 61.7578L114.634 62.6746L113.386 63.6346L115.853 66.7978L114.701 67.7002L112.234 64.5658Z" fill="white"/>
<path d="M114.509 61.3828L115.699 60.5332L118.709 64.738L117.518 65.5924L114.509 61.3828Z" fill="white"/>
<path d="M120.83 57.1191L123.634 61.4679L122.621 62.1207L119.208 61.0407L120.706 63.3591L119.52 64.1511L116.712 59.8023L117.725 59.1495L121.138 60.2295L119.645 57.9111L120.83 57.1191Z" fill="white"/>
<path d="M126.173 56.9512L127.301 56.3224L128.343 58.1944C127.995 58.8864 127.444 59.4557 126.764 59.8264C125.324 60.628 123.73 60.2392 122.967 58.8664C122.204 57.4936 122.712 55.9288 124.176 55.1128C124.537 54.888 124.943 54.7472 125.365 54.7006C125.787 54.6541 126.214 54.7031 126.615 54.844L126.207 56.0296C125.983 55.9454 125.744 55.9117 125.506 55.9308C125.267 55.9498 125.037 56.0213 124.829 56.14C124.486 56.3309 124.233 56.6504 124.125 57.028C124.018 57.4056 124.065 57.8105 124.256 58.1536C124.447 58.4967 124.766 58.7498 125.144 58.8574C125.521 58.965 125.926 58.9181 126.269 58.7272C126.508 58.5957 126.716 58.4139 126.879 58.1944L126.173 56.9512Z" fill="white"/>
<path d="M91.1466 225.192C76.8339 209.616 67.0423 190.429 62.8266 169.699C62.1498 166.368 61.6122 162.979 61.2234 159.567C60.5521 153.672 60.3259 147.735 60.5466 141.807L82.1466 142.623C81.9664 147.458 82.1509 152.301 82.6986 157.109C83.0154 159.883 83.4571 162.672 84.0091 165.394C87.4402 182.269 95.4057 197.889 107.049 210.576L91.1466 225.192Z" fill="#0196DA"/>
<path d="M92.1791 152.838L46.3535 148.451L73.5743 118.965L92.1791 152.838Z" fill="#0196DA"/>
<path d="M85.2912 195.057L84.1103 195.144C84.1574 194.54 84.0344 193.934 83.7552 193.397C83.472 192.864 83.208 192.734 82.9872 192.854C82.2624 193.238 84.1824 195.552 82.5072 196.459C81.696 196.896 80.6736 196.584 79.9487 195.23C79.6353 194.658 79.4703 194.016 79.4688 193.363L80.64 193.248C80.6297 193.747 80.7417 194.242 80.9663 194.688C81.2543 195.23 81.5424 195.331 81.7728 195.206C82.4688 194.832 80.5632 192.523 82.2528 191.625C83.0496 191.198 84.0815 191.501 84.8063 192.859C85.1736 193.531 85.3418 194.293 85.2912 195.057Z" fill="white"/>
<path d="M81.2539 191.377L78.6475 192.577L78.0379 191.247L80.6011 190.066C81.4075 189.697 81.5611 189.212 81.3163 188.655C81.0715 188.098 80.5867 187.916 79.7803 188.29L77.2171 189.471L76.6123 188.161L79.2187 186.961C80.6203 186.313 81.7819 186.773 82.4251 188.161C83.0683 189.548 82.6555 190.729 81.2539 191.377Z" fill="white"/>
<path d="M76.2386 181.969C77.3378 181.546 78.3362 182.108 78.845 183.409L79.1714 184.249L80.4338 183.769L80.957 185.132L76.157 186.994L75.2834 184.801C74.7746 183.485 75.1394 182.401 76.2386 181.969ZM76.7714 183.346C76.325 183.519 76.1714 183.903 76.3922 184.469L76.685 185.223L78.0962 184.681L77.8034 183.922C77.5826 183.361 77.213 183.173 76.7714 183.361V183.346Z" fill="white"/>
<path d="M74.5541 176.737C75.6725 176.377 76.6373 177.001 77.0693 178.345L77.3429 179.204L78.6293 178.792L79.0709 180.188L74.1461 181.758L73.4405 179.521C72.9989 178.163 73.4405 177.121 74.5541 176.737ZM75.0005 178.144C74.5445 178.288 74.3669 178.662 74.5541 179.243L74.7989 180.016L76.2389 179.536L75.9893 178.763C75.8117 178.201 75.4517 178 75.0005 178.144Z" fill="white"/>
<path d="M75.0146 175.959C73.5122 176.333 72.1106 175.421 71.7122 173.818C71.3138 172.215 72.125 170.751 73.6322 170.381C75.1394 170.012 76.5122 170.914 76.9346 172.522C77.357 174.13 76.5218 175.584 75.0146 175.959ZM73.9874 171.812C73.7254 171.892 73.4928 172.047 73.3181 172.258C73.1435 172.469 73.0346 172.727 73.0048 172.999C72.975 173.272 73.0256 173.547 73.1505 173.79C73.2754 174.034 73.4689 174.236 73.7073 174.371C73.9457 174.506 74.2184 174.568 74.4917 174.55C74.7651 174.532 75.027 174.434 75.2453 174.268C75.4635 174.103 75.6284 173.877 75.7197 173.618C75.8109 173.36 75.8244 173.081 75.7586 172.815C75.7147 172.629 75.6328 172.454 75.5181 172.301C75.4034 172.148 75.2584 172.021 75.0921 171.926C74.9258 171.832 74.7418 171.773 74.5517 171.754C74.3616 171.734 74.1695 171.754 73.9874 171.812Z" fill="white"/>
<path d="M74.2609 167.088L74.4049 167.87L75.7585 167.63L76.0129 169.07L70.9249 169.982L70.5073 167.654C70.2577 166.267 70.8241 165.254 71.9857 165.058C72.3198 164.984 72.6681 165.012 72.9862 165.138C73.3043 165.264 73.5777 165.481 73.7713 165.763L75.1729 164.381L75.4513 165.922L74.2609 167.088ZM71.6593 167.539L71.8033 168.341L73.2913 168.072L73.1473 167.27C73.0417 166.675 72.7105 166.426 72.2449 166.512C71.7793 166.598 71.5489 166.944 71.6593 167.52V167.539Z" fill="white"/>
<path d="M70.9914 163.201L71.1834 164.775L70.0314 164.919L69.4746 160.321L70.6266 160.182L70.8138 161.751L74.7978 161.271L74.9754 162.711L70.9914 163.201Z" fill="white"/>
<path d="M251.865 186.191L289.603 206.251L255.772 221.855L251.865 186.191Z" fill="#0196DA"/>
<path d="M274.353 211.604L256.219 199.877C258.273 196.695 260.138 193.395 261.806 189.994C263.04 187.488 264.168 184.906 265.166 182.314C273.185 161.491 273.621 138.511 266.4 117.399L286.852 110.4C295.708 136.318 295.164 164.524 285.316 190.08C284.088 193.248 282.705 196.412 281.198 199.479C279.157 203.652 276.872 207.7 274.353 211.604Z" fill="#0196DA"/>
<path d="M280.766 142.08C282.317 141.999 283.512 143.16 283.593 144.816C283.675 146.472 282.605 147.744 281.054 147.821C280.686 147.838 280.318 147.78 279.973 147.649C279.628 147.519 279.313 147.32 279.048 147.064C278.783 146.808 278.573 146.5 278.431 146.16C278.289 145.819 278.218 145.454 278.222 145.085C278.141 143.439 279.216 142.167 280.766 142.08ZM280.977 146.343C281.248 146.313 281.505 146.205 281.716 146.032C281.926 145.858 282.081 145.627 282.161 145.366C282.242 145.105 282.244 144.827 282.168 144.565C282.092 144.303 281.941 144.069 281.734 143.892C281.527 143.715 281.272 143.602 281.001 143.568C280.731 143.534 280.456 143.58 280.211 143.7C279.966 143.82 279.762 144.01 279.623 144.245C279.485 144.48 279.418 144.75 279.432 145.023C279.438 145.214 279.485 145.402 279.568 145.575C279.65 145.747 279.768 145.901 279.913 146.026C280.059 146.151 280.228 146.244 280.411 146.3C280.594 146.357 280.787 146.374 280.977 146.352V146.343Z" fill="white"/>
<path d="M279.801 150.928V150.126H278.423V148.662L283.598 148.744L283.559 151.105C283.559 152.517 282.791 153.395 281.611 153.376C281.268 153.384 280.931 153.29 280.643 153.105C280.354 152.921 280.128 152.654 279.993 152.339L278.399 153.409V151.845L279.801 150.928ZM282.446 150.981V150.169L280.929 150.145V150.957C280.929 151.566 281.193 151.873 281.668 151.878C282.143 151.883 282.436 151.585 282.446 150.981Z" fill="white"/>
<path d="M283.512 154.45L283.315 156.888C283.181 158.597 282.091 159.687 280.507 159.562C278.923 159.437 278.025 158.184 278.16 156.476L278.356 154.037L283.512 154.45ZM279.331 156.509C279.278 156.713 279.27 156.925 279.308 157.132C279.346 157.339 279.429 157.535 279.551 157.706C279.673 157.878 279.831 158.02 280.014 158.124C280.197 158.228 280.4 158.29 280.61 158.307C280.82 158.324 281.03 158.294 281.227 158.221C281.425 158.147 281.603 158.032 281.751 157.882C281.898 157.732 282.011 157.552 282.082 157.353C282.152 157.155 282.178 156.944 282.158 156.735L282.23 155.813L279.403 155.588L279.331 156.509Z" fill="white"/>
<path d="M278.362 164.309L277.243 164.151L277.829 160.037L282.95 160.767L282.379 164.784L281.28 164.64L281.645 162.058L280.781 161.933L280.459 164.208L279.374 164.055L279.701 161.78L278.765 161.645L278.362 164.309Z" fill="white"/>
<path d="M278.016 167.371L278.174 166.589L276.825 166.315L277.118 164.875L282.187 165.897L281.707 168.216C281.429 169.598 280.536 170.323 279.374 170.088C279.037 170.033 278.723 169.878 278.475 169.644C278.226 169.41 278.053 169.106 277.977 168.773L276.163 169.545L276.48 168L278.016 167.371ZM280.603 167.909L280.766 167.112L279.283 166.814L279.12 167.611C279 168.206 279.216 168.571 279.677 168.653C280.137 168.734 280.488 168.504 280.603 167.909Z" fill="white"/>
<path d="M276.552 169.92L277.473 170.664C277.028 171.073 276.705 171.598 276.542 172.181C276.389 172.766 276.494 173.04 276.739 173.107C277.531 173.314 277.699 170.318 279.561 170.808C280.454 171.043 281.001 171.965 280.598 173.453C280.441 174.087 280.125 174.672 279.681 175.152L278.745 174.437C279.098 174.078 279.357 173.638 279.499 173.155C279.657 172.56 279.499 172.291 279.264 172.229C278.496 172.027 278.304 175.013 276.475 174.528C275.606 174.298 275.035 173.371 275.443 171.888C275.623 171.142 276.007 170.461 276.552 169.92Z" fill="white"/>
<path d="M259.008 98.5553C248.286 81.4103 232.332 68.1706 213.504 60.7937C210.921 59.7761 208.252 58.8737 205.574 58.0625C199.678 56.314 193.628 55.1374 187.507 54.5489L189.561 33.0449C197.067 33.7722 204.485 35.2188 211.713 37.3649C214.987 38.3249 218.251 39.4577 221.414 40.7249C244.534 49.7776 264.126 66.032 277.291 87.0833L259.008 98.5553Z" fill="#0196DA"/>
<path d="M243.715 92.7796L279.47 69.3652L276.854 106.532L243.715 92.7796Z" fill="#0196DA"/>
<path d="M218.645 54.9452L219.523 54.158C219.859 54.6618 220.327 55.0637 220.877 55.3196C221.429 55.5692 221.717 55.5068 221.837 55.2764C222.173 54.5276 219.24 53.8748 220.022 52.1228C220.401 51.278 221.395 50.894 222.801 51.5228C223.402 51.7802 223.929 52.1846 224.333 52.6988L223.478 53.51C223.182 53.0995 222.787 52.7696 222.331 52.55C221.769 52.3004 221.481 52.3964 221.371 52.6364C221.049 53.3564 223.973 54.014 223.195 55.7564C222.825 56.5772 221.822 56.9756 220.421 56.3468C219.707 56.058 219.091 55.5718 218.645 54.9452Z" fill="white"/>
<path d="M226.622 58.1621L224.702 57.1541L223.877 57.8549L222.552 57.1685L226.963 53.6309L228.245 54.2981L227.889 59.9429L226.541 59.2421L226.622 58.1621ZM226.742 57.0053L226.915 55.2293L225.561 56.3909L226.742 57.0053Z" fill="white"/>
<path d="M230.798 55.6797L232.056 56.4285L230.006 59.8797L232.128 61.1421L231.537 62.1405L228.153 60.1293L230.798 55.6797Z" fill="white"/>
<path d="M236.04 63.7938L235.411 64.7538L231.955 62.445L234.835 58.125L238.195 60.381L237.566 61.341L235.397 59.901L234.917 60.6258L236.837 61.9026L236.232 62.8146L234.312 61.5378L233.789 62.325L236.04 63.7938Z" fill="white"/>
<path d="M236.007 64.584L237.039 64.008C237.252 64.577 237.62 65.0755 238.1 65.448C238.58 65.8128 238.872 65.8176 239.026 65.616C239.506 64.9584 236.808 63.672 237.96 62.136C238.517 61.3968 239.573 61.248 240.802 62.1696C241.331 62.5539 241.754 63.0658 242.031 63.6576L241.018 64.2576C240.818 63.7952 240.506 63.3895 240.111 63.0768C239.631 62.7072 239.319 62.7408 239.151 62.9472C238.671 63.5808 241.378 64.8672 240.231 66.3936C239.688 67.1136 238.623 67.2768 237.394 66.3504C236.775 65.903 236.295 65.291 236.007 64.584Z" fill="white"/>
<path d="M139.301 76.2578L140.107 76.2914C144.017 76.4435 147.727 78.0617 150.498 80.8241C153.27 83.5865 154.9 87.2908 155.064 91.2002C155.376 98.741 155.626 107.074 155.419 111.106C154.992 119.453 146.592 120.427 146.592 120.427L146.559 123.835C146.511 129.461 145.647 135.643 140.021 135.562L136.263 133.92C133.589 133.886 131.036 132.798 129.159 130.893C127.283 128.987 126.234 126.419 126.24 123.744L126.269 92.621C125.871 83.9186 130.594 76.4306 139.301 76.2578Z" fill="#FFBF9D"/>
<path d="M146.659 120.428C142.779 120.28 139.024 119.021 135.84 116.799C135.84 116.799 138.182 122.909 146.544 122.482L146.659 120.428Z" fill="#FF9A6C"/>
<path d="M151.992 98.7023C151.983 99.013 151.853 99.308 151.63 99.5241C151.407 99.7403 151.108 99.8605 150.797 99.8591C150.645 99.8656 150.493 99.8414 150.35 99.788C150.208 99.7346 150.077 99.6532 149.966 99.5484C149.856 99.4437 149.767 99.3178 149.706 99.1782C149.645 99.0386 149.613 98.8882 149.611 98.7359C149.62 98.4253 149.75 98.1303 149.973 97.9142C150.197 97.698 150.496 97.5778 150.807 97.5791C150.959 97.5727 151.111 97.5969 151.253 97.6503C151.396 97.7037 151.526 97.7851 151.637 97.8899C151.748 97.9946 151.836 98.1205 151.897 98.2601C151.958 98.3997 151.99 98.55 151.992 98.7023Z" fill="#263238"/>
<path d="M153.12 95.221C152.967 95.3698 152.088 94.6642 150.807 94.621C149.525 94.5778 148.555 95.1778 148.407 95.0146C148.344 94.9426 148.503 94.669 148.925 94.3858C149.497 94.0215 150.168 93.8437 150.845 93.877C151.512 93.8997 152.155 94.1352 152.679 94.549C153.063 94.8658 153.187 95.1538 153.12 95.221Z" fill="#263238"/>
<path d="M140.881 98.3985C140.872 98.7091 140.742 99.0041 140.519 99.2202C140.295 99.4364 139.996 99.5566 139.686 99.5553C139.533 99.5617 139.381 99.5375 139.238 99.4842C139.095 99.4309 138.964 99.3495 138.853 99.2448C138.742 99.1401 138.654 99.0142 138.592 98.8747C138.531 98.7351 138.498 98.5846 138.495 98.4321C138.51 98.1268 138.641 97.8388 138.861 97.6272C139.082 97.4156 139.375 97.2966 139.681 97.2945C139.832 97.2867 139.984 97.3093 140.127 97.3608C140.27 97.4124 140.401 97.4919 140.512 97.5946C140.624 97.6974 140.714 97.8215 140.777 97.9595C140.841 98.0975 140.876 98.2467 140.881 98.3985Z" fill="#263238"/>
<path d="M140.487 94.967C140.333 95.1206 139.455 94.415 138.169 94.367C136.882 94.319 135.922 94.9286 135.769 94.7654C135.701 94.6934 135.865 94.415 136.287 94.1366C136.858 93.7696 137.529 93.5901 138.207 93.623C138.874 93.6493 139.516 93.8863 140.041 94.2998C140.439 94.6166 140.559 94.8998 140.487 94.967Z" fill="#263238"/>
<path d="M144.774 104.669C144.774 104.597 145.575 104.492 146.871 104.377C147.202 104.377 147.514 104.3 147.577 104.079C147.615 103.749 147.553 103.414 147.399 103.119C147.121 102.313 146.83 101.468 146.526 100.585C145.316 96.9799 144.457 94.0183 144.606 93.9751C144.754 93.9319 145.849 96.8071 147.058 100.417C147.346 101.305 147.625 102.149 147.889 102.961C148.08 103.363 148.123 103.821 148.009 104.252C147.96 104.37 147.884 104.475 147.788 104.558C147.691 104.642 147.576 104.701 147.452 104.732C147.268 104.775 147.079 104.794 146.89 104.789C145.585 104.77 144.774 104.741 144.774 104.669Z" fill="#263238"/>
<path d="M141.01 89.9521C140.871 90.2977 139.599 90.0817 138.087 90.2065C136.575 90.3313 135.336 90.6865 135.149 90.3697C135.068 90.2161 135.293 89.8897 135.797 89.5777C136.469 89.1902 137.219 88.9603 137.993 88.9054C138.766 88.8505 139.542 88.9721 140.261 89.2609C140.804 89.5057 141.072 89.7889 141.01 89.9521Z" fill="#263238"/>
<path d="M152.784 91.4873C152.544 91.7705 151.675 91.4345 150.61 91.3769C149.544 91.3193 148.642 91.4969 148.445 91.1849C148.359 91.0313 148.512 90.7481 148.925 90.4841C149.467 90.1745 150.089 90.0325 150.712 90.0761C151.335 90.1196 151.931 90.3468 152.424 90.7289C152.775 91.0457 152.89 91.3481 152.784 91.4873Z" fill="#263238"/>
<path d="M154.412 87.3595C154.412 87.3595 152.41 82.0411 149.938 80.7211C146.943 79.1275 145.498 82.4251 142.618 81.4987C139.738 80.5723 136.882 79.0411 133.82 81.1771C130.46 83.5099 131.929 85.2955 131.583 88.9963C130.181 103.987 127.263 108.129 126.783 101.025C126.725 100.243 124.599 99.5419 124.383 96.2539C124.133 91.9915 124.172 86.8267 125.237 83.8507C126.135 81.3403 127.637 79.6411 130.325 77.8076C134.545 74.9276 140.18 75.0667 143.991 75.5995C147.802 76.1323 155.012 80.8075 154.412 87.3595Z" fill="#171A2E"/>
<path d="M127.311 100.799C127.312 100.492 127.251 100.188 127.132 99.905C127.012 99.6222 126.837 99.3667 126.615 99.1539C126.394 98.9411 126.132 98.7755 125.844 98.6672C125.557 98.5589 125.251 98.5101 124.944 98.5237C123.384 98.6101 121.613 99.4261 121.584 102.647C121.541 108.364 127.291 107.226 127.301 107.063C127.311 106.9 127.315 103.199 127.311 100.799Z" fill="#FFBF9D"/>
<path d="M126.081 104.903C126.057 104.903 125.981 104.97 125.813 105.047C125.695 105.097 125.568 105.122 125.441 105.122C125.313 105.122 125.186 105.097 125.069 105.047C124.469 104.822 123.965 103.862 123.945 102.83C123.931 102.334 124.029 101.841 124.233 101.39C124.289 101.212 124.387 101.05 124.518 100.918C124.649 100.786 124.81 100.688 124.987 100.631C125.102 100.601 125.223 100.613 125.331 100.664C125.438 100.715 125.523 100.802 125.573 100.91C125.649 101.068 125.611 101.183 125.64 101.193C125.669 101.202 125.765 101.097 125.721 100.862C125.69 100.719 125.61 100.592 125.496 100.502C125.339 100.383 125.143 100.33 124.949 100.353C124.714 100.398 124.495 100.503 124.312 100.656C124.129 100.81 123.988 101.008 123.902 101.231C123.655 101.725 123.533 102.272 123.547 102.825C123.576 103.977 124.157 105.057 124.987 105.302C125.14 105.348 125.302 105.359 125.46 105.334C125.617 105.309 125.768 105.249 125.899 105.158C126.072 105.042 126.101 104.913 126.081 104.903Z" fill="#FF9A6C"/>
<path d="M156.207 81.3122C155.401 80.573 154.21 80.3522 153.404 79.6178C151.964 78.2546 152.146 75.4994 150.361 74.6018C149.305 74.069 148.018 74.477 146.857 74.2418C144.985 73.8626 144.389 72.3602 141.509 72.0722C137.775 71.7026 136.301 74.3714 136.301 74.3714C135.645 73.9923 134.9 73.7927 134.141 73.7927C133.383 73.7927 132.638 73.9923 131.981 74.3714C130.177 75.3314 129.845 77.6354 129.845 77.6354C129.845 77.6354 129.284 77.2802 127.349 78.5234C126.121 79.3154 125.002 81.173 124.469 82.5266C123.653 84.5426 124.345 86.8466 125.036 88.8914C125.415 90.005 125.89 91.2434 126.956 91.7234C128.266 92.3138 129.86 91.397 130.517 90.1202C131.175 88.8434 132.145 87.5858 132.917 86.3666C134.252 84.2594 135.596 82.301 134.794 80.789C136.13 80.485 137.529 80.6127 138.788 81.1538C140.05 81.7106 141.106 82.6514 142.354 83.237C143.602 83.8226 145.234 83.9474 146.223 82.9826C146.371 83.3768 146.607 83.7322 146.913 84.0224C147.218 84.3126 147.585 84.53 147.986 84.6583C148.387 84.7867 148.812 84.8227 149.229 84.7635C149.646 84.7044 150.044 84.5518 150.394 84.317C151.249 86.0882 153.572 87.0914 155.343 86.237C157.114 85.3826 157.657 82.6418 156.207 81.3122Z" fill="#171A2E"/>
<path d="M124.556 87.4902C124.779 87.9255 124.957 88.3822 125.088 88.8534C125.243 89.3337 125.527 89.7621 125.909 90.0918C126.424 90.4268 127.045 90.5601 127.652 90.4662C128.276 90.4133 128.881 90.2232 129.423 89.9094C129.861 89.6359 130.267 89.3139 130.632 88.9494C130.955 88.5822 131.308 88.2434 131.688 87.9366C131.454 88.3717 131.156 88.7696 130.805 89.1174C130.447 89.5244 130.035 89.8812 129.581 90.1782C129 90.535 128.342 90.7488 127.661 90.8022C126.969 90.9017 126.266 90.7297 125.698 90.3222C125.282 89.9484 124.983 89.4614 124.839 88.9206C124.685 88.4577 124.589 87.9771 124.556 87.4902Z" fill="#131524"/>
<path d="M124.344 91.8904C124.662 92.183 125.021 92.4287 125.409 92.62C125.834 92.7981 126.293 92.8832 126.753 92.8696C127.316 92.8396 127.866 92.689 128.366 92.428C129.28 91.9099 130.081 91.2147 130.723 90.3832C130.977 90.02 131.27 89.6853 131.596 89.3848C131.426 89.7994 131.195 90.1861 130.91 90.532C130.295 91.4438 129.472 92.1971 128.51 92.7304C127.964 93.0151 127.359 93.1695 126.744 93.1816C126.244 93.1802 125.751 93.0636 125.304 92.8408C124.531 92.4328 124.32 91.8952 124.344 91.8904Z" fill="#131524"/>
<path d="M124.239 95.169C124.571 95.4007 124.928 95.5925 125.305 95.7402C125.766 95.8765 126.251 95.9158 126.729 95.8555C127.206 95.7952 127.666 95.6366 128.079 95.3898C128.919 94.8771 129.659 94.2169 130.263 93.441C130.502 93.0985 130.781 92.7859 131.094 92.5098C130.937 92.8989 130.722 93.2616 130.455 93.585C129.882 94.4411 129.127 95.1592 128.242 95.6874C127.738 95.9638 127.179 96.1276 126.606 96.1674C126.134 96.1993 125.661 96.1238 125.223 95.9466C124.47 95.649 124.206 95.1786 124.239 95.169Z" fill="#131524"/>
<path d="M140.947 106.406C140.694 107.008 140.525 107.641 140.443 108.288C140.394 108.594 140.412 108.908 140.494 109.207C140.577 109.506 140.724 109.783 140.923 110.021C141.123 110.31 141.384 110.552 141.687 110.73C141.991 110.907 142.33 111.016 142.68 111.048C143.314 111.108 143.949 110.94 144.469 110.573C144.99 110.205 145.361 109.664 145.517 109.046L145.877 107.659C144.571 107.169 141.038 106.507 140.947 106.406Z" fill="#FF9A6C"/>
<path d="M144.048 110.77C144.048 110.741 143.88 110.77 143.568 110.77C143.165 110.796 142.761 110.761 142.368 110.664C141.801 110.517 141.31 110.162 140.991 109.671C140.708 109.188 140.562 108.639 140.568 108.08C140.574 107.521 140.732 106.974 141.024 106.498L140.842 106.57C142.1 106.882 143.199 107.146 143.986 107.319C144.402 107.439 144.83 107.512 145.263 107.535C144.876 107.339 144.467 107.194 144.044 107.103C143.271 106.872 142.176 106.57 140.924 106.239L140.808 106.205L140.741 106.311C140.406 106.84 140.228 107.453 140.228 108.079C140.228 108.706 140.406 109.319 140.741 109.848C141.116 110.391 141.684 110.769 142.33 110.904C142.75 110.985 143.182 110.985 143.602 110.904C143.9 110.88 144.053 110.789 144.048 110.77Z" fill="#263238"/>
<path d="M230.496 93.8059C232.416 92.6395 232.896 89.8747 231.898 87.8827C230.899 85.8907 228.763 84.6523 226.57 84.2683C224.975 84.0006 223.341 84.1142 221.799 84.5998C220.257 85.0854 218.852 85.9291 217.699 87.0619C216.466 88.2955 215.462 89.9083 213.806 90.4603C212.366 90.9403 210.763 90.4603 209.242 90.6379C207.202 90.8731 205.435 92.2939 204.365 94.0459C203.294 95.7979 202.834 97.8523 202.565 99.8875C202.315 101.755 202.138 103.804 200.822 105.167C199.507 106.531 197.534 106.737 195.946 107.659C192.96 109.377 191.933 113.759 193.848 116.639C194.458 117.556 195.341 118.401 195.394 119.519C195.446 120.523 194.784 121.406 194.467 122.361C193.646 124.819 195.624 127.78 198.211 127.967C199.512 128.063 200.918 127.574 202.08 128.174C203.242 128.774 203.65 130.18 204.374 131.255C205.121 132.297 206.204 133.051 207.441 133.389C208.678 133.727 209.993 133.63 211.166 133.113C212.126 132.657 213.053 131.894 214.118 131.98C215.184 132.067 216.005 132.988 217.051 133.209C218.419 133.492 219.734 132.503 220.57 131.38C221.405 130.257 222.01 128.927 223.046 128.02C224.429 126.825 226.354 126.551 228.091 125.985C230.017 125.353 231.784 124.314 233.274 122.94C234.764 121.566 235.941 119.888 236.726 118.019C237.512 116.151 237.887 114.136 237.826 112.11C237.766 110.084 237.271 108.095 236.376 106.276" fill="#171A2E"/>
<path d="M210.24 118.079C209.827 117.622 209.31 117.272 208.733 117.057H208.848C208.741 117.03 208.632 117.011 208.522 116.999C208.324 116.938 208.116 116.918 207.911 116.94C207.705 116.963 207.506 117.027 207.326 117.129C206.66 117.358 206.103 117.829 205.766 118.449C205.502 118.999 205.394 119.612 205.454 120.22C205.514 120.828 205.74 121.407 206.107 121.895C206.371 122.339 206.763 122.692 207.232 122.909C207.701 123.125 208.225 123.194 208.734 123.107C209.243 123.019 209.713 122.78 210.083 122.419C210.453 122.059 210.705 121.595 210.806 121.089C210.974 120.58 211.01 120.037 210.911 119.511C210.812 118.985 210.581 118.492 210.24 118.079Z" fill="#131524"/>
<path d="M234.72 139.051L237.255 102.407C237.303 101.629 237.057 100.861 236.567 100.255C236.076 99.6489 235.376 99.2488 234.605 99.1338L218.285 94.2474C213.005 93.465 209.227 99.8202 208.685 105.11C208.056 110.99 207.528 118.19 208.037 122.62C209.026 131.519 216.288 132.959 216.288 132.959C216.288 132.959 216.207 142.012 216.106 145.228L213.941 155.169L234.72 139.051Z" fill="#AE7461"/>
<path d="M210.384 111.687C210.369 111.982 210.469 112.272 210.663 112.494C210.858 112.717 211.131 112.854 211.426 112.878C211.569 112.895 211.714 112.884 211.852 112.845C211.991 112.806 212.12 112.74 212.233 112.651C212.346 112.562 212.44 112.451 212.51 112.325C212.58 112.199 212.624 112.061 212.64 111.918C212.655 111.623 212.555 111.334 212.36 111.112C212.166 110.89 211.893 110.752 211.599 110.727C211.456 110.709 211.311 110.72 211.172 110.759C211.033 110.797 210.903 110.863 210.79 110.953C210.677 111.042 210.583 111.153 210.513 111.279C210.444 111.405 210.4 111.544 210.384 111.687Z" fill="#263238"/>
<path d="M210.102 108.33C210.236 108.483 211.124 107.888 212.343 107.941C213.562 107.994 214.431 108.646 214.57 108.502C214.642 108.44 214.508 108.166 214.129 107.864C213.617 107.477 212.999 107.257 212.358 107.235C211.723 107.199 211.094 107.367 210.562 107.715C210.174 107.998 210.039 108.262 210.102 108.33Z" fill="#263238"/>
<path d="M221.396 112.541C221.381 112.836 221.482 113.126 221.678 113.348C221.873 113.57 222.147 113.708 222.442 113.731C222.585 113.749 222.73 113.737 222.868 113.698C223.006 113.659 223.135 113.593 223.248 113.504C223.36 113.415 223.454 113.304 223.523 113.178C223.593 113.052 223.636 112.914 223.652 112.771C223.668 112.476 223.568 112.186 223.373 111.964C223.179 111.742 222.905 111.604 222.61 111.581C222.467 111.563 222.322 111.573 222.183 111.612C222.045 111.651 221.915 111.717 221.802 111.806C221.689 111.895 221.595 112.006 221.525 112.133C221.455 112.259 221.411 112.398 221.396 112.541Z" fill="#263238"/>
<path d="M222.091 109.076C222.226 109.234 223.114 108.634 224.333 108.687C225.552 108.74 226.421 109.393 226.56 109.249C226.627 109.186 226.498 108.913 226.119 108.61C225.605 108.224 224.985 108.004 224.343 107.981C223.71 107.945 223.082 108.114 222.552 108.461C222.163 108.745 222.024 109.009 222.091 109.076Z" fill="#263238"/>
<path d="M217.272 117.936C217.272 117.869 216.528 117.706 215.304 117.495C214.992 117.451 214.699 117.375 214.656 117.159C214.645 116.836 214.732 116.518 214.905 116.247L215.928 113.914C217.368 110.587 218.4 107.851 218.265 107.794C218.131 107.736 216.869 110.386 215.443 113.707C215.097 114.527 214.777 115.311 214.483 116.059C214.269 116.426 214.193 116.856 214.267 117.274C214.306 117.385 214.369 117.486 214.452 117.569C214.535 117.652 214.636 117.715 214.747 117.754C214.917 117.805 215.093 117.837 215.27 117.85C216.48 117.97 217.262 118.008 217.272 117.936Z" fill="#263238"/>
<path d="M216.236 132.961C216.236 132.961 221.636 133.565 227.684 130.277C227.684 130.277 225.03 136.82 216.212 135.61L216.236 132.961Z" fill="#6F4439"/>
<path d="M217.325 120.85C217.617 120.458 218 120.144 218.441 119.934C218.881 119.724 219.367 119.625 219.855 119.645C220.176 119.661 220.488 119.757 220.762 119.925C221.036 120.093 221.264 120.327 221.424 120.605C221.609 120.921 221.692 121.285 221.663 121.649C221.635 122.013 221.495 122.36 221.264 122.643C221.032 122.925 220.72 123.13 220.368 123.23C220.017 123.33 219.644 123.32 219.298 123.202C218.629 122.952 218.03 122.546 217.551 122.016C217.395 121.884 217.269 121.721 217.181 121.536C217.138 121.435 217.123 121.325 217.137 121.216C217.15 121.108 217.192 121.005 217.258 120.917" fill="#912018"/>
<path d="M220.824 118.934C220.627 118.934 220.569 120.239 219.384 121.132C218.198 122.025 216.806 121.818 216.787 122.001C216.787 122.082 217.09 122.274 217.685 122.313C218.46 122.359 219.227 122.129 219.849 121.665C220.448 121.217 220.849 120.555 220.968 119.817C221.05 119.265 220.915 118.934 220.824 118.934Z" fill="#263238"/>
<path d="M221.76 104.029C221.866 104.365 223.095 104.26 224.516 104.509C225.936 104.759 227.084 105.186 227.285 104.893C227.376 104.754 227.189 104.413 226.738 104.092C226.131 103.673 225.436 103.398 224.707 103.285C223.978 103.173 223.234 103.227 222.528 103.444C221.996 103.621 221.722 103.871 221.76 104.029Z" fill="#263238"/>
<path d="M210.72 104.161C210.922 104.449 211.776 104.199 212.784 104.228C213.792 104.257 214.646 104.492 214.853 104.228C214.949 104.089 214.824 103.805 214.459 103.527C213.973 103.184 213.393 102.999 212.798 102.999C212.205 102.983 211.622 103.151 211.128 103.479C210.754 103.733 210.624 104.012 210.72 104.161Z" fill="#263238"/>
<path d="M202.762 102.565C203.156 101.217 204.004 100.047 205.162 99.2528C205.842 98.9142 206.503 98.5409 207.145 98.1344C208.441 97.1216 208.762 95.3312 209.573 93.9008C210.106 92.9809 210.85 92.2014 211.744 91.627C212.638 91.0526 213.656 90.7 214.714 90.5984C216.471 90.4448 218.266 90.9968 219.994 90.5984C221.261 90.296 222.394 89.4944 223.661 89.2688C226.157 88.832 228.461 90.6512 230.228 92.4608C230.228 94.2464 228.788 95.4176 227.386 96.5408C226.688 97.0996 225.876 97.5005 225.008 97.716C224.139 97.9314 223.235 97.9562 222.356 97.7888C221.002 97.52 219.519 96.8288 218.329 97.52C217.138 98.2112 216.999 100.131 215.885 101.072C214.297 102.411 211.815 101.096 209.813 101.658C208.268 102.09 207.284 103.549 206.242 104.773C205.201 105.997 203.65 107.173 202.114 106.693C202.171 105.296 202.388 103.911 202.762 102.565Z" fill="#131524"/>
<path d="M221.587 95.3028C222.71 94.9956 225.005 94.3092 225.619 93.3492C226.949 91.2612 229.267 89.8596 231.609 90.018C232.826 90.1284 233.975 90.6308 234.882 91.4496C235.789 92.2684 236.406 93.3595 236.64 94.5588C238.283 94.6588 239.859 95.2485 241.165 96.252C242.47 97.2554 243.445 98.6267 243.965 100.189C244.394 100.977 244.647 101.849 244.705 102.744C244.763 103.639 244.625 104.537 244.301 105.373C243.902 106.376 243.225 107.49 243.729 108.445C244.233 109.4 245.577 109.468 246.609 109.842C247.502 110.194 248.242 110.848 248.701 111.69C249.16 112.533 249.308 113.51 249.12 114.45C248.966 115.122 248.64 115.789 248.765 116.461C248.889 117.133 249.494 117.666 249.945 118.218C250.51 118.91 250.883 119.738 251.027 120.619C251.171 121.5 251.081 122.404 250.766 123.239C250.451 124.075 249.922 124.813 249.232 125.38C248.542 125.947 247.716 126.322 246.835 126.469C246.038 126.604 245.179 126.556 244.483 126.949C243.686 127.429 243.331 128.389 242.76 129.1C242.203 129.802 241.444 130.316 240.586 130.573C239.728 130.831 238.811 130.819 237.96 130.54C237.619 130.425 237.296 130.263 237 130.06C236.453 130.789 235.613 131.279 234.182 131.26L234.782 112.607C234.677 112.834 234.518 113.032 234.319 113.183C234.12 113.335 233.887 113.435 233.64 113.476C230.635 114.109 230.28 107.936 230.981 106.276C229.864 105.337 228.871 104.261 228.024 103.074C227.217 101.84 226.536 98.4996 226.733 97.002C225.667 97.0212 221.093 95.4324 221.587 95.3028Z" fill="#171A2E"/>
<path d="M233.952 114.09C234.077 112.194 236.4 111.824 238.032 112.799C238.925 113.332 239.602 114.392 239.472 116.404C239.175 121.765 233.851 120.359 233.847 120.205C233.842 120.052 233.808 116.308 233.952 114.09Z" fill="#AE7461"/>
<path d="M235.617 118.266C235.641 118.266 235.704 118.333 235.857 118.415C236.075 118.522 236.326 118.542 236.558 118.472C237.134 118.295 237.662 117.421 237.744 116.456C237.781 115.997 237.717 115.535 237.557 115.103C237.516 114.932 237.434 114.774 237.319 114.642C237.203 114.51 237.058 114.408 236.894 114.344C236.788 114.31 236.674 114.314 236.571 114.356C236.467 114.397 236.382 114.472 236.328 114.57C236.246 114.719 236.275 114.824 236.246 114.834C236.217 114.843 236.136 114.738 236.193 114.517C236.228 114.387 236.308 114.273 236.419 114.195C236.495 114.143 236.581 114.106 236.672 114.087C236.763 114.068 236.856 114.067 236.947 114.085C237.165 114.141 237.364 114.252 237.526 114.408C237.689 114.563 237.808 114.758 237.873 114.973C238.078 115.449 238.16 115.969 238.113 116.485C238.022 117.565 237.413 118.544 236.625 118.727C236.479 118.761 236.326 118.762 236.178 118.729C236.031 118.695 235.894 118.629 235.776 118.535C235.617 118.395 235.598 118.275 235.617 118.266Z" fill="#6F4439"/>
<path d="M228.999 93.9609C229.413 94.1843 229.774 94.4955 230.055 94.8729C230.578 95.6121 230.756 97.0185 230.396 98.5929L230.367 98.7273L230.497 98.7609C231.267 98.9798 231.976 99.3735 232.568 99.9113C233.161 100.449 233.622 101.117 233.914 101.862C234.071 102.282 234.158 102.724 234.173 103.172C234.152 103.649 234.088 104.123 233.981 104.588C233.87 105.091 233.795 105.601 233.756 106.115C233.709 106.674 233.851 107.233 234.159 107.703C234.812 108.731 235.877 109.244 236.794 109.743C237.703 110.16 238.537 110.724 239.261 111.414C240.45 112.626 241.136 114.243 241.181 115.94C241.204 117.088 240.943 118.224 240.423 119.247C240.058 119.977 239.751 120.323 239.785 120.342C239.818 120.361 239.871 120.27 240.015 120.107C240.217 119.86 240.397 119.597 240.553 119.319C241.142 118.289 241.451 117.122 241.45 115.935C241.444 114.158 240.753 112.45 239.521 111.169C238.776 110.447 237.916 109.855 236.977 109.417C236.06 108.937 235.057 108.409 234.49 107.497C233.905 106.676 234.188 105.615 234.356 104.655C234.466 104.167 234.529 103.668 234.543 103.167C234.529 102.674 234.43 102.187 234.25 101.727C233.936 100.936 233.439 100.23 232.802 99.6666C232.164 99.1029 231.402 98.6973 230.578 98.4825L230.679 98.6505C231.02 96.9993 230.789 95.5449 230.199 94.7769C229.983 94.4793 229.698 94.2388 229.369 94.0761C229.252 94.0183 229.128 93.9794 228.999 93.9609Z" fill="#131524"/>
<path d="M237.6 120.303C237.186 119.846 236.667 119.495 236.088 119.281H236.208C236.101 119.251 235.992 119.23 235.882 119.218C235.684 119.157 235.476 119.137 235.271 119.159C235.065 119.181 234.866 119.246 234.687 119.348C234.019 119.576 233.462 120.047 233.127 120.668C232.862 121.218 232.754 121.831 232.814 122.439C232.874 123.047 233.1 123.626 233.468 124.114C233.731 124.558 234.124 124.912 234.593 125.128C235.062 125.344 235.585 125.413 236.094 125.326C236.603 125.238 237.074 124.999 237.444 124.639C237.814 124.278 238.066 123.814 238.167 123.308C238.332 122.8 238.367 122.258 238.268 121.733C238.169 121.208 237.939 120.716 237.6 120.303Z" fill="#131524"/>
<path d="M173.928 168.647C173.928 168.647 175.368 167.894 176.683 168.167C177.998 168.441 182.678 171.527 182.678 171.527L189.211 173.697L186.36 185.908L181.771 183.839L173.928 187.626V168.647Z" fill="#AE7461"/>
<path d="M161.986 171.527C161.986 171.527 165.557 171.076 166.853 170.428C168.149 169.78 171.231 167.044 171.874 167.096C172.517 167.149 176.295 168.109 176.295 168.109L173.895 170.428C173.895 170.428 178.57 173.264 179.967 174.306C181.364 175.348 185.727 180.028 185.933 181.175C186.14 182.322 185.785 183.661 185.237 184.108C184.69 184.554 182.703 183.661 182.703 183.661C182.78 184.014 182.78 184.379 182.702 184.731C182.624 185.083 182.471 185.414 182.252 185.701C181.508 186.695 179.765 186.349 179.765 186.349C179.765 186.349 179.617 187.991 178.805 188.269C177.994 188.548 176.218 187.669 176.218 187.669C176.218 187.669 175.681 189.066 175.028 189.215C174.375 189.364 172.537 188.255 172.537 188.255C172.537 188.255 164.578 182.533 162.788 181.688C160.997 180.844 160.45 180.791 160.45 180.791L161.986 171.527Z" fill="#FFBF9D"/>
<path d="M176.252 187.679C176.218 187.679 176.194 187.54 176.112 187.334C175.996 187.059 175.861 186.793 175.709 186.537C175.455 186.188 175.249 185.807 175.095 185.404C175.446 185.671 175.727 186.018 175.916 186.417C176.082 186.685 176.203 186.979 176.276 187.286C176.324 187.535 176.285 187.679 176.252 187.679Z" fill="#FF9A6C"/>
<path d="M179.559 186.72C179.191 186.242 178.856 185.74 178.556 185.217C178.013 184.387 177.428 183.835 177.471 183.777C178.005 184.09 178.448 184.539 178.753 185.078C179.124 185.569 179.398 186.126 179.559 186.72Z" fill="#FF9A6C"/>
<path d="M182.756 183.839C182.684 183.839 182.463 182.994 181.911 182.068C181.359 181.142 180.73 180.518 180.778 180.465C181.347 180.831 181.809 181.341 182.117 181.943C182.492 182.509 182.712 183.162 182.756 183.839Z" fill="#FF9A6C"/>
<path d="M180.423 177.643C180.616 178.06 180.706 178.517 180.687 178.977C180.747 179.433 180.698 179.897 180.543 180.331C180.463 179.887 180.433 179.437 180.451 178.987C180.391 178.541 180.381 178.09 180.423 177.643Z" fill="#FF9A6C"/>
<path d="M168.84 173.164C168.84 173.164 170.083 169.185 170.529 168.685C170.976 168.186 176.289 168.109 176.289 168.109L176.424 170.428L175.502 171.388L173.51 171.258C173.51 171.258 172.272 174.556 168.84 173.164Z" fill="#AE7461"/>
<path d="M162.941 181.684C162.941 181.684 162.428 182.083 162.941 183.028C163.455 183.974 164.861 183.297 165.303 183.028C165.303 183.028 164.626 184.603 165.485 185.097C166.066 185.4 166.724 185.527 167.376 185.462C167.376 185.462 167.328 186.422 168.548 187.036C169.767 187.651 170.079 187.036 170.079 187.036C170.079 187.036 170.213 188.591 171.61 188.745C172.113 188.851 172.636 188.799 173.108 188.596L172.57 188.289C172.57 188.289 173.679 185.822 173.05 185.097C172.833 184.879 172.572 184.711 172.285 184.602C171.998 184.494 171.691 184.448 171.384 184.468C171.384 184.468 171.658 183.004 170.856 182.596C170.677 182.485 170.475 182.414 170.266 182.388C170.056 182.361 169.844 182.38 169.642 182.442C169.44 182.504 169.254 182.609 169.096 182.749C168.938 182.889 168.811 183.061 168.725 183.254C168.725 183.254 168.634 181.651 167.463 181.684C166.787 181.694 166.142 181.966 165.663 182.443L162.941 181.684Z" fill="#AE7461"/>
<path d="M168.725 183.254C168.624 183.685 168.442 184.092 168.188 184.454C167.997 184.853 167.729 185.21 167.4 185.505C167.547 185.093 167.749 184.702 168 184.344C168.191 183.949 168.435 183.582 168.725 183.254Z" fill="#6F4439"/>
<path d="M171.418 184.512C171.206 185.427 170.732 186.261 170.055 186.912C170.24 186.491 170.464 186.088 170.722 185.707C170.916 185.288 171.149 184.888 171.418 184.512Z" fill="#6F4439"/>
<path d="M155.766 202.686H148.22L146.372 228.99L154.076 228.841C155.367 224.665 157.282 203.554 157.282 203.554L155.766 202.686Z" fill="#171A2E"/>
<path d="M113.031 202.686C113.031 202.686 108.202 214.009 108.682 218.593C109.162 223.177 111.456 228.99 111.456 228.99L149.549 228.932C150.229 226.2 150.747 223.431 151.1 220.638C151.906 214.974 154.076 202.686 154.076 202.686H113.031Z" fill="#171A2E"/>
<path d="M147.95 132.48C147.95 132.48 152.582 151.354 153.23 155.746C154.435 163.8 158.99 197.722 158.352 200.707C157.713 203.693 157.324 206.808 157.324 206.808C157.324 206.808 119.347 204.408 115.267 204.778C111.187 205.147 109.454 205.018 108.465 200.352C107.476 195.687 108.494 171.461 107.625 165.605C106.756 159.749 106.752 156.907 106.42 148.205C106.128 140.664 107.86 134.611 111.432 130.248C115.003 125.885 122.952 121.464 122.952 121.464L125.764 117.355L146.174 127.555L146.52 124.411L147.364 129.235L147.95 132.48Z" fill="#FED001"/>
<g opacity="0.3">
<path d="M157.2 184.743C156.864 183.898 155.789 183.687 154.886 183.586C146.443 182.626 137.649 180.538 131.481 174.696C129.081 172.412 127.161 169.647 125.333 166.872C121.325 160.815 117.557 154.599 113.789 148.383L110.88 149.492C112.67 158.266 114.437 164.616 117.36 171.807C120.283 178.997 122.549 185.976 129.955 188.333C134.755 189.855 143.832 188.688 148.843 188.295C150.939 188.197 153.018 187.876 155.045 187.335C155.663 187.184 156.238 186.892 156.725 186.48C156.962 186.267 157.133 185.989 157.217 185.681C157.302 185.373 157.296 185.048 157.2 184.743Z" fill="black"/>
</g>
<path d="M115.401 128.385C108.816 129.393 104.049 138.83 104.769 144.513C104.827 144.954 101.635 184.487 108.648 187.641C114.201 190.137 134.467 188.25 143.87 187.713C146.466 187.564 149.013 186.944 151.387 185.884L157.281 183.254C157.281 183.287 162.269 182.164 162.269 182.164C162.269 182.164 163.958 178.17 161.913 170.87L152.313 171.278H128.395C128.087 170.787 127.628 170.41 127.086 170.204C126.545 169.999 125.951 169.976 125.395 170.14L127.953 143.74" fill="#FED001"/>
<path d="M127.963 143.727C127.963 143.727 127.963 143.886 127.935 144.207C127.906 144.529 127.867 144.966 127.815 145.556C127.704 146.751 127.541 148.508 127.335 150.774C126.903 155.319 126.279 161.919 125.496 170.146L125.395 170.055C125.952 169.925 126.533 169.943 127.08 170.108C127.662 170.313 128.158 170.709 128.487 171.231L128.41 171.188H143.933C146.741 171.188 149.655 171.188 152.655 171.188L161.914 170.794H162.005L162.034 170.886C162.547 172.693 162.868 174.55 162.994 176.425C163.171 178.39 162.962 180.371 162.379 182.257V182.314H162.312L159.667 182.881L158.338 183.174L157.666 183.318L157.32 183.385C157.295 183.386 157.269 183.381 157.247 183.368C157.225 183.355 157.207 183.336 157.195 183.313C157.186 183.295 157.181 183.275 157.181 183.255C157.181 183.235 157.186 183.215 157.195 183.198H157.157L157.075 183.236L156.917 183.303C156.053 183.675 155.21 184.095 154.392 184.561C154.023 184.799 153.636 185.009 153.235 185.19L151.987 185.751C150.269 186.566 148.452 187.155 146.583 187.503C145.631 187.679 144.669 187.789 143.703 187.834L140.823 188.017C134.103 188.468 127.56 188.934 121.215 189.006C118.098 189.085 114.979 188.936 111.883 188.559C111.126 188.452 110.377 188.292 109.642 188.079C109.274 187.974 108.914 187.841 108.567 187.681C108.22 187.505 107.908 187.267 107.645 186.98C107.154 186.406 106.755 185.758 106.464 185.06C106.175 184.381 105.933 183.684 105.739 182.972C105.047 180.211 104.605 177.393 104.419 174.553C104.194 171.798 104.098 169.114 104.055 166.522C103.978 161.343 104.117 156.514 104.314 152.122C104.41 149.919 104.53 147.826 104.655 145.844C104.679 145.364 104.736 144.85 104.722 144.404C104.671 143.926 104.653 143.445 104.669 142.964C104.702 142.053 104.824 141.148 105.034 140.262C105.727 137.327 107.1 134.596 109.042 132.289C110.244 130.809 111.785 129.64 113.535 128.881C113.991 128.695 114.464 128.551 114.946 128.449L115.426 128.367L114.946 128.473C114.469 128.587 114.002 128.74 113.549 128.929C111.818 129.701 110.296 130.874 109.109 132.351C107.174 134.656 105.807 137.384 105.12 140.314C104.914 141.192 104.795 142.087 104.765 142.988C104.751 143.458 104.77 143.928 104.823 144.394C104.823 144.903 104.779 145.354 104.76 145.873C104.642 147.854 104.533 149.945 104.434 152.146C104.251 156.548 104.122 161.372 104.208 166.546C104.256 169.134 104.357 171.826 104.583 174.558C104.775 177.383 105.219 180.186 105.907 182.934C106.311 184.311 106.8 185.746 107.765 186.841C108.008 187.108 108.297 187.33 108.619 187.494C108.954 187.648 109.301 187.775 109.656 187.873C110.38 188.084 111.118 188.245 111.864 188.353C114.949 188.725 118.056 188.871 121.162 188.79C127.498 188.713 134.045 188.247 140.755 187.796C142.675 187.642 144.624 187.642 146.487 187.287C148.343 186.942 150.147 186.358 151.853 185.55L153.168 184.969C153.62 184.772 154.083 184.602 154.555 184.46C155.417 184.179 156.26 183.846 157.08 183.462L157.239 183.394L157.315 183.361H157.354C157.311 183.332 157.45 183.423 157.263 183.294C157.287 183.294 157.349 183.332 157.368 183.246C157.363 183.222 157.349 183.202 157.33 183.188C157.31 183.174 157.287 183.167 157.263 183.169L157.594 183.102L158.261 182.962L159.591 182.67L162.221 182.084L162.135 182.156C162.701 180.305 162.905 178.362 162.735 176.434C162.608 174.575 162.287 172.735 161.775 170.943L161.89 171.025L152.64 171.361C149.64 171.385 146.727 171.361 143.919 171.361H128.391H128.343L128.319 171.318C128.012 170.829 127.551 170.457 127.008 170.262C126.489 170.107 125.938 170.091 125.41 170.214L125.295 170.238V170.122C126.106 161.895 126.759 155.3 127.215 150.754C127.445 148.489 127.623 146.737 127.743 145.542L127.887 144.193C127.944 143.881 127.963 143.727 127.963 143.727Z" fill="#263238"/>
<path d="M146.194 129.12C146.037 129.052 145.885 128.973 145.738 128.885L144.481 128.16L144.572 128.121C144.322 129.379 144.092 131.227 143.66 133.445L143.631 133.589L143.506 133.512C141.653 132.345 139.431 131.011 137.065 129.581C135.298 128.52 133.647 127.454 132.125 126.533C130.604 125.611 129.202 124.824 128.026 124.166L125.237 122.616L124.479 122.189C124.388 122.142 124.301 122.088 124.22 122.025C124.318 122.056 124.412 122.097 124.503 122.145L125.281 122.529C125.953 122.875 126.922 123.379 128.108 124.017C129.293 124.656 130.7 125.457 132.241 126.341L137.189 129.374C139.556 130.814 141.773 132.149 143.617 133.334L143.458 133.401C143.9 131.203 144.169 129.35 144.457 128.097V128.016L144.524 128.059L145.753 128.822C145.908 128.908 146.056 129.008 146.194 129.12Z" fill="#263238"/>
<g opacity="0.3">
<path d="M127.022 123.508L137.424 131.26C139.714 132.964 142.056 134.701 144.773 135.58C144.725 133.17 144.675 130.761 144.624 128.351L143.558 133.439L127.022 123.508Z" fill="black"/>
</g>
<path d="M156.83 183.575C156.792 183.418 156.776 183.257 156.782 183.095C156.782 182.726 156.753 182.284 156.734 181.766C156.696 180.647 156.653 179.097 156.509 177.398C156.365 175.698 156.149 174.167 155.947 173.078C155.745 171.988 155.577 171.306 155.616 171.297C155.694 171.44 155.751 171.593 155.784 171.753C155.88 172.055 155.99 172.497 156.12 173.044C156.432 174.477 156.645 175.93 156.758 177.393C156.902 179.102 156.921 180.657 156.912 181.78C156.912 182.342 156.912 182.793 156.878 183.11C156.883 183.266 156.867 183.423 156.83 183.575Z" fill="#263238"/>
<path d="M123.547 138.893C123.504 138.893 123.322 138.298 122.909 137.372C121.829 134.942 120.126 132.841 117.974 131.28C117.154 130.685 116.597 130.378 116.621 130.32C116.765 130.36 116.902 130.42 117.029 130.498C117.393 130.688 117.744 130.901 118.08 131.136C120.327 132.645 122.068 134.794 123.077 137.304C123.23 137.68 123.358 138.064 123.461 138.456C123.508 138.598 123.537 138.744 123.547 138.893Z" fill="#263238"/>
<path d="M189.432 172.568C187.455 172.136 213.615 179.034 213.835 179.072L226.258 175.088L215.587 197.168L186.01 187.319L189.432 172.568Z" fill="#0196DA"/>
<g opacity="0.3">
<path d="M201.188 175.746L198.951 175.15L196.388 190.76L200.828 192.238L201.188 175.746Z" fill="black"/>
</g>
<path d="M214.493 149.256L215.3 139.104L235.551 131.391L236.271 135.178L222.476 141.586L214.493 149.256Z" fill="#DCDFEA"/>
<path d="M237.312 136.957C237.312 136.957 242.482 145.059 244.071 151.151C245.779 157.712 244.301 169.304 244.301 169.304L238.469 195.488C239.245 196.505 239.76 197.696 239.967 198.959C240.197 200.85 238.123 202.957 238.123 202.957C238.123 202.957 237.216 202.415 240.677 208.621C244.138 214.827 244.32 228.987 244.32 228.987H192.859C195.307 216.987 200.319 197.907 200.319 197.591C200.319 197.274 200.343 184.362 200.343 184.362C200.343 184.362 200.117 171.848 201.269 167.322C202.421 162.795 213.183 146.202 218.362 141.997C223.863 137.523 236.271 132.939 236.271 132.939L237.312 136.957Z" fill="#0196DA"/>
<path d="M203.146 210.14C202.988 209.593 206.986 203.127 206.986 203.127L229.853 206.636L231.447 212.501L203.146 210.14Z" fill="#0196DA"/>
<path d="M203.146 210.139C203.193 210.134 203.242 210.134 203.29 210.139L203.717 210.167L205.334 210.287L211.315 210.767L231.446 212.409L231.336 212.524C230.947 211.084 230.544 209.615 230.131 208.094C229.997 207.614 229.867 207.134 229.742 206.654L229.829 206.731L206.962 203.193L207.038 203.159C205.714 205.3 204.691 207.028 204.029 208.233C203.693 208.833 203.453 209.303 203.304 209.63C203.247 209.75 203.2 209.876 203.165 210.004C203.157 210.049 203.157 210.094 203.165 210.139C203.165 210.139 203.141 209.942 203.29 209.615C203.438 209.289 203.654 208.809 203.976 208.199C204.624 206.985 205.622 205.247 206.933 203.097L206.957 203.059H207.005L229.882 206.534H229.949V206.596C230.074 207.076 230.203 207.556 230.338 208.036C230.75 209.553 231.154 211.046 231.538 212.467L231.571 212.596H231.427L211.243 210.873L205.286 210.345L203.688 210.196L203.28 210.158L203.146 210.139Z" fill="#263238"/>
<path d="M237.313 136.959L237.173 137.002L236.751 137.103C236.386 137.189 235.839 137.319 235.143 137.501C233.751 137.861 231.735 138.404 229.335 139.277C228.735 139.498 228.111 139.757 227.477 140.021C227.156 140.156 226.834 140.3 226.517 140.463C226.359 140.54 226.191 140.617 226.037 140.703C225.884 140.789 225.721 140.881 225.557 140.986C224.32 141.914 223.174 142.957 222.135 144.101C219.898 146.463 217.613 149.199 215.271 152.103C212.929 155.007 210.773 157.829 208.839 160.407C207.879 161.698 206.962 162.932 206.122 164.093C205.324 165.145 204.599 166.25 203.953 167.401C203.059 169.068 202.298 170.803 201.677 172.589C201.457 173.218 201.298 173.708 201.197 174.029C201.149 174.188 201.111 174.313 201.077 174.409C201.066 174.453 201.051 174.496 201.034 174.538C201.037 174.493 201.045 174.447 201.058 174.404C201.082 174.308 201.116 174.178 201.159 174.02C201.25 173.679 201.399 173.185 201.61 172.551C202.199 170.749 202.941 169 203.828 167.324C204.469 166.164 205.19 165.049 205.983 163.988C206.818 162.826 207.721 161.588 208.685 160.292C210.605 157.709 212.77 154.887 215.108 151.973C217.445 149.06 219.745 146.333 221.996 143.967C223.049 142.816 224.212 141.77 225.466 140.842C225.615 140.732 225.788 140.645 225.946 140.549C226.105 140.453 226.277 140.391 226.426 140.309C226.753 140.151 227.079 140.007 227.386 139.873C228.029 139.594 228.653 139.354 229.258 139.138C231.175 138.459 233.126 137.884 235.105 137.415C235.801 137.242 236.353 137.127 236.722 137.05L237.149 136.969L237.313 136.959Z" fill="#263238"/>
<path d="M234.102 200.716C233.884 200.623 233.674 200.514 233.473 200.389C233.07 200.173 232.513 199.832 231.817 199.396C230.046 198.257 228.373 196.972 226.815 195.556C225.281 194.163 223.868 192.642 222.591 191.01C222.111 190.391 221.737 189.872 221.497 189.508C221.359 189.327 221.239 189.134 221.137 188.932C221.29 189.102 221.433 189.281 221.564 189.469C221.828 189.82 222.217 190.324 222.716 190.933C224.019 192.532 225.439 194.032 226.964 195.421C228.518 196.816 230.168 198.099 231.903 199.261C232.575 199.712 233.127 200.068 233.516 200.303C233.721 200.426 233.917 200.564 234.102 200.716Z" fill="#263238"/>
<g opacity="0.3">
<path d="M203.88 210.201L204.571 212.5L230.467 212.419L203.88 210.201Z" fill="black"/>
</g>
<path d="M215.913 155.999L216.393 193.439L210.043 228.959H226.733C226.733 228.959 234.101 202.199 235.853 196.382C237.547 190.727 240.081 162.302 240.307 160.886C240.398 160.338 242.184 150.518 236.947 145.881" fill="#0196DA"/>
<path d="M236.933 145.92L237.245 146.227C237.351 146.328 237.48 146.458 237.629 146.611C237.706 146.688 237.792 146.765 237.874 146.861L238.114 147.182C239.131 148.504 239.838 150.038 240.183 151.67C240.762 154.24 240.895 156.889 240.576 159.504C240.504 160.272 240.351 161.054 240.279 161.866C240.207 162.677 240.116 163.522 240.029 164.39L239.482 169.877C239.093 173.717 238.656 177.941 238.128 182.462C237.864 184.723 237.576 187.061 237.236 189.466C237.072 190.67 236.88 191.89 236.674 193.118C236.568 193.738 236.444 194.357 236.324 194.976C236.204 195.595 236.036 196.224 235.844 196.838C233.084 206.717 230.045 217.594 226.853 229.032L226.824 229.123H209.909L209.938 228.979C212.285 215.88 214.455 203.789 216.308 193.459C216.173 182.117 216.068 172.757 215.991 166.224C215.962 162.965 215.933 160.416 215.919 158.669C215.919 157.805 215.919 157.142 215.919 156.686C215.919 156.23 215.919 156.01 215.919 156.01C215.919 156.01 215.919 156.24 215.943 156.686C215.967 157.133 215.967 157.805 215.986 158.669C216.015 160.416 216.058 162.965 216.111 166.224C216.212 172.757 216.346 182.117 216.519 193.459C214.676 203.808 212.525 215.899 210.188 229.003L210.068 228.859H226.757L226.637 228.95C229.844 217.512 232.877 206.635 235.652 196.762C235.824 196.142 235.973 195.533 236.132 194.918C236.29 194.304 236.376 193.685 236.482 193.07C236.688 191.837 236.88 190.622 237.048 189.422C237.394 187.022 237.682 184.685 237.956 182.424C238.488 177.902 238.94 173.688 239.338 169.843L239.9 164.357C239.991 163.493 240.077 162.653 240.164 161.837C240.25 161.021 240.394 160.234 240.471 159.475C240.794 156.874 240.675 154.237 240.12 151.675C239.785 150.052 239.097 148.523 238.104 147.197L237.869 146.875C237.792 146.779 237.706 146.698 237.634 146.621L237.26 146.227C237.029 146.026 236.933 145.92 236.933 145.92Z" fill="#263238"/>
<path d="M232.47 144.824C232.47 144.872 231.673 144.68 230.387 144.67C228.708 144.654 227.048 145.017 225.53 145.732C224.011 146.446 222.674 147.495 221.617 148.798C220.806 149.797 220.451 150.526 220.412 150.502C220.464 150.32 220.542 150.145 220.643 149.984C220.886 149.53 221.165 149.097 221.478 148.688C222.519 147.322 223.873 146.227 225.426 145.494C226.979 144.762 228.685 144.413 230.401 144.478C230.917 144.498 231.43 144.558 231.937 144.656C232.121 144.691 232.299 144.747 232.47 144.824Z" fill="#263238"/>
</svg>
