<svg width="69" height="24" viewBox="0 0 69 24" fill="none" xmlns="http://www.w3.org/2000/svg">
<path d="M1.488 18V6.8H5.136C5.86133 6.8 6.50133 6.944 7.056 7.232C7.62133 7.52 8.05867 7.92 8.368 8.432C8.688 8.944 8.848 9.53067 8.848 10.192C8.848 10.8533 8.67733 11.44 8.336 11.952C7.99467 12.464 7.53067 12.8693 6.944 13.168C6.35733 13.456 5.696 13.6 4.96 13.6H2.848V18H1.488ZM7.808 18L5.12 13.408L6.192 12.704L9.296 18H7.808ZM2.848 12.352H5.328C5.73333 12.352 6.096 12.2613 6.416 12.08C6.736 11.888 6.992 11.632 7.184 11.312C7.38667 10.9813 7.488 10.608 7.488 10.192C7.488 9.552 7.264 9.03467 6.816 8.64C6.37867 8.23467 5.808 8.032 5.104 8.032H2.848V12.352ZM14.6396 18.192C13.861 18.192 13.173 18.016 12.5756 17.664C11.9783 17.3013 11.509 16.8053 11.1676 16.176C10.837 15.5467 10.6716 14.8213 10.6716 14C10.6716 13.1787 10.837 12.4533 11.1676 11.824C11.509 11.1947 11.973 10.704 12.5596 10.352C13.157 9.98933 13.8396 9.808 14.6076 9.808C15.3543 9.808 15.9996 9.99467 16.5436 10.368C17.0876 10.7307 17.509 11.2427 17.8076 11.904C18.1063 12.5653 18.2556 13.344 18.2556 14.24H11.6476L11.9676 13.968C11.9676 14.608 12.0796 15.1573 12.3036 15.616C12.5383 16.0747 12.8636 16.4267 13.2796 16.672C13.6956 16.9067 14.1703 17.024 14.7036 17.024C15.269 17.024 15.7436 16.8907 16.1276 16.624C16.5223 16.3573 16.8263 16.0053 17.0396 15.568L18.1436 16.128C17.941 16.544 17.669 16.9067 17.3276 17.216C16.997 17.5253 16.6023 17.7653 16.1436 17.936C15.6956 18.1067 15.1943 18.192 14.6396 18.192ZM12.0476 13.424L11.7116 13.168H17.2316L16.8956 13.44C16.8956 12.928 16.7943 12.4853 16.5916 12.112C16.389 11.7387 16.117 11.4507 15.7756 11.248C15.4343 11.0453 15.0396 10.944 14.5916 10.944C14.1543 10.944 13.7383 11.0453 13.3436 11.248C12.9596 11.4507 12.645 11.7387 12.3996 12.112C12.165 12.4747 12.0476 12.912 12.0476 13.424ZM22.67 18.192C22.0833 18.192 21.5713 18.1067 21.134 17.936C20.6967 17.7547 20.3287 17.52 20.03 17.232C19.742 16.944 19.534 16.6293 19.406 16.288L20.526 15.824C20.7073 16.1867 20.9793 16.48 21.342 16.704C21.7047 16.928 22.1047 17.04 22.542 17.04C23.0433 17.04 23.4647 16.944 23.806 16.752C24.1473 16.5493 24.318 16.2667 24.318 15.904C24.318 15.5733 24.19 15.3067 23.934 15.104C23.6887 14.9013 23.3207 14.736 22.83 14.608L22.062 14.4C21.3367 14.208 20.7713 13.92 20.366 13.536C19.9607 13.1413 19.758 12.6987 19.758 12.208C19.758 11.4507 20.0033 10.864 20.494 10.448C20.9953 10.0213 21.7367 9.808 22.718 9.808C23.1873 9.808 23.614 9.87733 23.998 10.016C24.382 10.1547 24.7127 10.352 24.99 10.608C25.2673 10.8533 25.47 11.1467 25.598 11.488L24.478 11.984C24.3393 11.6213 24.11 11.36 23.79 11.2C23.47 11.04 23.0807 10.96 22.622 10.96C22.1313 10.96 21.7473 11.0667 21.47 11.28C21.1927 11.4827 21.054 11.7707 21.054 12.144C21.054 12.3573 21.166 12.56 21.39 12.752C21.6247 12.9333 21.966 13.0827 22.414 13.2L23.214 13.408C23.7367 13.536 24.174 13.728 24.526 13.984C24.878 14.2293 25.1447 14.512 25.326 14.832C25.5073 15.152 25.598 15.4933 25.598 15.856C25.598 16.336 25.47 16.752 25.214 17.104C24.958 17.456 24.6113 17.728 24.174 17.92C23.7367 18.1013 23.2353 18.192 22.67 18.192ZM30.8271 18.192C30.0485 18.192 29.3605 18.016 28.7631 17.664C28.1658 17.3013 27.6965 16.8053 27.3551 16.176C27.0245 15.5467 26.8591 14.8213 26.8591 14C26.8591 13.1787 27.0245 12.4533 27.3551 11.824C27.6965 11.1947 28.1605 10.704 28.7471 10.352C29.3445 9.98933 30.0271 9.808 30.7951 9.808C31.5418 9.808 32.1871 9.99467 32.7311 10.368C33.2751 10.7307 33.6965 11.2427 33.9951 11.904C34.2938 12.5653 34.4431 13.344 34.4431 14.24H27.8351L28.1551 13.968C28.1551 14.608 28.2671 15.1573 28.4911 15.616C28.7258 16.0747 29.0511 16.4267 29.4671 16.672C29.8831 16.9067 30.3578 17.024 30.8911 17.024C31.4565 17.024 31.9311 16.8907 32.3151 16.624C32.7098 16.3573 33.0138 16.0053 33.2271 15.568L34.3311 16.128C34.1285 16.544 33.8565 16.9067 33.5151 17.216C33.1845 17.5253 32.7898 17.7653 32.3311 17.936C31.8831 18.1067 31.3818 18.192 30.8271 18.192ZM28.2351 13.424L27.8991 13.168H33.4191L33.0831 13.44C33.0831 12.928 32.9818 12.4853 32.7791 12.112C32.5765 11.7387 32.3045 11.4507 31.9631 11.248C31.6218 11.0453 31.2271 10.944 30.7791 10.944C30.3418 10.944 29.9258 11.0453 29.5311 11.248C29.1471 11.4507 28.8325 11.7387 28.5871 12.112C28.3525 12.4747 28.2351 12.912 28.2351 13.424ZM39.0655 18.192C38.2868 18.192 37.6842 17.9893 37.2575 17.584C36.8308 17.1787 36.6175 16.608 36.6175 15.872V7.504H37.8975V15.744C37.8975 16.1493 38.0042 16.464 38.2175 16.688C38.4415 16.9013 38.7508 17.008 39.1455 17.008C39.2735 17.008 39.3962 16.992 39.5135 16.96C39.6415 16.9173 39.8068 16.8213 40.0095 16.672L40.5055 17.712C40.2282 17.8933 39.9775 18.016 39.7535 18.08C39.5295 18.1547 39.3002 18.192 39.0655 18.192ZM35.2255 11.136V10H40.2975V11.136H35.2255Z" fill="#F04438"/>
<path d="M66.4869 6.16667C66.5287 5.57438 66.4777 5.19907 66.2267 4.92283C65.8426 4.5 65.1633 4.5 63.8047 4.5H54.1953C52.8367 4.5 52.1574 4.5 51.7733 4.92283C51.3892 5.34567 51.4734 6.00067 51.6419 7.31067C51.6912 7.69325 51.773 7.91044 52.0228 8.20722C52.8297 9.16596 54.3075 10.8713 56.3812 12.4217C56.5707 12.5634 56.6951 12.7949 56.7161 13.0512C56.9497 15.9053 57.1637 17.8551 57.2773 18.8148C57.3369 19.3183 57.8951 19.7055 58.355 19.3802C59.1277 18.8338 60.5711 18.2214 60.7618 17.2035C60.8322 16.8278 60.928 16.2336 61.0375 15.3333" stroke="#F04438" stroke-width="1.25" stroke-linecap="round" stroke-linejoin="round"/>
<path d="M61.511 7L61.0949 8.73697L61.7862 8.30506C62.2786 7.93108 62.8906 7.70933 63.5538 7.70933C65.181 7.70933 66.5 9.04293 66.5 10.688C66.5 12.3331 65.181 13.6667 63.5538 13.6667C62.1286 13.6667 60.9397 12.6433 60.6667 11.2837" stroke="#F04438" stroke-width="1.25" stroke-linecap="round" stroke-linejoin="round"/>
</svg>
