<svg width="320" height="320" viewBox="0 0 320 320" fill="none" xmlns="http://www.w3.org/2000/svg">
<path d="M30.5846 57.5435C52.9126 9.98351 132.233 16.6875 162.841 50.1355C193.449 83.5835 203.401 105.016 231.009 92.5355C258.617 80.0555 293.825 83.3835 295.809 123.072C297.793 162.76 265.513 209.664 214.169 223.544C162.825 237.424 162.841 286.552 94.8886 276.64C57.8406 271.24 57.0006 231.152 62.2326 198C67.4646 164.848 4.68061 112.696 30.5846 57.5435Z" fill="#0196DA"/>
<path opacity="0.9" d="M30.5846 57.5435C52.9126 9.98351 132.233 16.6875 162.841 50.1355C193.449 83.5835 203.401 105.016 231.009 92.5355C258.617 80.0555 293.825 83.3835 295.809 123.072C297.793 162.76 265.513 209.664 214.169 223.544C162.825 237.424 162.841 286.552 94.8886 276.64C57.8406 271.24 57.0006 231.152 62.2326 198C67.4646 164.848 4.68061 112.696 30.5846 57.5435Z" fill="white"/>
<path d="M160.112 304.511C245.778 304.511 315.224 300.457 315.224 295.455C315.224 290.454 245.778 286.399 160.112 286.399C74.446 286.399 5 290.454 5 295.455C5 300.457 74.446 304.511 160.112 304.511Z" fill="#F5F5F5"/>
<path d="M287.209 274.575C287.209 274.575 288.337 266.279 293.649 265.367C298.961 264.455 297.353 260.447 298.737 258.895C300.121 257.343 303.729 261.927 300.641 266.367C297.553 270.807 300.073 269.407 298.737 273.567C297.401 277.727 286.721 281.455 287.209 274.575Z" fill="#263238"/>
<path d="M287.423 280.296C287.379 280.307 287.332 280.307 287.287 280.296C287.248 280.277 287.212 280.252 287.182 280.22C287.153 280.188 287.13 280.15 287.115 280.109C287.1 280.068 287.093 280.025 287.096 279.981C287.098 279.938 287.108 279.895 287.127 279.855C287.167 279.775 291.127 271.32 289.031 257.8C288.363 253.909 287.291 250.099 285.831 246.431C283.311 239.567 281.135 233.632 285.895 223.272C287.367 220.072 288.871 217.079 290.319 214.191C295.687 203.535 299.919 195.111 296.839 186.743C296.823 186.703 296.814 186.659 296.815 186.615C296.815 186.57 296.825 186.527 296.843 186.486C296.861 186.446 296.887 186.41 296.919 186.379C296.951 186.349 296.989 186.326 297.031 186.311C297.072 186.296 297.116 186.289 297.16 186.291C297.205 186.294 297.248 186.305 297.287 186.325C297.327 186.344 297.362 186.371 297.391 186.405C297.42 186.438 297.442 186.477 297.455 186.519C300.655 195.151 296.351 203.688 290.911 214.52C289.463 217.399 287.959 220.376 286.487 223.576C281.847 233.688 283.879 239.223 286.447 246.231C287.926 249.92 289.02 253.751 289.711 257.663C291.839 271.407 287.791 280.023 287.751 280.111C287.722 280.172 287.675 280.222 287.616 280.255C287.558 280.288 287.49 280.302 287.423 280.296Z" fill="#263238"/>
<path d="M290.512 278.312C290.512 278.312 293.944 273.136 288.992 270.48C284.04 267.824 283.048 269.96 279.984 268.08C276.92 266.2 274.6 261.536 274.08 264.496C273.56 267.456 277.096 269.152 275.848 270.504C274.6 271.856 284.152 280.64 290.512 278.312Z" fill="#263238"/>
<path d="M298.584 190.92C298.584 190.92 301.928 180.76 294.328 180.52C286.728 180.28 295.104 189.832 298.584 190.92Z" fill="#263238"/>
<path d="M291.983 198.729C291.983 198.729 289.719 189.489 284.319 191.441C278.919 193.393 286.599 198.897 291.983 198.729Z" fill="#263238"/>
<path d="M301.136 199.528C301.136 199.528 300.336 192.16 306.048 192.008C311.76 191.856 309.224 198.336 301.136 199.528Z" fill="#263238"/>
<path d="M297.328 214.568C297.328 214.568 305.008 207.712 307.776 212.816C310.544 217.92 301.976 218.976 297.328 214.568Z" fill="#263238"/>
<path d="M283.728 213.352C283.728 213.352 282.288 201.976 276.08 205.544C269.872 209.112 278.328 214.464 283.728 213.352Z" fill="#263238"/>
<path d="M278.271 229.664C278.271 229.664 282.847 218.168 274.335 219.464C265.823 220.76 272.263 226.848 278.271 229.664Z" fill="#263238"/>
<path d="M291.312 233.736C291.312 233.736 298.513 225.272 303.993 227.952C309.473 230.632 305.024 239.064 291.312 233.736Z" fill="#263238"/>
<path d="M284.808 252.503C284.808 252.503 278.68 238.903 273.232 243.487C267.784 248.071 276.712 254.927 284.808 252.503Z" fill="#263238"/>
<path d="M293.712 251.712C293.712 251.712 292.112 241.16 298.16 242.008C304.208 242.856 302.632 249.312 293.712 251.712Z" fill="#263238"/>
<g opacity="0.2">
<path d="M298.584 190.92C298.584 190.92 301.928 180.76 294.328 180.52C286.728 180.28 295.104 189.832 298.584 190.92Z" fill="white"/>
<path d="M291.983 198.729C291.983 198.729 289.719 189.489 284.319 191.441C278.919 193.393 286.599 198.897 291.983 198.729Z" fill="white"/>
<path d="M301.135 199.528C301.135 199.528 300.335 192.16 306.047 192.008C311.759 191.856 309.223 198.336 301.135 199.528Z" fill="white"/>
<path d="M297.327 214.568C297.327 214.568 305.007 207.712 307.775 212.816C310.543 217.92 301.975 218.976 297.327 214.568Z" fill="white"/>
<path d="M283.727 213.352C283.727 213.352 282.287 201.976 276.079 205.544C269.871 209.112 278.327 214.464 283.727 213.352Z" fill="white"/>
<path d="M278.271 229.664C278.271 229.664 282.847 218.168 274.335 219.464C265.823 220.76 272.263 226.848 278.271 229.664Z" fill="white"/>
<path d="M291.312 233.736C291.312 233.736 298.512 225.272 303.992 227.952C309.472 230.632 305.024 239.064 291.312 233.736Z" fill="white"/>
<path d="M284.808 252.503C284.808 252.503 278.68 238.903 273.232 243.487C267.784 248.071 276.712 254.927 284.808 252.503Z" fill="white"/>
<path d="M293.711 251.712C293.711 251.712 292.111 241.16 298.159 242.008C304.207 242.856 302.631 249.312 293.711 251.712Z" fill="white"/>
</g>
<path d="M295.312 204.808H295.216C295.173 204.796 295.133 204.774 295.098 204.746C295.064 204.717 295.036 204.681 295.016 204.64C295.016 204.584 292.072 199 289.872 197.68C289.827 197.662 289.787 197.634 289.754 197.598C289.721 197.563 289.696 197.521 289.681 197.475C289.666 197.428 289.661 197.38 289.666 197.331C289.672 197.283 289.688 197.237 289.713 197.195C289.738 197.154 289.772 197.118 289.812 197.091C289.852 197.064 289.897 197.046 289.945 197.038C289.993 197.03 290.042 197.033 290.089 197.045C290.136 197.058 290.179 197.081 290.216 197.112C292.288 198.36 294.784 202.816 295.44 204.032C299.648 201.552 302.752 196.992 302.784 196.944C302.808 196.908 302.839 196.878 302.875 196.854C302.911 196.83 302.952 196.814 302.994 196.806C303.036 196.798 303.08 196.798 303.122 196.806C303.164 196.815 303.204 196.832 303.24 196.856C303.276 196.88 303.306 196.911 303.33 196.947C303.354 196.983 303.37 197.024 303.379 197.066C303.387 197.108 303.386 197.152 303.378 197.194C303.369 197.236 303.352 197.276 303.328 197.312C303.192 197.512 299.96 202.264 295.472 204.776C295.423 204.802 295.367 204.813 295.312 204.808Z" fill="#263238"/>
<path d="M288.328 218.919H288.264C288.218 218.912 288.174 218.895 288.135 218.868C288.096 218.842 288.064 218.808 288.04 218.767C288.04 218.703 284.376 212.607 279.712 209.863C279.636 209.82 279.582 209.748 279.559 209.664C279.537 209.58 279.548 209.491 279.592 209.415C279.637 209.34 279.71 209.284 279.795 209.262C279.881 209.24 279.971 209.252 280.048 209.295C284.296 211.799 287.6 216.807 288.424 218.095C294.976 213.295 303.152 213.543 303.232 213.535C303.276 213.536 303.319 213.546 303.359 213.564C303.399 213.582 303.435 213.608 303.464 213.64C303.494 213.672 303.517 213.71 303.532 213.751C303.547 213.792 303.554 213.836 303.552 213.879C303.551 213.923 303.541 213.965 303.524 214.004C303.506 214.044 303.481 214.079 303.45 214.109C303.419 214.139 303.382 214.162 303.342 214.178C303.302 214.193 303.259 214.201 303.216 214.199C303.136 214.199 294.936 213.999 288.528 218.839C288.471 218.886 288.401 218.914 288.328 218.919Z" fill="#263238"/>
<path d="M283.888 237.576C283.813 237.575 283.74 237.55 283.68 237.504C279.112 233.832 275.6 224.704 275.456 224.312C275.423 224.225 275.426 224.128 275.465 224.043C275.503 223.959 275.573 223.892 275.66 223.86C275.747 223.827 275.844 223.83 275.929 223.868C276.013 223.906 276.079 223.977 276.112 224.064C276.112 224.152 279.608 233.176 283.96 236.864C285.4 236.064 293.84 231.448 300.304 231.32C300.39 231.32 300.472 231.353 300.533 231.413C300.595 231.473 300.63 231.554 300.632 231.64C300.634 231.683 300.628 231.726 300.613 231.767C300.598 231.808 300.574 231.845 300.544 231.876C300.514 231.908 300.478 231.933 300.439 231.95C300.399 231.967 300.356 231.976 300.312 231.976C293.544 232.112 284.184 237.488 284.088 237.576C284.023 237.598 283.953 237.598 283.888 237.576Z" fill="#263238"/>
<path d="M289.304 256.864C289.252 256.864 289.201 256.852 289.155 256.828C289.109 256.805 289.069 256.77 289.04 256.728C286.414 253.556 282.884 251.259 278.92 250.144C278.836 250.12 278.765 250.063 278.723 249.986C278.681 249.91 278.671 249.82 278.696 249.736C278.72 249.652 278.777 249.581 278.853 249.539C278.93 249.497 279.02 249.488 279.104 249.512C283.104 250.628 286.683 252.909 289.384 256.064C292.72 253.864 297.12 245.336 297.16 245.248C297.206 245.182 297.275 245.135 297.354 245.115C297.433 245.096 297.516 245.106 297.588 245.143C297.66 245.18 297.716 245.241 297.746 245.317C297.776 245.392 297.778 245.475 297.752 245.552C297.56 245.928 293 254.768 289.472 256.752C289.429 256.806 289.37 256.845 289.304 256.864Z" fill="#263238"/>
<path d="M289.968 277.072C289.968 277.072 292.904 272.392 296.232 271.728C299.56 271.064 300.984 267.232 302.208 269.536C303.432 271.84 300.056 279.464 289.968 277.072Z" fill="#263238"/>
<path d="M305.231 295.457H273.111L270.959 275.641H307.375L305.231 295.457Z" fill="#0196DA"/>
<path d="M308.128 279.391H270.208L269.728 275.199H308.616L308.128 279.391Z" fill="#0196DA"/>
<path opacity="0.3" d="M308.128 279.391H270.208L269.728 275.199H308.616L308.128 279.391Z" fill="white"/>
<path d="M55.9926 187.607C60.1075 196.92 62.545 206.886 63.1926 217.047C63.2324 217.825 63.0026 218.592 62.5421 219.221C62.0816 219.849 61.4184 220.299 60.6646 220.495C60.3709 220.579 60.0662 220.62 59.7606 220.615H44.2966V289.039H54.6966C55.5301 289.049 56.3267 289.384 56.9168 289.973C57.507 290.562 57.8442 291.357 57.8566 292.191H26.1686C26.1812 291.35 26.5239 290.549 27.1227 289.959C27.7214 289.369 28.5282 289.039 29.3686 289.039H39.7686V220.615H24.2726C23.967 220.62 23.6623 220.579 23.3686 220.495C22.6155 220.299 21.9533 219.848 21.4941 219.22C21.0349 218.592 20.8069 217.824 20.8486 217.047C21.4966 206.886 23.934 196.92 28.0486 187.607C29.8753 183.389 30.7337 178.815 30.5607 174.221C30.3876 169.628 29.1875 165.132 27.0486 161.063C23.4566 154.231 20.1126 147.143 20.8566 145.647C22.3686 142.607 23.8806 141.135 31.4326 140.255C36.3686 139.671 37.3206 136.783 37.3846 134.871C37.3987 134.396 37.3095 133.924 37.123 133.488C36.9365 133.051 36.6572 132.661 36.3046 132.343C29.3686 126.031 28.9926 111.543 40.6966 109.711V109.511C41.0886 109.511 41.4966 109.511 41.8246 109.551H42.2006C42.5766 109.551 42.9526 109.511 43.3366 109.511V109.711C55.0486 111.575 54.6646 126.031 47.7366 132.343C47.3857 132.662 47.1076 133.053 46.9212 133.489C46.7348 133.925 46.6446 134.397 46.6566 134.871C46.7206 136.783 47.6726 139.671 52.6086 140.255C60.1686 141.135 61.6726 142.607 63.1846 145.647C63.9286 147.143 60.5926 154.231 57.0006 161.063C54.8604 165.131 53.6589 169.627 53.4845 174.22C53.3101 178.814 54.1671 183.388 55.9926 187.607Z" fill="#263238"/>
<path opacity="0.4" d="M55.9926 187.607C60.1075 196.92 62.545 206.886 63.1926 217.047C63.2324 217.825 63.0026 218.592 62.5421 219.221C62.0816 219.849 61.4184 220.299 60.6646 220.495C60.3709 220.579 60.0662 220.62 59.7606 220.615H44.2966V289.039H54.6966C55.5301 289.049 56.3267 289.384 56.9168 289.973C57.507 290.562 57.8442 291.357 57.8566 292.191H26.1686C26.1812 291.35 26.5239 290.549 27.1227 289.959C27.7214 289.369 28.5282 289.039 29.3686 289.039H39.7686V220.615H24.2726C23.967 220.62 23.6623 220.579 23.3686 220.495C22.6155 220.299 21.9533 219.848 21.4941 219.22C21.0349 218.592 20.8069 217.824 20.8486 217.047C21.4966 206.886 23.934 196.92 28.0486 187.607C29.8753 183.389 30.7337 178.815 30.5607 174.221C30.3876 169.628 29.1875 165.132 27.0486 161.063C23.4566 154.231 20.1126 147.143 20.8566 145.647C22.3686 142.607 23.8806 141.135 31.4326 140.255C36.3686 139.671 37.3206 136.783 37.3846 134.871C37.3987 134.396 37.3095 133.924 37.123 133.488C36.9365 133.051 36.6572 132.661 36.3046 132.343C29.3686 126.031 28.9926 111.543 40.6966 109.711V109.511C41.0886 109.511 41.4966 109.511 41.8246 109.551H42.2006C42.5766 109.551 42.9526 109.511 43.3366 109.511V109.711C55.0486 111.575 54.6646 126.031 47.7366 132.343C47.3857 132.662 47.1076 133.053 46.9212 133.489C46.7348 133.925 46.6446 134.397 46.6566 134.871C46.7206 136.783 47.6726 139.671 52.6086 140.255C60.1686 141.135 61.6726 142.607 63.1846 145.647C63.9286 147.143 60.5926 154.231 57.0006 161.063C54.8604 165.131 53.6589 169.627 53.4845 174.22C53.3101 178.814 54.1671 183.388 55.9926 187.607Z" fill="white"/>
<path d="M55.9926 187.607C60.1075 196.92 62.545 206.886 63.1926 217.047C63.2324 217.825 63.0026 218.592 62.5421 219.221C62.0816 219.849 61.4184 220.299 60.6646 220.495H23.3686C22.6155 220.299 21.9533 219.848 21.4941 219.22C21.0349 218.592 20.8069 217.824 20.8486 217.047C21.4966 206.886 23.934 196.92 28.0486 187.607C29.8753 183.389 30.7337 178.815 30.5607 174.221C30.3876 169.628 29.1875 165.132 27.0486 161.063C23.4566 154.231 20.1126 147.143 20.8566 145.647C22.3686 142.607 23.8806 141.135 31.4326 140.255C36.3686 139.671 37.3206 136.783 37.3846 134.871C37.3987 134.396 37.3095 133.924 37.123 133.488C36.9365 133.051 36.6572 132.661 36.3046 132.343C29.3686 126.031 28.9926 111.543 40.6966 109.711V109.511C41.0886 109.511 41.4966 109.511 41.8246 109.551H42.2006C42.5766 109.551 42.9526 109.511 43.3366 109.511V109.711C55.0486 111.575 54.6646 126.031 47.7366 132.343C47.3857 132.662 47.1076 133.053 46.9212 133.489C46.7348 133.925 46.6446 134.397 46.6566 134.871C46.7206 136.783 47.6726 139.671 52.6086 140.255C60.1686 141.135 61.6726 142.607 63.1846 145.647C63.9286 147.143 60.5926 154.231 57.0006 161.063C54.8604 165.131 53.6589 169.627 53.4845 174.22C53.3101 178.814 54.1671 183.388 55.9926 187.607Z" fill="#0196DA"/>
<path opacity="0.7" d="M55.9926 187.607C60.1075 196.92 62.545 206.886 63.1926 217.047C63.2324 217.825 63.0026 218.592 62.5421 219.221C62.0816 219.849 61.4184 220.299 60.6646 220.495H23.3686C22.6155 220.299 21.9533 219.848 21.4941 219.22C21.0349 218.592 20.8069 217.824 20.8486 217.047C21.4966 206.886 23.934 196.92 28.0486 187.607C29.8753 183.389 30.7337 178.815 30.5607 174.221C30.3876 169.628 29.1875 165.132 27.0486 161.063C23.4566 154.231 20.1126 147.143 20.8566 145.647C22.3686 142.607 23.8806 141.135 31.4326 140.255C36.3686 139.671 37.3206 136.783 37.3846 134.871C37.3987 134.396 37.3095 133.924 37.123 133.488C36.9365 133.051 36.6572 132.661 36.3046 132.343C29.3686 126.031 28.9926 111.543 40.6966 109.711V109.511C41.0886 109.511 41.4966 109.511 41.8246 109.551H42.2006C42.5766 109.551 42.9526 109.511 43.3366 109.511V109.711C55.0486 111.575 54.6646 126.031 47.7366 132.343C47.3857 132.662 47.1076 133.053 46.9212 133.489C46.7348 133.925 46.6446 134.397 46.6566 134.871C46.7206 136.783 47.6726 139.671 52.6086 140.255C60.1686 141.135 61.6726 142.607 63.1846 145.647C63.9286 147.143 60.5926 154.231 57.0006 161.063C54.8604 165.131 53.6589 169.627 53.4845 174.22C53.3101 178.814 54.1671 183.388 55.9926 187.607Z" fill="white"/>
<path d="M223.248 16H187.472C185.857 16 184.258 16.318 182.766 16.936C181.274 17.5539 179.919 18.4596 178.777 19.6014C177.635 20.7432 176.73 22.0987 176.112 23.5905C175.494 25.0823 175.176 26.6813 175.176 28.296V63.064C175.176 64.6787 175.494 66.2777 176.112 67.7695C176.73 69.2613 177.635 70.6168 178.777 71.7586C179.919 72.9004 181.274 73.8061 182.766 74.424C184.258 75.042 185.857 75.36 187.472 75.36H189.936L190.16 84.488L198.208 75.36H223.248C224.863 75.36 226.461 75.042 227.953 74.424C229.445 73.8061 230.801 72.9004 231.942 71.7586C233.084 70.6168 233.99 69.2613 234.608 67.7695C235.226 66.2777 235.544 64.6787 235.544 63.064V28.296C235.544 25.0349 234.248 21.9074 231.942 19.6014C229.636 17.2955 226.509 16 223.248 16Z" fill="#0196DA"/>
<path opacity="0.7" d="M218.408 62.3439H192.312L194.249 38.9119L193.28 34.2559H217.441L216.473 38.9119L218.408 62.3439Z" fill="white"/>
<path d="M212.522 35.7988C212.314 30.9988 209.185 27.2148 205.361 27.2148C201.537 27.2148 198.401 31.0228 198.201 35.7988C198.122 35.8517 198.057 35.9229 198.011 36.0065C197.965 36.09 197.94 36.1835 197.938 36.2788C197.938 36.4401 198.002 36.5947 198.116 36.7088C198.23 36.8228 198.384 36.8868 198.546 36.8868C198.707 36.8868 198.861 36.8228 198.975 36.7088C199.089 36.5947 199.153 36.4401 199.153 36.2788C199.151 36.1903 199.129 36.1034 199.089 36.0245C199.049 35.9456 198.992 35.8767 198.922 35.8228C199.114 31.4308 201.921 27.9348 205.361 27.9348C208.801 27.9348 211.609 31.4308 211.761 35.8228C211.694 35.8785 211.639 35.948 211.6 36.0267C211.562 36.1053 211.54 36.1913 211.538 36.2788C211.538 36.4401 211.602 36.5947 211.716 36.7088C211.83 36.8228 211.984 36.8868 212.146 36.8868C212.307 36.8868 212.461 36.8228 212.575 36.7088C212.689 36.5947 212.753 36.4401 212.753 36.2788C212.755 36.1863 212.735 36.0946 212.695 36.0112C212.654 35.9279 212.595 35.8551 212.522 35.7988Z" fill="white"/>
<path d="M186.656 102.64L183.352 115.368L189.264 116.072L190.68 104.456L186.656 102.64Z" fill="#E4897B"/>
<path d="M141.319 287.647L142.263 288.447L143.519 287.511L145.439 291.575L153.359 298.303C153.359 298.303 155.695 298.111 152.783 293.895C152.64 293.691 152.519 293.471 152.423 293.239C151.215 290.583 151.055 284.967 151.055 284.967L146.711 281.271C146.408 281.36 146.111 281.47 145.823 281.599C144.535 282.151 142.007 283.463 141.319 287.647Z" fill="#0196DA"/>
<path opacity="0.2" d="M141.319 287.647L142.263 288.447L143.519 287.511L145.439 291.575L153.359 298.303C153.359 298.303 155.695 298.111 152.783 293.895C152.64 293.691 152.519 293.471 152.423 293.239C151.215 290.583 151.055 284.967 151.055 284.967L146.711 281.271C146.408 281.36 146.111 281.47 145.823 281.599C144.535 282.151 142.007 283.463 141.319 287.647Z" fill="black"/>
<path d="M145.825 281.6C146.945 281.448 147.169 286.48 148.273 289.064C149.257 291.36 150.857 293.368 152.441 293.232C151.233 290.576 151.569 283.768 151.569 283.768L148.073 280.8C148.073 280.8 146.377 281.36 145.825 281.6Z" fill="#E4897B"/>
<path opacity="0.2" d="M145.825 281.6C146.945 281.448 147.169 286.48 148.273 289.064C149.257 291.36 150.857 293.368 152.441 293.232C151.233 290.576 151.569 283.768 151.569 283.768L148.073 280.8C148.073 280.8 146.377 281.36 145.825 281.6Z" fill="black"/>
<path d="M141.088 299.832H142.328L142.672 298.304L146.776 300.152H157.176C157.176 300.152 158.824 298.488 153.88 297.168C153.636 297.105 153.4 297.013 153.176 296.896C150.536 295.664 146.776 291.48 146.776 291.48H141.072C140.899 291.737 140.741 292.005 140.6 292.28C139.976 293.56 138.904 296.192 141.088 299.832Z" fill="#0196DA"/>
<path d="M140.601 292.304C141.353 291.464 144.785 295.152 147.289 296.408C149.537 297.528 152.049 298.008 153.169 296.88C150.529 295.648 146.377 290.24 146.377 290.24H141.793C141.793 290.24 140.913 291.768 140.601 292.304Z" fill="#E4897B"/>
<path d="M189.417 105.664L198.049 103.648L193.761 97.8477C193.761 97.8477 185.841 99.5197 186.657 102.648L189.417 105.664Z" fill="#E4897B"/>
<path d="M191.113 106.168C191.113 106.168 190.785 135.336 184.305 135.336C180.713 135.336 176.641 133 173.177 130.352C170.27 128.091 167.571 125.574 165.113 122.832V122.736L162.881 109.192C169.281 109.032 180.385 123.64 180.385 123.64L185.713 105.136L191.113 106.168Z" fill="#0196DA"/>
<path opacity="0.2" d="M173.176 130.352C170.269 128.091 167.57 125.574 165.112 122.832V122.736L167.192 118.088C170.669 121.27 172.807 125.653 173.176 130.352Z" fill="black"/>
<path d="M136.689 76.8636C136.689 76.8636 138.713 73.3596 144.513 72.7676C150.313 72.1756 158.001 75.2636 159.177 84.1196C160.353 92.9756 162.865 97.8316 162.865 97.8316C162.865 97.8316 144.185 102.712 138.937 100.952C133.689 99.1916 125.569 79.3836 136.689 76.8636Z" fill="#263238"/>
<path d="M175.424 231.975C172.808 237.191 170.176 242.807 167.648 248.415C164.328 255.823 161.208 263.239 158.552 269.879C156.656 274.615 154.184 280.591 152.888 284.207C150.081 283.984 147.421 282.862 145.304 281.007C146.28 274.503 148.88 257.607 153.792 242.743C156.368 234.919 159.592 227.199 163.56 220.919C145.008 173.087 148.6 154.823 148.6 154.823L168.28 153.311C168.28 153.311 171.824 171.263 174.8 189.663C176.352 199.311 177.744 209.087 178.384 216.487V216.559C178.838 221.872 177.814 227.207 175.424 231.975Z" fill="#263238"/>
<path opacity="0.2" d="M158.36 206.663C155.608 198.519 153.56 191.464 152.12 185.392C153.224 180.592 154.888 176.432 157.24 173.896C157.24 173.896 161.16 187.088 158.36 206.663Z" fill="black"/>
<path opacity="0.2" d="M158.552 269.879C156.656 274.615 154.184 280.591 152.888 284.207C150.081 283.985 147.421 282.863 145.304 281.007C146.28 274.503 148.88 257.607 153.792 242.743C155.48 250.687 157.416 260.759 158.552 269.879Z" fill="black"/>
<path d="M160.344 151.375C160.344 151.375 154.608 195.783 151.32 217.151C147.864 239.591 147.424 275.607 148.288 290.279C147.032 291.007 142.448 291.879 139.976 291.119C139.976 291.119 128.272 245.727 136.04 219.367C128.968 167.439 139.24 154.719 139.24 154.719L160.344 151.375Z" fill="#263238"/>
<path opacity="0.7" d="M158.434 123.415C152.665 118.215 146.269 113.756 139.394 110.143C140.018 110.071 140.666 110.007 141.306 109.951C145.671 109.489 150.063 109.342 154.45 109.511C155.538 109.575 156.658 109.663 157.754 109.751C160.474 115.991 158.434 123.415 158.434 123.415Z" fill="white"/>
<path d="M139.393 151.376L168.113 149.44C168.113 149.44 168.969 158.056 168.769 157.936C168.569 157.816 138.057 159.008 138.057 159.008L139.393 151.376Z" fill="#263238"/>
<path d="M139.658 151.848L168.05 150.28V152.976L139.394 154.496L139.658 151.848Z" fill="black"/>
<path d="M155.633 154.112C155.428 154.113 155.232 154.035 155.083 153.895C154.934 153.756 154.845 153.564 154.833 153.36L154.705 151.76C154.695 151.653 154.707 151.546 154.739 151.443C154.772 151.341 154.825 151.246 154.895 151.165C154.966 151.083 155.051 151.017 155.148 150.969C155.244 150.922 155.349 150.894 155.457 150.888L158.569 150.64C158.681 150.631 158.793 150.646 158.9 150.683C159.006 150.72 159.103 150.779 159.185 150.856C159.268 150.932 159.335 151.025 159.381 151.128C159.426 151.232 159.449 151.343 159.449 151.456V153.12C159.449 153.333 159.364 153.536 159.214 153.686C159.064 153.836 158.861 153.92 158.649 153.92L155.665 154.08L155.633 154.112ZM158.625 151.208L155.513 151.448C155.477 151.451 155.442 151.462 155.41 151.478C155.378 151.495 155.35 151.517 155.327 151.545C155.304 151.572 155.286 151.604 155.276 151.638C155.265 151.673 155.261 151.709 155.265 151.744L155.385 153.344C155.392 153.415 155.426 153.48 155.479 153.528C155.533 153.575 155.601 153.601 155.673 153.6L158.657 153.44C158.727 153.438 158.794 153.409 158.844 153.358C158.893 153.307 158.921 153.239 158.921 153.168V151.504C158.921 151.467 158.913 151.429 158.898 151.395C158.883 151.36 158.861 151.33 158.833 151.304C158.807 151.274 158.775 151.249 158.739 151.233C158.703 151.216 158.664 151.208 158.625 151.208Z" fill="white"/>
<path d="M139.393 151.375C138.793 144.639 136.385 132.295 132.233 119.327C130.881 115.111 133.169 110.351 133.169 110.351C133.169 110.351 138.825 110.207 139.393 110.143C139.961 110.079 140.665 110.007 141.305 109.951C145.67 109.489 150.063 109.342 154.449 109.511C155.537 109.575 156.657 109.663 157.753 109.751C158.105 109.751 162.081 109.823 162.425 109.863C162.425 109.863 167.929 116.151 168.265 121.247C168.669 125.169 168.819 129.113 168.713 133.055C168.713 137.679 168.041 150.279 168.041 150.279C167.161 155.151 157.233 150.695 157.233 150.695C142.905 157.791 139.393 151.375 139.393 151.375Z" fill="#0196DA"/>
<path opacity="0.8" d="M139.393 151.375C138.793 144.639 136.385 132.295 132.233 119.327C130.881 115.111 133.169 110.351 133.169 110.351C133.169 110.351 138.825 110.207 139.393 110.143C139.961 110.079 140.665 110.007 141.305 109.951C145.67 109.489 150.063 109.342 154.449 109.511C155.537 109.575 156.657 109.663 157.753 109.751C158.105 109.751 162.081 109.823 162.425 109.863C162.425 109.863 167.929 116.151 168.265 121.247C168.669 125.169 168.819 129.113 168.713 133.055C168.713 137.679 168.041 150.279 168.041 150.279C167.161 155.151 157.233 150.695 157.233 150.695C142.905 157.791 139.393 151.375 139.393 151.375Z" fill="white"/>
<path opacity="0.2" d="M155.457 122.263C155.457 122.352 155.43 122.439 155.381 122.512C155.332 122.586 155.262 122.643 155.18 122.677C155.098 122.711 155.008 122.72 154.921 122.703C154.834 122.686 154.754 122.643 154.692 122.58C154.629 122.518 154.586 122.438 154.569 122.351C154.552 122.264 154.561 122.174 154.595 122.092C154.629 122.01 154.686 121.94 154.76 121.891C154.833 121.842 154.92 121.815 155.009 121.815C155.127 121.815 155.241 121.863 155.325 121.947C155.409 122.031 155.457 122.145 155.457 122.263Z" fill="black"/>
<path opacity="0.2" d="M157.088 131.727C157.088 131.816 157.062 131.903 157.013 131.976C156.964 132.05 156.894 132.107 156.812 132.141C156.73 132.175 156.64 132.184 156.553 132.167C156.466 132.149 156.386 132.107 156.324 132.044C156.261 131.981 156.218 131.902 156.201 131.815C156.184 131.728 156.193 131.638 156.226 131.556C156.26 131.474 156.318 131.404 156.391 131.355C156.465 131.306 156.552 131.279 156.64 131.279C156.759 131.279 156.873 131.326 156.957 131.411C157.041 131.495 157.088 131.608 157.088 131.727Z" fill="black"/>
<path opacity="0.2" d="M157.089 141.199C157.336 141.199 157.537 140.998 157.537 140.751C157.537 140.503 157.336 140.303 157.089 140.303C156.841 140.303 156.641 140.503 156.641 140.751C156.641 140.998 156.841 141.199 157.089 141.199Z" fill="black"/>
<path opacity="0.2" d="M157.537 149.888C157.784 149.888 157.985 149.688 157.985 149.44C157.985 149.193 157.784 148.992 157.537 148.992C157.289 148.992 157.089 149.193 157.089 149.44C157.089 149.688 157.289 149.888 157.537 149.888Z" fill="black"/>
<path d="M141.712 171.087L131.792 169.295L137.568 147.959C137.568 147.959 136.112 142.663 134.512 136.591C133.712 133.631 132.912 130.495 132.2 127.703C131.411 124.929 130.786 122.11 130.328 119.263C130.144 115.863 133.176 110.359 133.176 110.359L137.584 109.639C137.584 109.639 146.864 116.407 147.288 130.215C147.712 144.023 141.712 171.087 141.712 171.087Z" fill="#0196DA"/>
<path d="M159.984 109.192C159.984 109.192 162.904 120.064 164.336 128.064C165.768 136.064 169.712 170.128 169.712 170.128L171.864 169.056L168.912 148.728C168.912 148.728 169.992 125.168 169.152 120.328C168.312 115.488 162.896 109.192 162.896 109.192H159.984Z" fill="#0196DA"/>
<path d="M156.152 111.368C157.536 116.416 154.552 120.888 154.552 120.888C145.696 118.088 142.032 109.928 142.032 109.928C144.68 107.016 143.008 99.3121 141.72 95.1201L145.264 97.7761L150.544 101.72C150.444 102.807 150.531 103.903 150.8 104.96C151.2 106.64 151.912 108.216 152.704 108.552L156.152 111.368Z" fill="#E4897B"/>
<path opacity="0.2" d="M150.801 104.961C148.697 104.489 145.937 102.313 145.497 100.161C145.327 99.3724 145.249 98.567 145.265 97.7607L150.545 101.705C150.443 102.797 150.53 103.898 150.801 104.961Z" fill="black"/>
<path d="M137.824 86.7507C139.336 93.5347 139.832 96.4387 143.848 99.5507C149.88 104.279 157.84 101.399 158.376 94.4067C158.856 88.1187 156.296 78.0787 149.176 76.0627C147.66 75.575 146.042 75.5027 144.488 75.8533C142.935 76.2039 141.505 76.9645 140.345 78.056C139.186 79.1474 138.341 80.5297 137.897 82.059C137.454 83.5882 137.428 85.2084 137.824 86.7507Z" fill="#E4897B"/>
<path d="M146.586 87.5921C146.69 88.1681 147.074 88.6001 147.442 88.5601C147.81 88.5201 148.026 88.0241 147.922 87.4481C147.818 86.8721 147.434 86.4401 147.066 86.4801C146.698 86.5201 146.514 87.0161 146.586 87.5921Z" fill="#263238"/>
<path d="M153.713 86.5911C153.817 87.1671 154.201 87.5991 154.569 87.5671C154.937 87.5351 155.153 87.0231 155.057 86.4471C154.961 85.8711 154.569 85.4391 154.201 85.4791C153.833 85.5191 153.649 86.0151 153.713 86.5911Z" fill="#263238"/>
<path d="M154.072 85.5284L155.36 84.9844C155.36 84.9844 154.856 86.1444 154.072 85.5284Z" fill="#263238"/>
<path d="M151.776 88.0645C152.515 89.3264 153.413 90.4879 154.448 91.5205C154.191 91.7606 153.882 91.9393 153.545 92.0432C153.208 92.1471 152.853 92.1735 152.504 92.1205L151.776 88.0645Z" fill="#DE5753"/>
<path d="M144.913 84.1035C144.957 84.1035 145.001 84.0935 145.041 84.0741C145.082 84.0547 145.117 84.0265 145.145 83.9915C145.403 83.6686 145.739 83.4154 146.12 83.2548C146.501 83.0941 146.917 83.0311 147.329 83.0715C147.371 83.0783 147.415 83.0763 147.457 83.0658C147.499 83.0552 147.538 83.0363 147.572 83.0101C147.607 82.9839 147.636 82.9511 147.657 82.9135C147.678 82.8759 147.692 82.8344 147.697 82.7915C147.702 82.6992 147.673 82.6083 147.615 82.536C147.558 82.4637 147.476 82.4151 147.385 82.3995C146.865 82.3425 146.34 82.4166 145.856 82.6151C145.372 82.8135 144.946 83.13 144.617 83.5355C144.563 83.6075 144.539 83.6974 144.549 83.7866C144.56 83.8759 144.604 83.9578 144.673 84.0155C144.741 84.0703 144.825 84.1012 144.913 84.1035Z" fill="#263238"/>
<path d="M156.017 82.4633C156.102 82.4742 156.188 82.4512 156.257 82.3993C156.289 82.368 156.314 82.3306 156.331 82.2894C156.349 82.2482 156.358 82.204 156.358 82.1593C156.358 82.1146 156.349 82.0703 156.331 82.0291C156.314 81.9879 156.289 81.9505 156.257 81.9193C155.922 81.4851 155.492 81.1342 154.999 80.8941C154.506 80.654 153.965 80.5312 153.417 80.5353C153.374 80.5381 153.331 80.5499 153.293 80.5699C153.254 80.59 153.22 80.6178 153.193 80.6517C153.166 80.6856 153.147 80.7247 153.135 80.7667C153.124 80.8086 153.122 80.8524 153.129 80.8953C153.143 80.9857 153.19 81.0677 153.261 81.1254C153.332 81.1831 153.421 81.2123 153.513 81.2073C153.947 81.2148 154.374 81.3201 154.762 81.5154C155.149 81.7107 155.488 81.9909 155.753 82.3353C155.785 82.3747 155.825 82.4067 155.87 82.4288C155.916 82.4509 155.966 82.4627 156.017 82.4633Z" fill="#263238"/>
<path d="M146.913 86.5284L148.193 85.9844C148.193 85.9844 147.689 87.1364 146.913 86.5284Z" fill="#263238"/>
<path d="M141.305 90.6798C141.305 90.6798 144.641 85.8238 142.105 78.6318C142.105 78.6318 149.649 74.9678 155.369 80.5518C155.369 80.5518 150.049 71.2318 138.945 75.6958C127.841 80.1598 136.217 90.8238 137.593 91.6958C138.969 92.5678 141.305 90.6798 141.305 90.6798Z" fill="#263238"/>
<path d="M136.465 92.6164C137.357 93.7969 138.68 94.5763 140.145 94.7844C142.017 95.0084 142.545 93.1124 141.745 91.3684C140.945 89.7684 139.065 87.8004 137.345 88.3844C135.625 88.9684 135.313 91.1284 136.465 92.6164Z" fill="#E4897B"/>
<path d="M152.913 93.7279C152.548 94.601 152.246 95.4993 152.009 96.4159C151.841 96.4159 151.673 96.4159 151.513 96.3679C149.257 96.1439 148.313 95.2879 147.897 94.4159C147.717 93.9863 147.641 93.5205 147.673 93.0559C147.683 92.7837 147.732 92.5144 147.817 92.2559C148.945 93.0959 151.017 93.4719 152.145 93.6239C152.601 93.7119 152.913 93.7279 152.913 93.7279Z" fill="#263238"/>
<path d="M152.113 93.6629L151.825 94.4629C149.705 94.2389 148.241 93.7989 147.641 93.0949C147.65 92.8228 147.699 92.5534 147.785 92.2949C148.913 93.1109 151.009 93.4869 152.113 93.6629Z" fill="white"/>
<path d="M151.497 96.368C149.241 96.144 148.297 95.288 147.881 94.416C148.735 94.5196 149.564 94.7742 150.329 95.168C150.834 95.4361 151.243 95.8558 151.497 96.368Z" fill="#DE5753"/>
<path opacity="0.2" d="M135.784 134.944C135.537 135.621 135.076 136.199 134.472 136.592C133.672 133.632 132.872 130.496 132.16 127.704C133.992 125.488 135.536 123.64 135.536 123.64C135.536 123.64 137.648 130.2 135.784 134.944Z" fill="black"/>
<path d="M133.168 110.352C129.248 110.824 117.232 140.672 117.968 145.384C118.704 150.096 144.536 147.96 144.536 147.96V140.76L129.448 137.72L134.672 127.48C135.596 124.505 135.981 121.389 135.808 118.28C135.475 115.485 134.577 112.788 133.168 110.352Z" fill="#0196DA"/>
<path d="M129.337 159.001C129.295 159.012 129.251 159.012 129.209 159.001C129.144 158.965 129.097 158.906 129.076 158.836C129.055 158.766 129.062 158.69 129.097 158.625C129.169 158.481 136.641 144.145 133.809 139.633C133.483 139.158 133.03 138.785 132.503 138.554C131.976 138.324 131.394 138.246 130.825 138.329C120.513 138.689 115.625 153.641 115.577 153.793C115.547 153.853 115.497 153.901 115.435 153.928C115.373 153.954 115.304 153.957 115.24 153.937C115.176 153.917 115.121 153.874 115.086 153.817C115.051 153.759 115.038 153.691 115.049 153.625C115.097 153.465 120.097 138.145 130.801 137.769C131.471 137.686 132.151 137.791 132.765 138.074C133.378 138.357 133.901 138.805 134.273 139.369C137.281 144.169 129.905 158.313 129.585 158.913C129.554 158.947 129.515 158.974 129.472 158.989C129.429 159.004 129.382 159.008 129.337 159.001Z" fill="#0196DA"/>
<g opacity="0.6">
<path d="M129.337 159.001C129.295 159.012 129.251 159.012 129.209 159.001C129.144 158.965 129.097 158.906 129.076 158.836C129.055 158.766 129.062 158.69 129.097 158.625C129.169 158.481 136.641 144.145 133.809 139.633C133.483 139.158 133.03 138.785 132.503 138.554C131.976 138.324 131.394 138.246 130.825 138.329C120.513 138.689 115.625 153.641 115.577 153.793C115.547 153.853 115.497 153.901 115.435 153.928C115.373 153.954 115.304 153.957 115.24 153.937C115.176 153.917 115.121 153.874 115.086 153.817C115.051 153.759 115.038 153.691 115.049 153.625C115.097 153.465 120.097 138.145 130.801 137.769C131.471 137.686 132.151 137.791 132.765 138.074C133.378 138.357 133.901 138.805 134.273 139.369C137.281 144.169 129.905 158.313 129.585 158.913C129.554 158.947 129.515 158.974 129.472 158.989C129.429 159.004 129.382 159.008 129.337 159.001Z" fill="white"/>
</g>
<path d="M111.065 150.424L94.873 184.264L97.3691 194.44L125.769 204.144L139.233 163.48L135.513 159.696L135.161 157.48L111.065 150.424Z" fill="#263238"/>
<path opacity="0.2" d="M111.065 150.424L94.873 184.264L97.3691 194.44L125.769 204.144L139.233 163.48L115.057 157.704L115.289 154.792L111.065 150.424Z" fill="white"/>
<path opacity="0.1" d="M115.057 157.696L115.289 154.792L111.073 150.424L135.153 157.48L135.513 159.696L139.233 163.48L115.057 157.696Z" fill="white"/>
<path opacity="0.2" d="M115.056 157.703L97.3682 194.439L125.768 204.143L139.232 163.479L115.056 157.703Z" fill="white"/>
<path opacity="0.1" d="M115.289 154.792L99.0411 184.864L94.873 184.264L97.3691 194.44L99.497 185.448L115.289 154.792Z" fill="white"/>
<path d="M131.313 137.616C130.631 137.261 129.87 137.082 129.101 137.098C128.333 137.113 127.58 137.322 126.913 137.704C120.913 141.112 118.865 157.816 118.625 159.96C118.501 160.009 118.398 160.1 118.334 160.218C118.271 160.335 118.25 160.471 118.277 160.602C118.304 160.733 118.376 160.85 118.48 160.933C118.585 161.016 118.715 161.06 118.849 161.056C118.999 161.056 119.144 160.996 119.25 160.89C119.357 160.783 119.417 160.639 119.417 160.488C119.415 160.399 119.392 160.311 119.351 160.232C119.309 160.153 119.249 160.084 119.177 160.032C119.401 158.064 121.489 141.424 127.177 138.192C127.766 137.849 128.433 137.662 129.115 137.65C129.797 137.637 130.471 137.799 131.073 138.12C139.521 142.04 133.561 160.584 132.481 163.72C132.37 163.728 132.264 163.768 132.176 163.835C132.088 163.903 132.021 163.994 131.985 164.099C131.948 164.204 131.943 164.317 131.97 164.424C131.997 164.532 132.054 164.629 132.136 164.705C132.218 164.78 132.319 164.829 132.429 164.847C132.538 164.865 132.651 164.851 132.752 164.806C132.853 164.76 132.939 164.687 132.999 164.593C133.059 164.5 133.09 164.391 133.089 164.28C133.087 164.17 133.051 164.064 132.985 163.976C134.113 160.864 140.377 141.816 131.313 137.616Z" fill="#0196DA"/>
<path opacity="0.7" d="M131.313 137.616C130.631 137.261 129.87 137.082 129.101 137.098C128.333 137.113 127.58 137.322 126.913 137.704C120.913 141.112 118.865 157.816 118.625 159.96C118.501 160.009 118.398 160.1 118.334 160.218C118.271 160.335 118.25 160.471 118.277 160.602C118.304 160.733 118.376 160.85 118.48 160.933C118.585 161.016 118.715 161.06 118.849 161.056C118.999 161.056 119.144 160.996 119.25 160.89C119.357 160.783 119.417 160.639 119.417 160.488C119.415 160.399 119.392 160.311 119.351 160.232C119.309 160.153 119.249 160.084 119.177 160.032C119.401 158.064 121.489 141.424 127.177 138.192C127.766 137.849 128.433 137.662 129.115 137.65C129.797 137.637 130.471 137.799 131.073 138.12C139.521 142.04 133.561 160.584 132.481 163.72C132.37 163.728 132.264 163.768 132.176 163.835C132.088 163.903 132.021 163.994 131.985 164.099C131.948 164.204 131.943 164.317 131.97 164.424C131.997 164.532 132.054 164.629 132.136 164.705C132.218 164.78 132.319 164.829 132.429 164.847C132.538 164.865 132.651 164.851 132.752 164.806C132.853 164.76 132.939 164.687 132.999 164.593C133.059 164.5 133.09 164.391 133.089 164.28C133.087 164.17 133.051 164.064 132.985 163.976C134.113 160.864 140.377 141.816 131.313 137.616Z" fill="white"/>
<path d="M137.234 157.976H137.194C137.123 157.966 137.059 157.929 137.015 157.872C136.972 157.815 136.953 157.743 136.962 157.672C136.962 157.52 138.986 142.048 134.722 138.536C134.242 138.166 133.671 137.932 133.07 137.86C132.468 137.789 131.859 137.881 131.306 138.128C121.554 141.448 122.602 156.76 122.61 156.912C122.614 156.948 122.611 156.984 122.601 157.018C122.59 157.052 122.573 157.084 122.55 157.111C122.526 157.138 122.497 157.16 122.465 157.176C122.433 157.191 122.397 157.199 122.362 157.2C122.291 157.205 122.221 157.181 122.167 157.135C122.113 157.088 122.08 157.023 122.074 156.952C122.074 156.792 120.978 141.072 131.13 137.616C131.771 137.34 132.474 137.241 133.167 137.329C133.859 137.418 134.515 137.691 135.066 138.12C139.562 141.816 137.586 157.096 137.466 157.744C137.459 157.803 137.432 157.858 137.39 157.9C137.348 157.943 137.293 157.969 137.234 157.976Z" fill="#263238"/>
<path d="M117.337 155.048L106.729 197.096L112.065 206.112L142.057 207.184L148.073 159.408L143.417 156.856L142.441 154.84L117.337 155.048Z" fill="#0196DA"/>
<path opacity="0.5" d="M117.337 155.047L106.729 197.095L112.065 206.111L142.057 207.183L148.073 159.407L123.265 160.863L122.641 158.007L117.337 155.047Z" fill="white"/>
<path opacity="0.3" d="M123.256 160.864L122.64 158.008L117.336 155.048L142.432 154.832L143.416 156.856L148.072 159.408L123.256 160.864Z" fill="white"/>
<path opacity="0.2" d="M123.264 160.863L112.064 206.111L142.056 207.183L148.072 159.407L123.264 160.863Z" fill="white"/>
<path d="M127.657 162.416C127.594 162.417 127.534 162.396 127.485 162.357C127.437 162.317 127.404 162.262 127.393 162.2C127.249 161.464 123.993 144.184 128.889 139.04C129.427 138.472 130.1 138.048 130.845 137.808C131.59 137.567 132.384 137.518 133.153 137.664C143.681 139.16 142.297 161.176 142.233 162.112C142.231 162.148 142.222 162.182 142.206 162.214C142.19 162.246 142.169 162.274 142.142 162.297C142.115 162.321 142.083 162.338 142.05 162.349C142.016 162.36 141.98 162.364 141.945 162.36C141.909 162.359 141.874 162.351 141.842 162.336C141.809 162.32 141.78 162.299 141.757 162.271C141.734 162.244 141.716 162.213 141.706 162.178C141.695 162.144 141.692 162.108 141.697 162.072C141.697 161.848 143.113 139.624 133.073 138.2C132.39 138.064 131.684 138.104 131.021 138.315C130.358 138.526 129.759 138.902 129.281 139.408C124.569 144.36 127.889 161.92 127.921 162.096C127.933 162.167 127.917 162.24 127.877 162.299C127.837 162.359 127.775 162.401 127.705 162.416H127.657Z" fill="#263238"/>
<path opacity="0.1" d="M122.641 158.007L110.897 196.455L106.729 197.095L112.065 206.111L111.505 196.887L122.641 158.007Z" fill="white"/>
<path d="M128.249 162.264C128.271 162.335 128.279 162.409 128.272 162.483C128.265 162.557 128.244 162.629 128.209 162.695C128.174 162.76 128.126 162.818 128.068 162.865C128.011 162.912 127.944 162.947 127.873 162.968C127.766 163.001 127.651 163.002 127.543 162.97C127.435 162.938 127.339 162.874 127.267 162.787C127.195 162.7 127.151 162.594 127.14 162.482C127.128 162.37 127.151 162.257 127.204 162.158C127.257 162.058 127.338 161.977 127.438 161.924C127.537 161.871 127.65 161.849 127.762 161.86C127.874 161.872 127.98 161.916 128.067 161.988C128.154 162.06 128.217 162.156 128.249 162.264Z" fill="#263238"/>
<path d="M142.448 161.943C142.482 162.051 142.482 162.166 142.45 162.274C142.418 162.382 142.355 162.478 142.268 162.55C142.181 162.622 142.075 162.666 141.963 162.677C141.851 162.688 141.738 162.666 141.638 162.613C141.539 162.56 141.458 162.479 141.405 162.379C141.352 162.28 141.329 162.167 141.341 162.055C141.352 161.943 141.397 161.836 141.468 161.75C141.54 161.663 141.636 161.599 141.744 161.567C141.815 161.545 141.89 161.537 141.964 161.544C142.038 161.551 142.11 161.573 142.175 161.608C142.241 161.643 142.298 161.691 142.345 161.748C142.392 161.806 142.427 161.872 142.448 161.943Z" fill="#263238"/>
<path d="M184.496 119.512C184.432 119.512 184.369 119.489 184.32 119.446C184.271 119.403 184.24 119.344 184.232 119.28C184.232 119.12 181.904 102.92 191.376 97.9357C191.938 97.5726 192.59 97.3716 193.259 97.3547C193.928 97.3377 194.589 97.5056 195.168 97.8397C199.968 100.856 199.616 117.04 199.592 117.704C199.59 117.774 199.561 117.842 199.51 117.891C199.459 117.94 199.391 117.968 199.32 117.968C199.284 117.968 199.249 117.96 199.215 117.946C199.182 117.932 199.153 117.911 199.128 117.885C199.103 117.859 199.084 117.828 199.072 117.794C199.059 117.76 199.054 117.724 199.056 117.688C199.056 117.528 199.456 101.152 194.88 98.3037C194.382 98.0177 193.814 97.8766 193.24 97.8964C192.666 97.9162 192.109 98.0961 191.632 98.4157C182.496 103.216 184.744 119.04 184.768 119.216C184.774 119.251 184.772 119.287 184.764 119.322C184.755 119.356 184.739 119.389 184.717 119.417C184.696 119.446 184.669 119.47 184.637 119.487C184.606 119.505 184.572 119.516 184.536 119.52L184.496 119.512Z" fill="#263238"/>
<path d="M179.264 118.152L175.304 161.336L181.968 169.416L211.768 165.832L210.304 117.696L205.312 115.896L204.024 114.056L179.264 118.152Z" fill="#263238"/>
<path opacity="0.5" d="M179.264 118.151L175.304 161.335L181.968 169.415L211.768 165.831L210.304 117.695L186.016 122.983L184.96 120.255L179.264 118.151Z" fill="white"/>
<path opacity="0.3" d="M186.018 122.984L184.962 120.256L179.266 118.152L204.026 114.056L205.314 115.896L210.306 117.696L186.018 122.984Z" fill="white"/>
<path opacity="0.2" d="M186.017 122.983L181.969 169.415L211.769 165.831L210.305 117.695L186.017 122.983Z" fill="white"/>
<path d="M190.56 123.84C190.505 123.841 190.45 123.825 190.404 123.793C190.358 123.762 190.323 123.716 190.304 123.664C190.064 123.016 184.576 107.664 188.464 100.872C188.899 100.08 189.508 99.3977 190.245 98.8765C190.983 98.3553 191.829 98.009 192.72 97.8638C193.56 97.6997 194.426 97.7229 195.255 97.9317C196.085 98.1405 196.858 98.5298 197.52 99.0718C203.768 103.944 204.888 120.576 204.928 121.28C204.931 121.35 204.907 121.419 204.861 121.472C204.815 121.526 204.75 121.56 204.68 121.568C204.645 121.57 204.609 121.565 204.575 121.553C204.541 121.542 204.51 121.523 204.483 121.5C204.456 121.476 204.435 121.447 204.419 121.415C204.404 121.383 204.394 121.348 204.392 121.312C204.392 121.144 203.248 104.216 197.192 99.4958C196.585 98.9998 195.876 98.6438 195.116 98.453C194.355 98.2622 193.562 98.2413 192.792 98.3918C191.98 98.5247 191.208 98.8409 190.536 99.3163C189.864 99.7917 189.308 100.414 188.912 101.136C185.144 107.712 190.728 123.32 190.784 123.48C190.797 123.513 190.803 123.548 190.802 123.584C190.801 123.619 190.792 123.654 190.777 123.686C190.762 123.718 190.741 123.747 190.715 123.77C190.689 123.794 190.658 123.812 190.624 123.824L190.56 123.84Z" fill="#263238"/>
<path opacity="0.1" d="M184.96 120.256L179.32 160.064L175.304 161.336L181.968 169.416L179.984 160.392L184.96 120.256Z" fill="white"/>
<path d="M191.16 123.591C191.207 123.691 191.224 123.803 191.208 123.912C191.192 124.021 191.144 124.123 191.07 124.205C190.996 124.287 190.899 124.346 190.792 124.373C190.685 124.4 190.572 124.395 190.468 124.359C190.364 124.322 190.273 124.256 190.206 124.168C190.14 124.079 190.101 123.973 190.095 123.863C190.088 123.753 190.115 123.643 190.17 123.548C190.226 123.452 190.309 123.376 190.408 123.327C190.475 123.295 190.547 123.276 190.621 123.271C190.695 123.267 190.769 123.278 190.839 123.302C190.909 123.327 190.974 123.365 191.029 123.415C191.084 123.464 191.128 123.524 191.16 123.591Z" fill="#263238"/>
<path d="M205.144 121.071C205.189 121.171 205.203 121.282 205.185 121.391C205.168 121.499 205.119 121.6 205.045 121.682C204.972 121.763 204.876 121.822 204.769 121.85C204.663 121.878 204.551 121.874 204.447 121.84C204.342 121.805 204.25 121.741 204.181 121.656C204.113 121.57 204.07 121.466 204.059 121.357C204.049 121.247 204.07 121.137 204.12 121.039C204.171 120.942 204.248 120.861 204.344 120.807C204.413 120.767 204.49 120.743 204.569 120.735C204.648 120.727 204.727 120.736 204.803 120.761C204.878 120.786 204.947 120.826 205.006 120.88C205.065 120.933 205.112 120.998 205.144 121.071Z" fill="#263238"/>
<path d="M157.712 136.064L157.88 134.68L158 134.552C158.624 133.752 158.504 132.368 158.336 131.288C158.168 130.208 157.6 128.752 156.576 128.36C156.726 128.069 156.763 127.733 156.68 127.416C156.618 127.206 156.502 127.016 156.344 126.864C157.088 126.064 157.056 124.592 156.8 123.528C156.544 122.464 156.112 121.128 155.2 120.64C155.146 120.613 155.09 120.589 155.032 120.568L154.352 119.368L153.488 119.544L153.424 120.544C151.904 121.016 150.368 122.216 150.76 124.152C150.757 124.179 150.757 124.206 150.76 124.232C151.184 126.112 153.272 127.12 155.176 127.28C155.409 127.333 155.653 127.31 155.872 127.216C155.985 127.309 156.066 127.435 156.104 127.576C156.151 127.8 156.107 128.032 155.984 128.224C155.773 128.257 155.572 128.333 155.392 128.448C153.712 129.328 152.192 131.056 152.512 132.96C152.512 132.96 152.512 133.016 152.512 133.04C152.904 134.976 154.712 135.496 156.36 135.336L156.816 136.248L157.712 136.064ZM155.216 126.72C153.616 126.576 151.672 125.704 151.312 124.096C150.952 122.488 152.32 121.416 153.712 121.016C153.906 120.95 154.111 120.924 154.314 120.94C154.518 120.957 154.716 121.015 154.896 121.112C155.608 121.528 155.976 122.712 156.208 123.648L156.256 123.848C156.408 124.648 156.48 125.912 155.872 126.496C155.608 126.752 155.608 126.752 155.192 126.72H155.216ZM156.496 134.76C155.792 134.856 153.432 134.96 153.072 132.856C152.792 131.256 154.216 129.656 155.68 128.92C156.032 128.744 156.032 128.744 156.376 128.92C157.176 129.224 157.592 130.424 157.752 131.216C157.752 131.28 157.752 131.352 157.752 131.408C157.904 132.392 158.024 133.6 157.52 134.264C157.389 134.414 157.228 134.536 157.048 134.621C156.867 134.706 156.672 134.754 156.472 134.76H156.496Z" fill="#263238"/>
<path d="M156.513 135.041C154.913 135.249 153.113 134.777 152.777 132.905C152.441 131.033 153.953 129.505 155.513 128.689C155.969 128.449 155.985 128.433 156.457 128.617C157.417 128.993 157.897 130.441 158.057 131.329C158.305 133.049 158.329 134.809 156.513 135.041Z" fill="#0196DA"/>
<path d="M153.64 120.752C152.04 121.192 150.608 122.352 151.024 124.16C151.44 125.968 153.424 126.848 155.168 126.992C155.68 127.04 155.704 127.048 156.064 126.696C156.808 125.976 156.696 124.456 156.48 123.584C156.064 121.888 155.4 120.256 153.64 120.752Z" fill="#0196DA"/>
<path d="M156.977 135.399C155.841 130.839 154.425 125.799 154.033 125.367C153.382 125.1 152.707 124.897 152.017 124.759L152.129 124.231C152.884 124.379 153.622 124.607 154.329 124.911C154.929 125.255 156.569 131.551 157.529 135.271L156.977 135.399Z" fill="#263238"/>
<path opacity="0.4" d="M156.513 135.041C154.913 135.249 153.113 134.777 152.777 132.905C152.441 131.033 153.953 129.505 155.513 128.689C155.969 128.449 155.985 128.433 156.457 128.617C157.417 128.993 157.897 130.441 158.057 131.329C158.305 133.049 158.329 134.809 156.513 135.041Z" fill="white"/>
<path opacity="0.4" d="M153.64 120.752C152.04 121.192 150.608 122.352 151.024 124.16C151.44 125.968 153.424 126.848 155.168 126.992C155.68 127.04 155.704 127.048 156.064 126.696C156.808 125.976 156.696 124.456 156.48 123.584C156.064 121.888 155.4 120.256 153.64 120.752Z" fill="white"/>
<path d="M190.513 120.48C190.457 120.479 190.404 120.462 190.358 120.43C190.312 120.399 190.277 120.355 190.257 120.304C189.945 119.568 182.697 102.056 192.529 97.6155C193.108 97.3382 193.744 97.2009 194.386 97.2148C195.028 97.2287 195.658 97.3934 196.225 97.6955C201.825 100.528 204.873 115.04 205.025 115.656C205.033 115.691 205.034 115.727 205.028 115.763C205.022 115.799 205.009 115.833 204.99 115.863C204.97 115.894 204.945 115.92 204.915 115.941C204.886 115.961 204.852 115.976 204.817 115.984C204.745 116 204.669 115.988 204.606 115.949C204.543 115.91 204.498 115.848 204.481 115.776C204.481 115.624 201.329 100.904 195.993 98.1755C195.502 97.9121 194.957 97.7689 194.4 97.7578C193.844 97.7467 193.293 97.8679 192.793 98.1115C183.457 102.328 190.737 119.896 190.809 120.072C190.824 120.105 190.833 120.141 190.834 120.178C190.836 120.215 190.829 120.252 190.816 120.287C190.802 120.321 190.782 120.352 190.756 120.379C190.73 120.405 190.699 120.426 190.665 120.44C190.619 120.467 190.566 120.481 190.513 120.48Z" fill="#263238"/>
<g opacity="0.7">
<path d="M190.512 120.48C190.456 120.479 190.403 120.462 190.357 120.43C190.311 120.399 190.276 120.355 190.256 120.304C189.944 119.568 182.696 102.056 192.528 97.6155C193.107 97.3382 193.743 97.2009 194.385 97.2148C195.027 97.2287 195.657 97.3934 196.224 97.6955C201.824 100.528 204.872 115.04 205.024 115.656C205.032 115.691 205.033 115.727 205.027 115.763C205.021 115.799 205.008 115.833 204.989 115.863C204.969 115.894 204.944 115.92 204.914 115.941C204.885 115.961 204.851 115.976 204.816 115.984C204.744 116 204.668 115.988 204.605 115.949C204.542 115.91 204.497 115.848 204.48 115.776C204.48 115.624 201.328 100.904 195.992 98.1755C195.502 97.9121 194.956 97.7689 194.399 97.7578C193.843 97.7467 193.292 97.8679 192.792 98.1115C183.456 102.328 190.736 119.896 190.808 120.072C190.823 120.105 190.832 120.141 190.833 120.178C190.835 120.215 190.828 120.252 190.815 120.287C190.801 120.321 190.781 120.352 190.755 120.379C190.729 120.405 190.698 120.426 190.664 120.44C190.618 120.467 190.565 120.481 190.512 120.48Z" fill="white"/>
</g>
<path d="M185.185 120.183L192.809 156.927L200.961 163.511L229.433 154.015L215.505 113.511L210.249 112.751L208.625 111.199L185.185 120.183Z" fill="#0196DA"/>
<path opacity="0.2" d="M185.185 120.184L192.809 156.928L200.961 163.512L229.433 154.016L215.505 113.512L192.769 123.56L191.185 121.104L185.185 120.184Z" fill="white"/>
<path opacity="0.1" d="M192.761 123.559L191.185 121.103L185.185 120.183L208.617 111.199L210.249 112.751L215.497 113.511L192.761 123.559Z" fill="white"/>
<path opacity="0.2" d="M192.769 123.56L200.961 163.512L229.433 154.016L215.505 113.512L192.769 123.56Z" fill="white"/>
<path opacity="0.1" d="M191.184 121.104L196.488 154.872L192.808 156.928L200.96 163.512L197.208 155.064L191.184 121.104Z" fill="white"/>
<path d="M211.121 117.856C211.049 117.774 210.959 117.71 210.857 117.672C209.817 114.472 203.065 95.1358 193.321 97.2878C192.569 97.4164 191.863 97.7323 191.265 98.2063C190.668 98.6803 190.2 99.2971 189.905 99.9998C187.169 106.4 195.865 121.312 196.985 123.2C196.932 123.297 196.908 123.408 196.917 123.519C196.925 123.63 196.966 123.735 197.033 123.824C197.078 123.884 197.134 123.935 197.199 123.973C197.264 124.012 197.336 124.036 197.411 124.046C197.485 124.056 197.561 124.05 197.634 124.03C197.706 124.01 197.774 123.975 197.833 123.928C197.893 123.883 197.944 123.826 197.982 123.762C198.02 123.697 198.045 123.626 198.056 123.551C198.066 123.477 198.062 123.401 198.043 123.328C198.024 123.256 197.99 123.188 197.945 123.128C197.891 123.057 197.82 123 197.739 122.963C197.659 122.925 197.57 122.908 197.481 122.912C196.457 121.184 187.825 106.304 190.425 100.216C190.685 99.5931 191.099 99.0465 191.628 98.6268C192.157 98.2072 192.783 97.9282 193.449 97.8158C202.545 95.8158 209.233 114.552 210.313 117.816C210.204 117.908 210.135 118.037 210.119 118.178C210.102 118.32 210.14 118.462 210.225 118.576C210.318 118.694 210.453 118.772 210.602 118.792C210.751 118.813 210.903 118.776 211.025 118.688C211.088 118.641 211.14 118.582 211.179 118.514C211.218 118.446 211.243 118.37 211.252 118.292C211.261 118.215 211.254 118.136 211.232 118.061C211.209 117.986 211.171 117.916 211.121 117.856Z" fill="#263238"/>
<path opacity="0.8" d="M211.121 117.856C211.049 117.774 210.959 117.71 210.857 117.672C209.817 114.472 203.065 95.1358 193.321 97.2878C192.569 97.4164 191.863 97.7323 191.265 98.2063C190.668 98.6803 190.2 99.2971 189.905 99.9998C187.169 106.4 195.865 121.312 196.985 123.2C196.932 123.297 196.908 123.408 196.917 123.519C196.925 123.63 196.966 123.735 197.033 123.824C197.078 123.884 197.134 123.935 197.199 123.973C197.264 124.012 197.336 124.036 197.411 124.046C197.485 124.056 197.561 124.05 197.634 124.03C197.706 124.01 197.774 123.975 197.833 123.928C197.893 123.883 197.944 123.826 197.982 123.762C198.02 123.697 198.045 123.626 198.056 123.551C198.066 123.477 198.062 123.401 198.043 123.328C198.024 123.256 197.99 123.188 197.945 123.128C197.891 123.057 197.82 123 197.739 122.963C197.659 122.925 197.57 122.908 197.481 122.912C196.457 121.184 187.825 106.304 190.425 100.216C190.685 99.5931 191.099 99.0465 191.628 98.6268C192.157 98.2072 192.783 97.9282 193.449 97.8158C202.545 95.8158 209.233 114.552 210.313 117.816C210.204 117.908 210.135 118.037 210.119 118.178C210.102 118.32 210.14 118.462 210.225 118.576C210.318 118.694 210.453 118.772 210.602 118.792C210.751 118.813 210.903 118.776 211.025 118.688C211.088 118.641 211.14 118.582 211.179 118.514C211.218 118.446 211.243 118.37 211.252 118.292C211.261 118.215 211.254 118.136 211.232 118.061C211.209 117.986 211.171 117.916 211.121 117.856Z" fill="white"/>
<path d="M200.96 96.9913L194.928 95.1113L191.504 100.495L198.048 103.647L200.96 96.9913Z" fill="#E4897B"/>
<path d="M150.041 139.895L144.113 141.583L142.881 145.495C143.449 148.695 149.553 147.311 149.553 147.311L150.801 148.111C151.036 148.258 151.303 148.345 151.579 148.365C151.856 148.385 152.133 148.336 152.386 148.224C152.639 148.112 152.861 147.94 153.033 147.722C153.204 147.504 153.32 147.248 153.369 146.975L154.017 143.279C154.064 142.98 154.03 142.674 153.919 142.393C153.808 142.112 153.623 141.865 153.385 141.679L151.521 140.223C151.317 140.057 151.077 139.941 150.82 139.884C150.563 139.827 150.296 139.831 150.041 139.895Z" fill="#E4897B"/>
<path d="M121.152 133.064C119.08 138.736 117.688 143.688 117.952 145.384C118.672 150.104 144.52 147.96 144.52 147.96V140.76L129.432 137.72L121.152 133.064Z" fill="#0196DA"/>
<path d="M116.624 150.697C116.585 150.704 116.544 150.704 116.504 150.697C116.471 150.681 116.442 150.66 116.418 150.633C116.393 150.606 116.375 150.574 116.363 150.54C116.351 150.505 116.346 150.469 116.348 150.433C116.351 150.397 116.36 150.361 116.376 150.329C118.488 145.753 123.184 138.033 130.776 137.761C130.85 137.761 130.921 137.789 130.975 137.839C131.028 137.89 131.06 137.959 131.064 138.033C131.067 138.106 131.04 138.177 130.991 138.23C130.942 138.284 130.873 138.317 130.8 138.321C123.48 138.577 118.92 146.097 116.856 150.561C116.832 150.601 116.798 150.635 116.758 150.658C116.717 150.682 116.671 150.695 116.624 150.697Z" fill="#0196DA"/>
<g opacity="0.6">
<path d="M116.624 150.697C116.585 150.704 116.544 150.704 116.504 150.697C116.471 150.681 116.442 150.66 116.418 150.633C116.393 150.606 116.375 150.574 116.363 150.54C116.351 150.505 116.346 150.469 116.348 150.433C116.351 150.397 116.36 150.361 116.376 150.329C118.488 145.753 123.184 138.033 130.776 137.761C130.85 137.761 130.921 137.789 130.975 137.839C131.028 137.89 131.06 137.959 131.064 138.033C131.067 138.106 131.04 138.177 130.991 138.23C130.942 138.284 130.873 138.317 130.8 138.321C123.48 138.577 118.92 146.097 116.856 150.561C116.832 150.601 116.798 150.635 116.758 150.658C116.717 150.682 116.671 150.695 116.624 150.697Z" fill="white"/>
</g>
<path d="M119.944 153.84H119.888C119.816 153.825 119.752 153.782 119.71 153.721C119.669 153.66 119.652 153.585 119.664 153.512C120.896 147.352 123.192 139.592 127.136 137.592C127.785 137.261 128.503 137.088 129.232 137.088C129.961 137.088 130.679 137.261 131.328 137.592C131.366 137.604 131.401 137.624 131.431 137.65C131.461 137.676 131.485 137.709 131.502 137.745C131.518 137.782 131.527 137.821 131.526 137.861C131.526 137.901 131.517 137.941 131.501 137.977C131.484 138.013 131.46 138.046 131.429 138.072C131.399 138.098 131.364 138.117 131.325 138.129C131.287 138.14 131.247 138.143 131.207 138.137C131.168 138.132 131.13 138.118 131.096 138.096C130.524 137.798 129.889 137.642 129.244 137.642C128.599 137.642 127.964 137.798 127.392 138.096C123.648 139.992 121.416 147.592 120.192 153.624C120.179 153.682 120.148 153.734 120.103 153.772C120.058 153.811 120.003 153.835 119.944 153.84Z" fill="#0196DA"/>
<g opacity="0.7">
<path d="M119.944 153.84H119.888C119.816 153.825 119.752 153.782 119.71 153.721C119.669 153.66 119.652 153.585 119.664 153.512C120.896 147.352 123.192 139.592 127.136 137.592C127.785 137.261 128.503 137.088 129.232 137.088C129.961 137.088 130.679 137.261 131.328 137.592C131.366 137.604 131.401 137.624 131.431 137.65C131.461 137.676 131.485 137.709 131.502 137.745C131.518 137.782 131.527 137.821 131.526 137.861C131.526 137.901 131.517 137.941 131.501 137.977C131.484 138.013 131.46 138.046 131.429 138.072C131.399 138.098 131.364 138.117 131.325 138.129C131.287 138.14 131.247 138.143 131.207 138.137C131.168 138.132 131.13 138.118 131.096 138.096C130.524 137.798 129.889 137.642 129.244 137.642C128.599 137.642 127.964 137.798 127.392 138.096C123.648 139.992 121.416 147.592 120.192 153.624C120.179 153.682 120.148 153.734 120.103 153.772C120.058 153.811 120.003 153.835 119.944 153.84Z" fill="white"/>
</g>
<path d="M122.441 152.64C122.405 152.637 122.37 152.627 122.338 152.611C122.306 152.594 122.278 152.571 122.255 152.544C122.232 152.516 122.214 152.485 122.204 152.45C122.193 152.416 122.189 152.38 122.193 152.344C122.609 147.84 124.321 139.944 131.153 137.616C131.186 137.604 131.222 137.598 131.258 137.6C131.293 137.602 131.328 137.611 131.361 137.626C131.393 137.642 131.421 137.664 131.445 137.691C131.468 137.718 131.486 137.75 131.497 137.784C131.52 137.852 131.515 137.926 131.483 137.991C131.452 138.055 131.396 138.105 131.329 138.128C125.113 140.24 123.225 147.056 122.729 152.4C122.726 152.435 122.716 152.469 122.7 152.5C122.683 152.531 122.661 152.558 122.635 152.58C122.608 152.603 122.577 152.619 122.544 152.63C122.51 152.64 122.475 152.644 122.441 152.64Z" fill="#263238"/>
<path d="M127.657 162.416C127.594 162.417 127.534 162.396 127.485 162.357C127.437 162.317 127.404 162.262 127.393 162.2C127.249 161.464 123.993 144.184 128.889 139.04C129.427 138.472 130.1 138.048 130.845 137.808C131.59 137.567 132.384 137.518 133.153 137.664C133.223 137.676 133.286 137.714 133.329 137.771C133.372 137.827 133.392 137.898 133.385 137.968C133.373 138.04 133.334 138.104 133.276 138.147C133.218 138.191 133.145 138.21 133.073 138.2C132.39 138.064 131.684 138.104 131.021 138.315C130.358 138.526 129.759 138.902 129.281 139.408C124.569 144.36 127.889 161.92 127.921 162.096C127.933 162.167 127.917 162.24 127.877 162.299C127.837 162.359 127.775 162.401 127.705 162.416H127.657Z" fill="#263238"/>
</svg>
